<?xml version="1.0" encoding="utf-8"?>
<!-- Generator: Adobe Illustrator 27.5.0, SVG Export Plug-In . SVG Version: 6.00 Build 0)  -->
<svg version="1.1" xmlns="http://www.w3.org/2000/svg" xmlns:xlink="http://www.w3.org/1999/xlink" x="0px" y="0px"
	 viewBox="0 0 500 500" style="enable-background:new 0 0 500 500;" xml:space="preserve">
<g id="BACKGROUND">
	<rect style="fill:#FFFFFF;" width="500" height="500"/>
</g>
<g id="OBJECTS">
	<g>
		<path style="fill:#EAE1FF;" d="M452.443,326.005c-24.446,49.164-87.738,82.464-140.052,88.428
			c-41.845,4.771-84.375-3.052-124.114-17.003c-32.851-11.533-64.217-27.274-93.123-46.678
			c-20.329-13.646-59.643-31.217-52.769-61.764c4.454-19.792,27.628-30.095,34.846-49.055c6.696-17.589-2.072-36.924-3.141-55.714
			c-1.309-23.014,9.363-45.472,24.651-62.724c15.289-17.251,34.92-30.007,54.664-41.904c26.514-15.976,53.989-30.929,83.706-39.595
			c29.717-8.666,62.064-10.728,91.448-0.991c31.766,10.526,57.653,33.825,79.946,58.783c13.049,14.608,25.407,30.311,32.491,48.573
			c7.084,18.261,8.348,39.564-0.484,57.048c-6.705,13.271-19.238,25.801-16.238,40.364c2.793,13.556,17.597,20.567,26.012,31.556
			C461.119,289.478,460.377,310.048,452.443,326.005z"/>
		<path style="fill:#A7A7DD;" d="M262.757,469.604c-80.038-1.718-170.254-7.509-157.595-19.579
			c12.659-12.07,50.637-10.8,45.099-13.809s-57.44-5.096-39.006-13.547c18.434-8.451,130.284-29.093,168.152-28.152
			c37.868,0.941,134.326,18.313,135.908,25.732c1.582,7.42-69.626,10.272-63.297,15.967c6.33,5.695,46.681,4.1,52.22,10.436
			C409.778,452.989,319.849,470.83,262.757,469.604z"/>
		<g>
			<path style="fill:#C3C1F2;" d="M431.91,297.85c0.93-0.03,1.886-0.042,2.878-0.013c5.103,0.146,6.454,2.781,3.766,7.048
				c-2.857,4.534-5.568,7.19-6.127,12.884c-0.494,5.029,0.47,10.183,1.76,15.026c2.307,8.657,5.462,17.825,2.629,26.324
				c-2.514,7.543-9.179,12.766-14.539,18.638c-5.359,5.873-9.775,14.265-6.547,21.531c1.229,2.767,3.512,5.832,1.995,8.452
				c-1.768,3.053-6.348,1.797-9.64,0.53c-13.383-5.155-27.613-3.268-41.552-3.528c-6.409-0.119-12.565,1.025-19.049,0.012
				c-6.827-1.067-13.427-3.344-19.815-5.923c-12.193-4.922-24.355-10.966-37.491-11.546c-2.74-0.121-6.576-1.202-6.032-3.89
				c0.337-1.663,2.264-2.366,3.536-3.49c3.198-2.828,1.99-7.961,0.78-12.055c-6.43-21.743-5.212-45.667,3.392-66.645
				c2.619-6.386,5.971-13.199,4.187-19.867c-0.599-2.239-1.534-5.164,0.396-6.447c1.939-1.289,4.273,0.726,6.238,1.976
				c5.359,3.408,12.318,1.053,18.394-0.796c26.065-7.93,55.453-4.166,78.678,10.078c5.932,3.638,11.531,7.948,18.011,10.486
				C422.892,298.648,427.062,298.005,431.91,297.85z"/>
			<path style="fill:#A7A7DD;" d="M370.29,382.459c11.576,5.124,26.375,5.087,35.706-3.468c4.906-4.498,7.761-10.748,10.49-16.818
				c5.724-12.734,11.554-26.972,7.191-40.234c10.631,12.297,11.284,32.099,1.488,45.07c-3.225,4.27-7.37,7.774-10.631,12.017
				c-3.261,4.243-5.65,9.647-4.509,14.875c0.498,2.283,1.585,4.892,0.174,6.756c-1.057,1.396-3.034,1.621-4.784,1.694
				c-16.689,0.701-33.507-1.819-49.257-7.382c-8.512-3.006-17.247-7.374-21.626-15.267c-3.703-6.674-2.09-25.676,8.342-18.672
				C352.722,367.642,358.907,377.421,370.29,382.459z"/>
		</g>
		<g>
			<path style="fill:#C3C1F2;" d="M61.758,319.24c-0.93-0.03-1.886-0.042-2.878-0.013c-5.103,0.146-6.454,2.781-3.766,7.048
				c2.857,4.533,5.568,7.19,6.127,12.884c0.494,5.029-0.47,10.183-1.76,15.026c-2.307,8.657-5.462,17.825-2.629,26.324
				c2.514,7.543,9.179,12.766,14.539,18.638c5.359,5.873,9.775,14.265,6.547,21.531c-1.23,2.767-3.512,5.832-1.995,8.452
				c1.768,3.053,6.348,1.797,9.64,0.53c13.383-5.155,27.613-3.268,41.552-3.528c6.409-0.119,12.565,1.025,19.049,0.012
				c6.827-1.067,13.427-3.344,19.815-5.923c12.193-4.922,24.355-10.966,37.491-11.546c2.74-0.121,6.576-1.202,6.032-3.89
				c-0.337-1.663-2.264-2.366-3.536-3.49c-3.198-2.828-1.99-7.961-0.78-12.055c6.43-21.743,5.212-45.667-3.392-66.645
				c-2.619-6.386-5.971-13.199-4.187-19.867c0.599-2.239,1.534-5.164-0.396-6.447c-1.939-1.289-4.273,0.726-6.238,1.976
				c-5.359,3.408-12.318,1.053-18.394-0.796c-26.065-7.93-55.453-4.166-78.678,10.078c-5.932,3.638-11.531,7.948-18.011,10.486
				C70.776,320.037,66.606,319.394,61.758,319.24z"/>
			<path style="fill:#A7A7DD;" d="M123.378,403.849c-11.576,5.124-26.375,5.087-35.705-3.468
				c-4.906-4.499-7.761-10.748-10.49-16.819c-5.724-12.733-11.554-26.972-7.191-40.234c-10.631,12.297-11.285,32.099-1.488,45.07
				c3.225,4.27,7.37,7.774,10.631,12.017c3.261,4.243,5.65,9.647,4.509,14.875c-0.499,2.283-1.585,4.892-0.174,6.756
				c1.057,1.396,3.034,1.62,4.783,1.694c16.689,0.701,33.507-1.819,49.257-7.382c8.512-3.006,17.247-7.374,21.626-15.267
				c3.703-6.674,2.09-25.676-8.342-18.672C140.947,389.031,134.761,398.81,123.378,403.849z"/>
		</g>
		<path style="fill:#EAE1FF;" d="M49.686,240.159c-7.589,3.326-17.136-0.518-21.508-7.558c-8.866-14.276,2.482-40.855,21.543-36.489
			C68.351,200.379,64.828,233.522,49.686,240.159z"/>
		<path style="fill:#EAE1FF;" d="M448.756,407.546c4.85,0.022,9.584-1.785,13.626-4.467c10.678-7.084,40.787-47.684,18.964-56.49
			c-15.736-6.35-37.374,17.252-43.702,28.821C431.112,387.353,430.148,407.46,448.756,407.546z"/>
		<path style="fill:#EAE1FF;" d="M469.606,250.809c18.814-16.432-5.435-47.727-25.299-32.221
			C423.489,234.837,448.903,268.89,469.606,250.809z"/>
	</g>
	<g>
		<path style="fill:#FB805F;" d="M259.67,424.686c1.552-0.63,3.783-0.239,4.744,1.242c0.539,0.83,0.704,1.849,0.733,2.838
			c0.029,0.989-0.063,1.981,0.018,2.968c0.189,2.301,1.301,4.406,2.166,6.547c0.566,1.401,1.035,2.893,1.063,4.417
			c0.013,0.72-0.199,1.413-0.192,2.123c0.005,0.474,0.28,1.161-0.155,1.544c-1.484,1.302-1.308-2.196-1.441-2.663
			c0,0,0.066,1.121-0.659,1.319c-0.725,0.198-0.396-1.582-0.396-1.582s-0.368,0.791-0.811,0.989c-0.442,0.198-0.31-1.517-0.31-1.517
			s-0.198,0.593-0.659,0.593c-0.462,0-0.33-1.78-0.33-1.78s-0.132,0.593-0.527,0.593s0.264-1.714,0.33-2.11
			c0.066-0.398-0.723-1.264-0.92-1.562c-0.663-1-1.284-2.091-2.039-3.022c-0.602-0.742-0.95-1.396-1.398-2.253
			c-0.473-0.903-1.101-1.755-2.013-2.252c-0.79-0.43-1.706-0.551-2.598-0.664c-1.761-0.224-3.522-0.447-5.283-0.671
			c-0.666-0.085-1.404-0.208-1.814-0.74c-0.464-0.601-0.309-1.466-0.045-2.177c0.302-0.814,0.757-1.624,1.51-2.056
			c1.106-0.634,2.514-0.276,3.659,0.286c1.124,0.552,2.491,1.646,3.803,1.416C257.449,426.276,258.437,425.187,259.67,424.686z"/>
		<path style="fill:#FB805F;" d="M279.837,425.379c-1.552-0.63-3.783-0.239-4.744,1.242c-0.539,0.83-0.704,1.849-0.733,2.838
			c-0.029,0.989,0.063,1.981-0.018,2.968c-0.189,2.301-1.301,4.406-2.166,6.547c-0.566,1.401-1.035,2.893-1.063,4.417
			c-0.013,0.72,0.199,1.413,0.192,2.123c-0.004,0.475-0.28,1.161,0.156,1.544c1.484,1.302,1.308-2.196,1.441-2.663
			c0,0-0.066,1.121,0.659,1.319c0.725,0.198,0.396-1.582,0.396-1.582s0.368,0.791,0.811,0.989c0.442,0.198,0.31-1.516,0.31-1.516
			s0.198,0.593,0.659,0.593c0.461,0,0.33-1.78,0.33-1.78s0.132,0.593,0.527,0.593s-0.264-1.714-0.33-2.11
			c-0.066-0.397,0.723-1.264,0.92-1.561c0.663-1,1.284-2.091,2.039-3.022c0.601-0.742,0.95-1.396,1.398-2.253
			c0.473-0.903,1.101-1.755,2.013-2.252c0.79-0.43,1.706-0.551,2.598-0.664c1.761-0.224,3.522-0.447,5.283-0.671
			c0.666-0.085,1.404-0.208,1.814-0.74c0.464-0.601,0.309-1.466,0.045-2.177c-0.302-0.814-0.757-1.624-1.51-2.056
			c-1.106-0.634-2.514-0.276-3.659,0.286c-1.125,0.552-2.491,1.646-3.803,1.416C282.059,426.968,281.07,425.879,279.837,425.379z"/>
		<path style="fill:#453248;" d="M370.267,389.528c-11.604-25.319-90.859,4.99-90.859,4.99c-2.95,1.018-5.438,2.202-7.513,3.486
			c-2.076-1.284-4.563-2.469-7.514-3.486c0,0-79.254-30.309-90.859-4.99c-10.042,21.91,59.756,39.077,82.127,41.935
			c2.656-5.026,5.549-9.87,5.761-15.782l-8.24-1.89h37.448l-11.698,2.683c1.744,5.39,3.255,10.716,5.809,15.341
			C302.077,430.596,380.896,412.719,370.267,389.528z"/>
		<path style="fill:#2D1F30;" d="M277.261,390.778c0,0,66.857-8.381,68.835-3.238c1.978,5.143-64.227,32.711-64.227,32.711
			l-0.617-3.165c0,0,17.767-5.341,17.767-6.132s-28.484,2.176-31.451,0.593C264.601,409.965,268.755,388.998,277.261,390.778z"/>
		<path style="fill:#2D1F30;" d="M270.276,395.196c0,0-69.722-11.473-71.7-6.33c-1.978,5.143,60.186,31.385,60.186,31.385
			l0.617-3.165c0,0-17.767-5.341-17.767-6.132s28.484,2.176,31.451,0.593C276.031,409.965,278.782,393.415,270.276,395.196z"/>
		<path style="fill:#7F6B6B;" d="M241.417,299.041c0,0-22.985,97.193-17.857,98.528c62.272,16.223,88.764-1.055,93.716-2.11
			c4.952-1.055-31.419-105.487-34.069-108.515C280.557,283.916,241.417,299.041,241.417,299.041z"/>
		<path style="fill:#958383;" d="M276.076,294.937c0,0,41.618,96.155,60.196,72.029c6.812-8.846-6.621-44.192-6.752-44.347
			c-0.131-0.155-4.314,7.822-4.314,7.822s-17.08-39.566-42.601-49.647C282.605,280.793,285.401,292.703,276.076,294.937z"/>
		<path style="fill:#7F6B6B;" d="M321.848,334.297c0.785,6.687,1.711,13.358,2.778,20.006c-2.139-2.757-4.105-5.918-5.455-9.136
			c-0.811-1.932-1.477-3.978-1.429-6.072C317.788,337.002,320.123,335.487,321.848,334.297z"/>
		<path style="fill:#958383;" d="M244.999,281.961c-14.887-1.028-25.57,8.09-31.541,21.766
			c-9.142,20.937-20.44,54.697-11.786,63.239c12.825,12.659,66.045-16.056,82.586-49.034l-1.841-11.963
			c0,0-15.442,20.583-45.4,33.54c-6.778,2.932,15.39-40.468,15.39-40.468S264.889,283.334,244.999,281.961z"/>
		<g>
			<g>
				<path style="fill:#F58C6C;" d="M246.602,249.128c0,0,7.086,27.474,1.887,30.572c-5.698,3.395-11.259,3.052-11.259,3.052
					s5.235,17.226,26.165,15.97c22.802-1.369,17.265-18.869,17.265-18.869s-8.673-0.657-9.538-1.954
					c-0.865-1.297-3.4-26.897-3.4-26.897L246.602,249.128z"/>
			</g>
			<g>
				<path style="fill:#453248;" d="M240.98,285.481c0.361,1.929,2.438,3.966,3.7,5.015c5.367,4.462,12.216,7.475,19.184,7.072
					c6.967-0.404,13.883-4.706,16.222-11.281c0.836-2.349,0.97-6.868-2.692-6.704c-0.158,0.007-0.322,0.026-0.469-0.034
					c-0.146-0.06-0.262-0.232-0.197-0.376c0.04-0.088,0.133-0.139,0.221-0.18c2.031-0.948,4.507-0.086,5.656,1.799
					c1.1,1.804,1.071,4.091,0.602,6.151c-1.087,4.774-4.367,8.907-8.528,11.488c-4.161,2.581-9.136,3.682-14.032,3.62
					c-7.846-0.101-15.82-3.346-20.71-9.483c-1.449-1.819-2.641-3.936-2.881-6.249c-0.24-2.313,0.629-4.836,2.571-6.116
					c0.93-0.613,2.153-0.852,3.251-0.713c0.592,0.075,2.882,0.793,2.244,1.747c-0.205,0.306-0.587,0.428-0.938,0.539
					c-0.866,0.275-1.734,0.626-2.398,1.246C241.007,283.752,240.816,284.605,240.98,285.481z"/>
			</g>
		</g>
		<g>
			<g>
				<g>
					<path style="fill:#AD2436;" d="M326.142,322.96c-2.145,0-4.252-0.633-5.949-1.916l2.006-2.652
						c2.419,1.829,6.3,1.608,8.835-0.505c2.438-2.032,3.667-5.609,3.13-9.113c-0.401-2.618-1.743-4.869-3.591-6.023
						c-1.927-1.202-4.581-1.089-6.043,0.26l-2.254-2.444c2.591-2.39,6.821-2.656,10.058-0.636c2.698,1.685,4.564,4.724,5.117,8.34
						c0.708,4.631-0.975,9.408-4.288,12.17C331.16,322.112,328.626,322.96,326.142,322.96z"/>
				</g>
				<g>
					<path style="fill:#FF4363;" d="M283.321,290.212c0,0,18.897-9.145,43.452,0c0,0-15.139,15.127-21.726,13.374
						C298.46,301.831,283.321,290.212,283.321,290.212z"/>
				</g>
				<g>
					<g>
						<path style="fill:#F1B851;" d="M325.206,307.063l-0.861,8.736C324.641,312.896,324.932,309.92,325.206,307.063z"/>
					</g>
					<g>
						<path style="fill:#AD2436;" d="M306.728,295.348c-8.519,0-23.408-5.136-23.408-5.136c0.788,5.731,5.173,38.376,6.399,41.72
							c2.241,6.113,10.747,7.138,16.257,7.514c4.378,0.298,9.731-0.433,13.424-3.061c3.438-2.447,4.521-6.856,4.87-10.835
							c0.645-7.368,2.337-33.647,2.502-35.338C326.773,290.212,315.247,295.348,306.728,295.348z"/>
						<path style="fill:#93152A;" d="M318.567,293.718c2.803,11.876,3.674,26.263-5.966,34.589
							c-4.75,4.275-11.875,4.275-17.576,1.425c-1.98-0.849-4.466-2.035-6.053-3.859c0.547,3.246,0.945,5.22,1.193,5.896
							c2.041,5.566,9.539,6.774,15.843,7.204c0.597,0.041,1.208,0.061,1.815,0.061c2.627,0,7.59-0.394,11.302-3.036
							c2.693-1.916,4.222-5.347,4.672-10.49c0.406-4.642,1.226-16.747,1.824-25.586c0.275-4.055,0.503-7.433,0.616-8.963
							C324.933,291.508,322.041,292.668,318.567,293.718z"/>
					</g>
				</g>
				<g>
					<path style="fill:#93152A;" d="M289.941,290.212c0,0,20.461,7.878,32.384,0C322.326,290.212,303.735,283.766,289.941,290.212z"
						/>
				</g>
			</g>
			<path style="fill:#FB805F;" d="M300.416,312.625c-0.324-0.771-2.223-0.592-3.649-0.558c-4.437,0.105-7.811-1.111-7.794-1.297
				c0.026-0.304,9.174,0.673,10.869-1.9c0.115-0.174,0.495-0.752,0.288-1.131c-0.315-0.575-1.338-0.341-1.839-0.28
				c-2.082,0.255-4.185,0.237-6.272,0.046c-1.468-0.135-3.242-0.077-4.548-0.849c-1.126-0.667-1.624-2.607-1.634-3.818
				c-0.011-1.205,0.38-2.707-0.402-3.683c-0.045-0.057-0.096-0.092-0.152-0.108c-0.911-0.257-5.306,10.59-2.536,16.754
				c1.963,4.369,7.646,5.099,11.643,4.508c1.979-0.293,3.866-0.881,3.312-2.214c-0.192-0.463-3.781,0.638-6.635-0.341
				c0.757,0.062,1.516,0.094,2.276,0.061c1.866-0.079,3.736-0.488,5.389-1.357c0.399-0.21,0.843-0.571,0.74-1.01
				c-0.061-0.263-0.315-0.445-0.577-0.506c-0.263-0.061-0.537-0.024-0.805,0.008c-2.072,0.247-4.18,0.198-6.238-0.147
				c-0.422-0.071-0.85-0.179-1.263-0.316c3.141,0.329,8.632,0.556,9.754-1.144C300.449,313.181,300.583,313.022,300.416,312.625z"/>
			<path style="fill:#FB805F;" d="M310.946,326.438c0.324-0.771,2.223-0.592,3.649-0.558c4.437,0.105,7.811-1.111,7.794-1.297
				c-0.026-0.304-9.174,0.673-10.869-1.9c-0.115-0.174-0.495-0.752-0.288-1.131c0.315-0.575,1.338-0.341,1.839-0.28
				c2.082,0.255,4.185,0.237,6.272,0.046c1.467-0.135,3.242-0.077,4.548-0.85c1.126-0.667,1.624-2.607,1.634-3.818
				c0.011-1.205-0.38-2.707,0.402-3.683c0.045-0.057,0.096-0.092,0.152-0.108c0.911-0.257,5.305,10.59,2.536,16.754
				c-1.963,4.369-7.647,5.099-11.643,4.508c-1.979-0.293-3.866-0.881-3.312-2.214c0.192-0.463,3.781,0.639,6.635-0.341
				c-0.757,0.062-1.516,0.094-2.276,0.061c-1.866-0.079-3.736-0.488-5.389-1.357c-0.399-0.21-0.843-0.571-0.74-1.01
				c0.061-0.263,0.315-0.445,0.577-0.506c0.263-0.061,0.537-0.025,0.805,0.007c2.072,0.247,4.18,0.198,6.238-0.147
				c0.422-0.071,0.85-0.179,1.263-0.316c-3.141,0.329-8.632,0.556-9.753-1.144C310.913,326.993,310.78,326.834,310.946,326.438z"/>
		</g>
		<g>
			<path style="fill:#453248;" d="M200.248,103.792c-27.763,17.499-43.196,52.642-37.297,84.925
				c7.715-29.818,29.258-56.325,56.873-69.964"/>
			<g>
				<g>
					<g>
						<path style="fill:#FB805F;" d="M244.346,119.133c-9.095-0.66-18.289,0.081-27.269,2.439
							c-68.949,18.099-83.648,108.396-6.624,140.101c44.607,18.362,113.211,15.511,123.858-45.541
							C344.225,159.279,292.75,122.644,244.346,119.133z"/>
					</g>
					<g>
						<path style="fill:#F58C6C;" d="M165.722,178.289c-9.404,47.315,37.235,80.311,78.992,84.163
							c15.146,1.397,31.202,1.154,45.585-4.331c7.328-2.795,12.33-6.273,16.898-12.717c4.238-5.978,7.257-12.786,9.155-19.85
							c2.933-10.916,3.27-22.394,2.334-33.658c-0.248-2.988-0.983-6.525-3.768-7.636c-2.395-0.955-5.001,0.427-7.46,1.199
							c-4.608,1.447-9.87,0.635-13.828-2.134c-3.958-2.769-6.524-7.434-6.743-12.259c-9.399,1.562-18.835,0.336-28.255-0.351
							c-9.714-0.708-19.416-1.987-28.898-4.24c-15.379-3.654-29.411-13.297-37.801-26.764c-1.46-2.335-14.141,13.359-15.185,14.683
							C171.004,161.69,167.4,169.848,165.722,178.289z"/>
					</g>
					<path style="opacity:0.24;fill:#32006E;" d="M255.533,188.833c-3.348,0.622-6.695,2.157-8.637,4.955
						c-1.898,2.734-2.2,6.331-1.529,9.591c1.664,8.089,9.46,14.473,17.719,14.509c7.196,0.031,19.608-7.194,17.041-15.916
						C277.375,192.62,264.357,187.194,255.533,188.833z"/>
					<path style="opacity:0.24;fill:#32006E;" d="M206.036,176.029c2.393,2.424,4.261,5.596,4.256,9.001
						c-0.005,3.328-1.812,6.453-4.225,8.745c-5.988,5.688-16.034,6.472-22.832,1.782c-5.923-4.086-11.981-17.109-4.89-22.799
						C185.947,166.656,199.731,169.642,206.036,176.029z"/>
					<g>
						<path style="fill:#FB805F;" d="M328.968,213.66c-0.282-5.015,3.102-10.449,8.094-11.006c5.069-0.565,9.622,4.189,10.206,9.255
							c0.584,5.067-1.923,10.044-5.267,13.894c-2.046,2.355-4.587,4.499-7.655,5.062c-3.068,0.562-6.677-0.961-7.581-3.946"/>
					</g>
					<path style="fill:#FF4D4D;" d="M331.225,215.309c0.684-1.122,1.975-1.966,3.273-1.759c5.11,0.813,3.05,10.816-0.606,12.167
						c-1.12,0.414-2.541,0.109-3.198-0.888c-0.42-0.637-0.485-1.438-0.511-2.2c-0.04-1.18-0.017-2.362,0.07-3.539
						C330.351,217.78,330.541,216.431,331.225,215.309z"/>
					<g>
						<path style="fill:#453248;" d="M322.795,214.977"/>
					</g>
				</g>
				<g>
					<path style="fill:#453248;" d="M246.646,186.939c-0.444,0.317-0.885,0.665-1.16,1.136c-0.275,0.471-0.351,1.094-0.057,1.554
						c0.307,0.481,0.94,0.666,1.507,0.607c0.567-0.059,1.092-0.316,1.612-0.55c4.461-2.012,9.546-2.613,14.354-1.696
						c1.426,0.272,3.584,0.127,3.293-1.935c-0.185-1.308-1.779-1.615-2.852-1.839c-3.66-0.764-7.352-1.01-10.99,0.011
						C250.315,184.799,248.37,185.709,246.646,186.939z"/>
				</g>
				<g>
					<path style="fill:#453248;" d="M206.493,176.441c0.232,0.493,0.446,1.013,0.455,1.558c0.009,0.545-0.23,1.126-0.711,1.383
						c-0.503,0.269-1.145,0.121-1.611-0.208s-0.798-0.81-1.137-1.268c-1.796-2.434-8.818-7.545-11.687-8.504
						c-1.376-0.461-3.188-1.643-1.925-3.299c0.801-1.05,2.342-0.538,3.387-0.208c3.566,1.125,6.906,2.718,9.578,5.389
						C204.34,172.779,205.59,174.525,206.493,176.441z"/>
				</g>
				<g>
					<g>
						<path style="fill:#FF4D4D;" d="M227.521,198.171c0.199,0.397,0.249,0.87,0.279,1.321c0.311,4.706-0.103,9.505-1.229,14.086
							c-0.921,3.747-1.572,8.666-6.252,8.028c-2.93-0.4-5.741-1.728-7.891-3.762c-2.713-2.567-4.575-7.631-0.421-10.057
							c1.651-0.964,3.765-0.822,5.533-0.093c1.083,0.447,2.001,1.204,2.939,1.872c0.813,0.578,1.944,0.205,2.283-0.733
							c1.208-3.345,1.854-7.122,2.788-10.486c0.066-0.239,0.138-0.488,0.31-0.668c0.391-0.408,1.128-0.231,1.481,0.21
							C227.412,197.978,227.472,198.072,227.521,198.171z"/>
					</g>
					<g>
						<path style="fill:#FF3333;" d="M223.317,219.485c-0.425,0.564-0.919,1.112-1.572,1.384c-0.765,0.318-1.636,0.213-2.447,0.041
							c-1.899-0.401-3.777-1.168-5.152-2.538c-1.376-1.37-2.172-3.417-1.707-5.302c0.189-0.767,0.598-1.505,1.249-1.953
							c0.886-0.609,2.07-0.589,3.107-0.306c1.037,0.283,1.996,0.797,3.02,1.123c1.024,0.326,2.185,0.447,3.14-0.047
							c0.414-0.214,0.767-0.533,1.181-0.748c0.414-0.215,0.938-0.313,1.335-0.068c1.071,0.662,0.377,2.694,0.125,3.633
							C225.132,216.432,224.396,218.053,223.317,219.485z"/>
					</g>
				</g>
			</g>
			<path style="fill:#453248;" d="M180.723,96.154c23.211,6.448,19.177,45.498,38.88,58.685
				c19.704,13.187,45.062,16.788,68.22,11.703c23.158-5.085,30.66-38.722,64.592-34.783c-14.88-26.776-46.161-48.141-75.922-55.396
				C246.731,69.107,206.256,79.23,180.723,96.154z"/>
			<path style="fill:#57435B;" d="M252.081,153.081c-5.352-0.518-10.727-1.369-15.716-3.374c-4.989-2.005-9.603-5.252-12.499-9.782
				c-3.901-6.101-4.297-13.701-5.776-20.79c-1.479-7.089-4.918-14.715-11.756-17.101c4.912-0.998,10.363,2.181,13.19,6.32
				c2.827,4.138,4.211,9.07,6.41,13.574c2.199,4.504,5.643,8.878,10.517,10.044c-4.67-3.133-7.146-9.105-6.909-14.724
				c7.232,13.664,23.277,22.754,38.68,21.428c-12.553,3.88-26.497,3.068-38.515-2.241
				C233.763,144.872,242.876,151.384,252.081,153.081z"/>
			<path style="fill:#453248;" d="M319.854,123.317c3.93,4.214,7.614,8.661,10.969,13.347c10.121,14.134,17.266,29.46,15.06,47.314
				c-1.867,15.107-10.104,29.322-22.282,38.454c1.38-12.468,2.747-25.212-0.016-37.448c-0.687-3.044-1.737-6.204-4.123-8.216
				c-6.563-5.534-17.504,8.636-23.12-1.417c-5.074-9.084-5.305-20.465-1.6-30.188C298.447,135.44,311.077,128.905,319.854,123.317z"
				/>
			<path style="fill:#453248;" d="M328.486,134.246c10.035-2.324,21.286,2.094,27.059,10.624
				c-8.316-2.684-17.963-0.246-24.655,5.374"/>
			<path style="fill:#453248;" d="M342.14,139.478c9.152,4.726,14.867,15.377,13.744,25.616c-4.6-7.43-13.53-11.817-22.269-11.867
				c-2.555-3.16-4.35-7.419-5.166-11.4"/>
			<path style="fill:#453248;" d="M194.085,103.662c-10.211-1.351-20.987,4.124-25.916,13.168
				c8.021-3.469,17.856-1.966,25.056,2.986c3.903-1.134,7.809-3.603,10.754-6.404"/>
			<path style="fill:#453248;" d="M207.449,231.113c-1.53,0.174-3.07,0.999-3.706,2.401c-0.905,1.993,0.324,4.396,2.084,5.697
				c1.76,1.301,3.948,1.843,5.965,2.693c3.099,1.305,6.83,3.964,10.35,2.487c2.408-1.01,2.77-2.843,1.758-5.099
				C221.598,234.161,212.706,230.513,207.449,231.113z"/>
			<path style="fill:none;stroke:#453248;stroke-width:2;stroke-linecap:round;stroke-linejoin:round;stroke-miterlimit:10;" d="
				M269.422,203.308c-1.325,1.95-4.114,2.161-6.446,1.814c-5.203-0.773-10.113-3.388-13.659-7.273
				c-0.286,4.294,4.008,9.003,8.28,9.519"/>
			<path style="fill:none;stroke:#453248;stroke-width:2;stroke-linecap:round;stroke-linejoin:round;stroke-miterlimit:10;" d="
				M185.187,179.349c-0.026,2.357,2.141,4.124,4.253,5.172c4.712,2.338,10.236,2.999,15.366,1.836
				c-2.219,3.687-8.433,5.098-12.234,3.081"/>
			<path style="opacity:0.24;fill:#32006E;" d="M257.333,219.577c6.968,1.875,14.977-1.19,18.914-7.238
				c0.573-0.88,1.075-1.995,0.626-2.945c-0.42-0.889-1.546-1.247-2.521-1.115c-0.975,0.132-1.851,0.639-2.735,1.07
				c-7.065,3.447-16.901,2.489-21.563-4.403c-0.525-0.776-0.979-1.615-1.658-2.261c-0.679-0.646-1.66-1.077-2.558-0.808
				c-3.83,1.148-0.471,7.298,0.802,9.219C249.261,215.05,252.633,218.312,257.333,219.577z"/>
			<path style="opacity:0.24;fill:#32006E;" d="M188.552,201.288c-6.79-2.443-11.611-9.535-11.386-16.748
				c0.033-1.05,0.258-2.252,1.169-2.775c0.853-0.49,1.982-0.14,2.706,0.525c0.724,0.665,1.153,1.582,1.632,2.441
				c3.828,6.866,12.448,11.7,20.211,8.708c0.874-0.337,1.727-0.766,2.653-0.908c0.926-0.142,1.977,0.065,2.56,0.799
				c2.487,3.13-3.784,6.258-5.926,7.107C197.763,202.186,193.132,202.936,188.552,201.288z"/>
			<path style="opacity:0.24;fill:#32006E;" d="M249.072,216.738c2.376,2.436,4.729,5.164,5.368,8.506
				c0.206,1.075,0.105,2.413-0.85,2.948c-1.105,0.62-2.42-0.283-3.36-1.132c-2.654-2.396-5.353-4.848-7.127-7.952
				c-0.874-1.529-3.564-8.186-0.748-9.004C243.946,209.641,247.927,215.565,249.072,216.738z"/>
			<path style="opacity:0.24;fill:#32006E;" d="M200.807,202.182c-3.342,0.642-6.831,1.536-9.266,3.913
				c-0.783,0.765-1.465,1.92-0.987,2.905c0.553,1.14,2.147,1.15,3.404,0.991c3.547-0.45,7.163-0.92,10.393-2.454
				c1.59-0.755,7.602-4.681,5.759-6.962C209.069,199.287,202.416,201.874,200.807,202.182z"/>
		</g>
	</g>
</g>
</svg>
