<?xml version="1.0" encoding="utf-8"?>
<!-- Generator: Adobe Illustrator 27.5.0, SVG Export Plug-In . SVG Version: 6.00 Build 0)  -->
<svg version="1.1" xmlns="http://www.w3.org/2000/svg" xmlns:xlink="http://www.w3.org/1999/xlink" x="0px" y="0px"
	 viewBox="0 0 500 500" style="enable-background:new 0 0 500 500;" xml:space="preserve">
<g id="Background_Simple">
	<g>
		<path style="fill:#92E3A9;" d="M452.282,118.763c-1.659-2.762-3.384-5.472-5.186-8.122c-23.997-35.26-63.947-59.4-102.773-70.333
			c-17.009-4.797-34.472-7.306-51.905-7.947c-114.344-4.155-156.35,90.124-193.19,114.432
			c-36.84,24.309-93.374,65.829-86.28,153.049c5.383,66.316,43.109,129.726,112.009,158.581c7.589,3.188,15.563,5.955,23.912,8.251
			c15.531,4.273,32.363,6.955,50.5,7.762c52.092,2.321,94.389-10.236,135.763-41.857c9.617-7.35,19.183-15.641,31.664-16.549
			c9.072-0.66,17.673,2.599,8.19,11.366c-11.145,10.305,1.715,30.572,30.006,16.491c47.251-23.517,66.689-74.256,75.846-125.85
			C492.078,254.708,486.629,175.952,452.282,118.763z"/>
		<path style="opacity:0.7;fill:#FFFFFF;" d="M452.282,118.763c-1.659-2.762-3.384-5.472-5.186-8.122
			c-23.997-35.26-63.947-59.4-102.773-70.333c-17.009-4.797-34.472-7.306-51.905-7.947c-114.344-4.155-156.35,90.124-193.19,114.432
			c-36.84,24.309-93.374,65.829-86.28,153.049c5.383,66.316,43.109,129.726,112.009,158.581c7.589,3.188,15.563,5.955,23.912,8.251
			c15.531,4.273,32.363,6.955,50.5,7.762c52.092,2.321,94.389-10.236,135.763-41.857c9.617-7.35,19.183-15.641,31.664-16.549
			c9.072-0.66,17.673,2.599,8.19,11.366c-11.145,10.305,1.715,30.572,30.006,16.491c47.251-23.517,66.689-74.256,75.846-125.85
			C492.078,254.708,486.629,175.952,452.282,118.763z"/>
	</g>
</g>
<g id="Plants">
	<g style="opacity:0.1;">
		<path d="M427.291,177.326c0.09,0.114,5.476-7.887,5.758-8.431c3.262-6.294,5.865-20.374,0.275-26.012
			c-4.026-4.062-10.452-3.16-13.94,1.076c-3.562,4.327-3.424,11.229-2.193,16.38C418.637,166.385,427.285,177.317,427.291,177.326z"
			/>
		<path d="M295.42,127.46c4.542,4.245,17.786,8.594,17.796,8.597c0.137,0.045,0.216-9.599,0.152-10.208
			c-0.752-7.049-6.348-20.229-14.12-21.849c-5.599-1.166-10.461,3.131-11.033,8.589C287.629,118.163,291.552,123.843,295.42,127.46z
			"/>
		<path d="M286.503,167.12c5.284,2.782,18.211,3.526,19.241,3.582c-0.47,7.218-0.365,14.662,0.156,22.191
			c0.293,4.305,0.721,8.631,1.206,12.963c-0.515-1.945-0.991-3.68-1.083-3.915c-2.587-6.602-11.465-17.835-19.388-17.344
			c-5.709,0.353-9.263,5.781-8.374,11.197c0.908,5.531,6.192,9.975,10.877,12.441c4.755,2.502,15.764,3.359,18.68,3.546
			c0.203,1.66,0.387,3.32,0.597,4.979c1.007,7.961,2.044,15.901,2.822,23.72c0.277,2.756,0.448,5.478,0.628,8.203
			c-0.461-1.727-0.862-3.177-0.946-3.392c-2.587-6.601-11.464-17.835-19.388-17.344c-5.709,0.354-9.263,5.782-8.374,11.198
			c0.909,5.53,6.192,9.974,10.878,12.44c4.537,2.388,14.691,3.27,18.155,3.509c0.101,2.795,0.208,5.595,0.179,8.309
			c-0.062,1.852,0.008,3.64-0.157,5.497c-0.124,1.842-0.248,3.665-0.37,5.471c-0.364,3.469-0.717,7.052-1.157,10.428
			c-0.287,2.35-0.605,4.584-0.919,6.835c-0.242-2.746-0.831-8.112-0.931-8.554c-1.556-6.916-8.63-19.365-16.537-20.081
			c-5.696-0.515-10.032,4.311-9.973,9.799c0.061,5.604,4.61,10.797,8.868,13.945c4.688,3.464,16.846,6.11,18.367,6.43
			c-0.532,3.724-1.085,7.341-1.661,10.746c-1.964,11.778-4.047,21.515-5.6,28.312l5.075,1.794c0.043-0.206,0.083-0.391,0.127-0.604
			c1.422-6.913,3.316-16.811,5.046-28.775c0.555-3.78,1.073-7.829,1.566-11.992c0.997-0.038,6.671-0.292,11.937-1.194
			c2.364,5.503,10.465,13.828,11.517,14.896c-2.498,2.813-4.954,5.525-7.313,8.046c-8.141,8.747-15.256,15.723-20.302,20.536
			l5.572,1.969c4.82-4.85,11.122-11.387,18.205-19.335c2.548-2.846,5.214-5.937,7.922-9.138c1.304,0.792,11.998,7.205,17.796,7.89
			c5.258,0.621,12.129-0.049,16.01-4.092c3.801-3.959,3.946-10.447-0.56-13.97c-6.253-4.892-19.932-0.662-25.801,3.314
			c-0.347,0.234-3.819,3.198-5.98,5.105c1.1-1.314,2.181-2.577,3.296-3.943c2.224-2.686,4.364-5.432,6.676-8.379
			c1.067-1.461,2.145-2.939,3.233-4.43c1.111-1.456,2.1-3.135,3.167-4.713c2.396-3.71,4.645-7.587,6.824-11.543
			c2.358,1.941,10.827,8.714,15.955,10.132c5.103,1.41,11.997,1.789,16.445-1.62c4.355-3.338,5.482-9.728,1.563-13.895
			c-5.44-5.782-19.602-3.673-26.007-0.633c-0.4,0.189-4.749,2.887-7.111,4.416c1.291-2.388,2.592-4.765,3.819-7.224
			c3.545-7.096,6.912-14.389,10.303-21.65c1.038-2.225,2.098-4.428,3.152-6.639c0.83,0.7,10.725,8.969,16.467,10.556
			c5.103,1.411,11.997,1.789,16.446-1.619c4.355-3.338,5.482-9.729,1.563-13.895c-5.44-5.782-19.603-3.674-26.006-0.633
			c-0.482,0.229-6.736,4.12-8.278,5.188c2.322-4.867,4.681-9.696,7.199-14.362c3.467-6.443,7.224-12.574,11.303-18.243
			c0.387,0.327,10.673,9.003,16.554,10.629c5.104,1.411,11.997,1.789,16.447-1.62c4.355-3.337,5.482-9.728,1.563-13.894
			c-5.44-5.783-19.602-3.674-26.006-0.634c-0.42,0.2-5.186,3.159-7.421,4.62c-0.171-0.183-0.14-0.149-0.311-0.332
			c4.443-6.02,9.505-11.293,14.486-15.995c2.88-2.729,5.785-5.176,8.667-7.494c1.75,1.812,9.84,10.006,14.971,12.054
			c4.919,1.963,11.728,3.096,16.525,0.197c4.696-2.84,6.517-9.068,3.079-13.639c-4.772-6.345-19.08-5.804-25.779-3.486
			c-0.365,0.127-3.927,1.818-6.503,3.087c1.316-1.026,2.655-2.109,3.935-3.068c4.798-3.609,9.414-6.617,13.523-9.249
			c2.35-1.477,4.502-2.767,6.53-3.953c2.646,0.883,13.351,4.305,18.75,3.768c5.268-0.525,11.835-2.657,14.756-7.44
			c2.859-4.684,1.605-11.051-3.552-13.523c-7.159-3.432-19.608,3.641-24.486,8.786c-0.421,0.445-6.214,8.156-6.077,8.203
			c0,0,0.128,0.043,0.16,0.054c-1.974,1.102-4.077,2.305-6.349,3.667c-4.175,2.547-8.87,5.464-13.765,8.982
			c-4.901,3.503-10.128,7.448-15.257,12.099c-5.148,4.656-10.326,9.815-14.973,15.822c-0.053,0.068-0.099,0.146-0.151,0.214
			c0.813-2.179,2.885-8.348,2.99-8.84c1.484-6.932,0.277-21.199-6.603-25.163c-4.957-2.854-10.916-0.287-13.162,4.721
			c-2.292,5.113-0.338,11.735,2.21,16.377c2.873,5.235,13.244,12.987,14.073,13.602c-4.374,5.761-8.393,12.028-12.112,18.594
			c-2.13,3.752-4.159,7.597-6.145,11.477c0.643-1.906,1.203-3.616,1.256-3.864c1.483-6.933,0.277-21.199-6.603-25.162
			c-4.957-2.855-10.916-0.288-13.161,4.72c-2.294,5.114-0.338,11.735,2.21,16.377c2.585,4.71,11.295,11.497,13.624,13.262
			c-0.746,1.497-1.508,2.983-2.248,4.483c-3.553,7.194-7.067,14.39-10.731,21.341c-1.29,2.451-2.651,4.817-4.003,7.189
			c0.569-1.695,1.034-3.126,1.083-3.351c1.484-6.932,0.277-21.199-6.603-25.162c-4.956-2.855-10.916-0.288-13.161,4.72
			c-2.292,5.113-0.337,11.735,2.211,16.377c2.467,4.495,10.45,10.832,13.207,12.943c-1.459,2.386-2.914,4.78-4.435,7.028
			c-1.074,1.511-2.002,3.041-3.164,4.499c-1.12,1.467-2.229,2.919-3.327,4.359c-2.218,2.693-4.488,5.486-6.717,8.059
			c-1.537,1.801-3.034,3.489-4.538,5.194c1.313-2.424,3.782-7.224,3.943-7.648c1.672-4.404,2.647-12.18,1.303-18.363
			c0.251-0.649,0.443-1.317,0.57-2.002c0.985-5.399-2.474-10.89-8.175-11.343c-7.914-0.631-16.99,10.444-19.692,16.998
			c-0.16,0.386-1.42,4.774-2.17,7.557c0.192-1.703,0.398-3.353,0.574-5.108c0.373-3.468,0.643-6.938,0.947-10.672
			c0.083-1.807,0.167-3.634,0.251-5.478c0.124-1.827,0.021-3.773,0.042-5.678c-0.049-4.417-0.312-8.891-0.677-13.393
			c3.037,0.319,13.838,1.295,18.895-0.351c5.034-1.639,10.993-5.126,12.823-10.423c1.792-5.187-0.793-11.138-6.361-12.452
			c-7.727-1.822-18.376,7.749-22.041,13.818c-0.228,0.379-2.368,5.029-3.494,7.606c-0.241-2.705-0.467-5.405-0.799-8.132
			c-0.958-7.874-2.173-15.814-3.35-23.741c-0.362-2.428-0.693-4.851-1.035-7.276c1.08,0.125,13.894,1.563,19.558-0.281
			c5.035-1.639,10.994-5.127,12.823-10.424c1.792-5.186-0.794-11.138-6.361-12.451c-7.727-1.822-18.376,7.75-22.04,13.818
			c-0.276,0.457-3.345,7.153-4.042,8.893c-0.749-5.34-1.446-10.669-1.919-15.95c-0.663-7.286-0.911-14.472-0.636-21.451
			c0.502,0.06,13.869,1.621,19.671-0.268c5.035-1.638,10.993-5.126,12.823-10.423c1.792-5.187-0.794-11.138-6.361-12.45
			c-7.728-1.822-18.376,7.749-22.04,13.818c-0.242,0.399-2.587,5.501-3.643,7.951c-0.243-0.058-0.198-0.047-0.441-0.105
			c0.384-7.474,1.697-14.665,3.259-21.336c0.896-3.865,1.969-7.509,3.093-11.031c2.46,0.547,13.728,2.918,19.137,1.795
			c5.185-1.076,11.49-3.888,13.891-8.952c2.35-4.959,0.434-11.159-4.956-13.075c-7.479-2.66-19.115,5.685-23.424,11.314
			c-0.235,0.306-2.272,3.682-3.722,6.161c0.532-1.581,1.051-3.224,1.591-4.729c2.01-5.657,4.201-10.713,6.176-15.175
			c1.144-2.529,2.229-4.791,3.266-6.899c2.693-0.724,13.51-3.774,17.717-7.201c4.105-3.344,8.406-8.745,8.203-14.345
			c-0.199-5.484-4.758-10.103-10.423-9.32c-7.864,1.087-14.345,13.854-15.576,20.836c-0.106,0.604-0.684,10.231-0.543,10.195
			c0,0,0.131-0.035,0.162-0.044c-1.039,2.007-2.129,4.173-3.273,6.561c-2.077,4.427-4.384,9.45-6.526,15.086
			c-2.155,5.625-4.339,11.799-6.05,18.508c-1.726,6.723-3.198,13.883-3.761,21.457c-0.006,0.085-0.002,0.175-0.008,0.261
			c-0.523-2.265-2.199-8.553-2.382-9.022c-2.587-6.601-11.465-17.834-19.388-17.344c-5.709,0.354-9.263,5.781-8.374,11.198
			C276.533,160.21,281.817,164.654,286.503,167.12z"/>
		<path style="opacity:0.3;" d="M295.42,127.46c4.542,4.245,17.786,8.594,17.796,8.597c0.137,0.045,0.216-9.599,0.152-10.208
			c-0.752-7.049-6.348-20.229-14.12-21.849c-5.599-1.166-10.461,3.131-11.033,8.589C287.629,118.163,291.552,123.843,295.42,127.46z
			"/>
		<path style="opacity:0.3;" d="M427.291,177.326c0.09,0.114,5.476-7.887,5.758-8.431c3.262-6.294,5.865-20.374,0.275-26.012
			c-4.026-4.062-10.452-3.16-13.94,1.076c-3.562,4.327-3.424,11.229-2.193,16.38C418.637,166.385,427.285,177.317,427.291,177.326z"
			/>
		<path style="opacity:0.3;" d="M286.503,167.12c5.284,2.782,18.211,3.526,19.241,3.582c-0.47,7.218-0.365,14.662,0.156,22.191
			c0.293,4.305,0.721,8.631,1.206,12.963c-0.515-1.945-0.991-3.68-1.083-3.915c-2.587-6.602-11.465-17.835-19.388-17.344
			c-5.709,0.353-9.263,5.781-8.374,11.197c0.908,5.531,6.192,9.975,10.877,12.441c4.755,2.502,15.764,3.359,18.68,3.546
			c0.203,1.66,0.387,3.32,0.597,4.979c1.007,7.961,2.044,15.901,2.822,23.72c0.277,2.756,0.448,5.478,0.628,8.203
			c-0.461-1.727-0.862-3.177-0.946-3.392c-2.587-6.601-11.464-17.835-19.388-17.344c-5.709,0.354-9.263,5.782-8.374,11.198
			c0.909,5.53,6.192,9.974,10.878,12.44c4.537,2.388,14.691,3.27,18.155,3.509c0.101,2.795,0.208,5.595,0.179,8.309
			c-0.062,1.852,0.008,3.64-0.157,5.497c-0.124,1.842-0.248,3.665-0.37,5.471c-0.364,3.469-0.717,7.052-1.157,10.428
			c-0.287,2.35-0.605,4.584-0.919,6.835c-0.242-2.746-0.831-8.112-0.931-8.554c-1.556-6.916-8.63-19.365-16.537-20.081
			c-5.696-0.515-10.032,4.311-9.973,9.799c0.061,5.604,4.61,10.797,8.868,13.945c4.688,3.464,16.846,6.11,18.367,6.43
			c-0.532,3.724-1.085,7.341-1.661,10.746c-1.964,11.778-4.047,21.515-5.6,28.312l5.075,1.794c0.043-0.206,0.083-0.391,0.127-0.604
			c1.422-6.913,3.316-16.811,5.046-28.775c0.555-3.78,1.073-7.829,1.566-11.992c0.997-0.038,6.671-0.292,11.937-1.194
			c2.364,5.503,10.465,13.828,11.517,14.896c-2.498,2.813-4.954,5.525-7.313,8.046c-8.141,8.747-15.256,15.723-20.302,20.536
			l5.572,1.969c4.82-4.85,11.122-11.387,18.205-19.335c2.548-2.846,5.214-5.937,7.922-9.138c1.304,0.792,11.998,7.205,17.796,7.89
			c5.258,0.621,12.129-0.049,16.01-4.092c3.801-3.959,3.946-10.447-0.56-13.97c-6.253-4.892-19.932-0.662-25.801,3.314
			c-0.347,0.234-3.819,3.198-5.98,5.105c1.1-1.314,2.181-2.577,3.296-3.943c2.224-2.686,4.364-5.432,6.676-8.379
			c1.067-1.461,2.145-2.939,3.233-4.43c1.111-1.456,2.1-3.135,3.167-4.713c2.396-3.71,4.645-7.587,6.824-11.543
			c2.358,1.941,10.827,8.714,15.955,10.132c5.103,1.41,11.997,1.789,16.445-1.62c4.355-3.338,5.482-9.728,1.563-13.895
			c-5.44-5.782-19.602-3.673-26.007-0.633c-0.4,0.189-4.749,2.887-7.111,4.416c1.291-2.388,2.592-4.765,3.819-7.224
			c3.545-7.096,6.912-14.389,10.303-21.65c1.038-2.225,2.098-4.428,3.152-6.639c0.83,0.7,10.725,8.969,16.467,10.556
			c5.103,1.411,11.997,1.789,16.446-1.619c4.355-3.338,5.482-9.729,1.563-13.895c-5.44-5.782-19.603-3.674-26.006-0.633
			c-0.482,0.229-6.736,4.12-8.278,5.188c2.322-4.867,4.681-9.696,7.199-14.362c3.467-6.443,7.224-12.574,11.303-18.243
			c0.387,0.327,10.673,9.003,16.554,10.629c5.104,1.411,11.997,1.789,16.447-1.62c4.355-3.337,5.482-9.728,1.563-13.894
			c-5.44-5.783-19.602-3.674-26.006-0.634c-0.42,0.2-5.186,3.159-7.421,4.62c-0.171-0.183-0.14-0.149-0.311-0.332
			c4.443-6.02,9.505-11.293,14.486-15.995c2.88-2.729,5.785-5.176,8.667-7.494c1.75,1.812,9.84,10.006,14.971,12.054
			c4.919,1.963,11.728,3.096,16.525,0.197c4.696-2.84,6.517-9.068,3.079-13.639c-4.772-6.345-19.08-5.804-25.779-3.486
			c-0.365,0.127-3.927,1.818-6.503,3.087c1.316-1.026,2.655-2.109,3.935-3.068c4.798-3.609,9.414-6.617,13.523-9.249
			c2.35-1.477,4.502-2.767,6.53-3.953c2.646,0.883,13.351,4.305,18.75,3.768c5.268-0.525,11.835-2.657,14.756-7.44
			c2.859-4.684,1.605-11.051-3.552-13.523c-7.159-3.432-19.608,3.641-24.486,8.786c-0.421,0.445-6.214,8.156-6.077,8.203
			c0,0,0.128,0.043,0.16,0.054c-1.974,1.102-4.077,2.305-6.349,3.667c-4.175,2.547-8.87,5.464-13.765,8.982
			c-4.901,3.503-10.128,7.448-15.257,12.099c-5.148,4.656-10.326,9.815-14.973,15.822c-0.053,0.068-0.099,0.146-0.151,0.214
			c0.813-2.179,2.885-8.348,2.99-8.84c1.484-6.932,0.277-21.199-6.603-25.163c-4.957-2.854-10.916-0.287-13.162,4.721
			c-2.292,5.113-0.338,11.735,2.21,16.377c2.873,5.235,13.244,12.987,14.073,13.602c-4.374,5.761-8.393,12.028-12.112,18.594
			c-2.13,3.752-4.159,7.597-6.145,11.477c0.643-1.906,1.203-3.616,1.256-3.864c1.483-6.933,0.277-21.199-6.603-25.162
			c-4.957-2.855-10.916-0.288-13.161,4.72c-2.294,5.114-0.338,11.735,2.21,16.377c2.585,4.71,11.295,11.497,13.624,13.262
			c-0.746,1.497-1.508,2.983-2.248,4.483c-3.553,7.194-7.067,14.39-10.731,21.341c-1.29,2.451-2.651,4.817-4.003,7.189
			c0.569-1.695,1.034-3.126,1.083-3.351c1.484-6.932,0.277-21.199-6.603-25.162c-4.956-2.855-10.916-0.288-13.161,4.72
			c-2.292,5.113-0.337,11.735,2.211,16.377c2.467,4.495,10.45,10.832,13.207,12.943c-1.459,2.386-2.914,4.78-4.435,7.028
			c-1.074,1.511-2.002,3.041-3.164,4.499c-1.12,1.467-2.229,2.919-3.327,4.359c-2.218,2.693-4.488,5.486-6.717,8.059
			c-1.537,1.801-3.034,3.489-4.538,5.194c1.313-2.424,3.782-7.224,3.943-7.648c1.672-4.404,2.647-12.18,1.303-18.363
			c0.251-0.649,0.443-1.317,0.57-2.002c0.985-5.399-2.474-10.89-8.175-11.343c-7.914-0.631-16.99,10.444-19.692,16.998
			c-0.16,0.386-1.42,4.774-2.17,7.557c0.192-1.703,0.398-3.353,0.574-5.108c0.373-3.468,0.643-6.938,0.947-10.672
			c0.083-1.807,0.167-3.634,0.251-5.478c0.124-1.827,0.021-3.773,0.042-5.678c-0.049-4.417-0.312-8.891-0.677-13.393
			c3.037,0.319,13.838,1.295,18.895-0.351c5.034-1.639,10.993-5.126,12.823-10.423c1.792-5.187-0.793-11.138-6.361-12.452
			c-7.727-1.822-18.376,7.749-22.041,13.818c-0.228,0.379-2.368,5.029-3.494,7.606c-0.241-2.705-0.467-5.405-0.799-8.132
			c-0.958-7.874-2.173-15.814-3.35-23.741c-0.362-2.428-0.693-4.851-1.035-7.276c1.08,0.125,13.894,1.563,19.558-0.281
			c5.035-1.639,10.994-5.127,12.823-10.424c1.792-5.186-0.794-11.138-6.361-12.451c-7.727-1.822-18.376,7.75-22.04,13.818
			c-0.276,0.457-3.345,7.153-4.042,8.893c-0.749-5.34-1.446-10.669-1.919-15.95c-0.663-7.286-0.911-14.472-0.636-21.451
			c0.502,0.06,13.869,1.621,19.671-0.268c5.035-1.638,10.993-5.126,12.823-10.423c1.792-5.187-0.794-11.138-6.361-12.45
			c-7.728-1.822-18.376,7.749-22.04,13.818c-0.242,0.399-2.587,5.501-3.643,7.951c-0.243-0.058-0.198-0.047-0.441-0.105
			c0.384-7.474,1.697-14.665,3.259-21.336c0.896-3.865,1.969-7.509,3.093-11.031c2.46,0.547,13.728,2.918,19.137,1.795
			c5.185-1.076,11.49-3.888,13.891-8.952c2.35-4.959,0.434-11.159-4.956-13.075c-7.479-2.66-19.115,5.685-23.424,11.314
			c-0.235,0.306-2.272,3.682-3.722,6.161c0.532-1.581,1.051-3.224,1.591-4.729c2.01-5.657,4.201-10.713,6.176-15.175
			c1.144-2.529,2.229-4.791,3.266-6.899c2.693-0.724,13.51-3.774,17.717-7.201c4.105-3.344,8.406-8.745,8.203-14.345
			c-0.199-5.484-4.758-10.103-10.423-9.32c-7.864,1.087-14.345,13.854-15.576,20.836c-0.106,0.604-0.684,10.231-0.543,10.195
			c0,0,0.131-0.035,0.162-0.044c-1.039,2.007-2.129,4.173-3.273,6.561c-2.077,4.427-4.384,9.45-6.526,15.086
			c-2.155,5.625-4.339,11.799-6.05,18.508c-1.726,6.723-3.198,13.883-3.761,21.457c-0.006,0.085-0.002,0.175-0.008,0.261
			c-0.523-2.265-2.199-8.553-2.382-9.022c-2.587-6.601-11.465-17.834-19.388-17.344c-5.709,0.354-9.263,5.781-8.374,11.198
			C276.533,160.21,281.817,164.654,286.503,167.12z"/>
	</g>
	<g style="opacity:0.1;">
		<path d="M72.562,140.864c-0.09,0.114-5.476-7.887-5.758-8.431c-3.262-6.294-5.865-20.374-0.275-26.012
			c4.026-4.062,10.452-3.16,13.94,1.076c3.562,4.327,3.424,11.229,2.193,16.379C81.215,129.923,72.568,140.855,72.562,140.864z"/>
		<path d="M204.433,90.998c-4.542,4.245-17.786,8.594-17.796,8.597c-0.137,0.045-0.216-9.599-0.152-10.208
			c0.752-7.049,6.348-20.229,14.12-21.849c5.599-1.166,10.461,3.131,11.033,8.589C212.223,81.701,208.301,87.381,204.433,90.998z"/>
		<path d="M213.349,130.658c-5.284,2.782-18.211,3.526-19.24,3.582c0.469,7.218,0.365,14.662-0.156,22.191
			c-0.293,4.305-0.721,8.631-1.206,12.963c0.516-1.945,0.991-3.68,1.083-3.915c2.587-6.602,11.465-17.835,19.388-17.344
			c5.709,0.353,9.263,5.782,8.374,11.197c-0.908,5.531-6.192,9.975-10.877,12.441c-4.755,2.502-15.764,3.359-18.68,3.546
			c-0.203,1.66-0.387,3.32-0.597,4.979c-1.007,7.961-2.045,15.901-2.823,23.72c-0.277,2.756-0.447,5.478-0.628,8.203
			c0.461-1.727,0.862-3.178,0.946-3.392c2.587-6.601,11.464-17.835,19.388-17.344c5.709,0.354,9.263,5.782,8.374,11.198
			c-0.909,5.53-6.192,9.974-10.878,12.44c-4.537,2.388-14.691,3.27-18.155,3.509c-0.101,2.796-0.208,5.595-0.179,8.309
			c0.062,1.852-0.008,3.64,0.157,5.497c0.124,1.842,0.248,3.665,0.37,5.471c0.364,3.469,0.717,7.052,1.157,10.428
			c0.287,2.35,0.605,4.584,0.919,6.835c0.242-2.746,0.831-8.111,0.931-8.554c1.556-6.916,8.63-19.365,16.537-20.081
			c5.696-0.515,10.032,4.311,9.973,9.799c-0.061,5.604-4.61,10.797-8.868,13.945c-4.688,3.464-16.846,6.11-18.367,6.43
			c0.532,3.724,1.085,7.341,1.661,10.746c1.964,11.778,4.047,21.515,5.6,28.312l-5.075,1.794c-0.043-0.206-0.083-0.391-0.126-0.604
			c-1.422-6.913-3.316-16.811-5.047-28.775c-0.555-3.78-1.073-7.829-1.566-11.992c-0.997-0.038-6.671-0.292-11.937-1.194
			c-2.364,5.503-10.465,13.828-11.518,14.896c2.498,2.813,4.954,5.525,7.313,8.046c8.141,8.746,15.256,15.723,20.301,20.536
			l-5.572,1.969c-4.82-4.85-11.122-11.387-18.205-19.335c-2.548-2.845-5.215-5.937-7.922-9.138
			c-1.304,0.792-11.998,7.205-17.796,7.891c-5.258,0.621-12.129-0.049-16.01-4.092c-3.801-3.959-3.946-10.446,0.56-13.97
			c6.253-4.892,19.932-0.662,25.801,3.314c0.347,0.234,3.819,3.198,5.98,5.105c-1.1-1.314-2.182-2.577-3.296-3.943
			c-2.224-2.686-4.364-5.432-6.676-8.379c-1.067-1.461-2.145-2.939-3.233-4.43c-1.111-1.456-2.1-3.135-3.167-4.713
			c-2.396-3.71-4.645-7.587-6.824-11.543c-2.358,1.941-10.827,8.714-15.955,10.132c-5.103,1.41-11.997,1.789-16.445-1.62
			c-4.355-3.338-5.482-9.728-1.563-13.895c5.44-5.782,19.602-3.673,26.007-0.633c0.4,0.189,4.749,2.887,7.111,4.416
			c-1.291-2.388-2.592-4.765-3.819-7.224c-3.545-7.096-6.912-14.389-10.303-21.65c-1.038-2.225-2.098-4.428-3.152-6.639
			c-0.83,0.7-10.725,8.969-16.467,10.556c-5.103,1.411-11.997,1.789-16.446-1.619c-4.355-3.338-5.482-9.729-1.563-13.895
			c5.44-5.782,19.602-3.674,26.006-0.633c0.482,0.229,6.736,4.12,8.278,5.188c-2.322-4.867-4.681-9.696-7.199-14.362
			c-3.467-6.443-7.224-12.574-11.303-18.243c-0.386,0.327-10.673,9.003-16.554,10.629c-5.104,1.411-11.997,1.789-16.447-1.62
			c-4.355-3.337-5.482-9.728-1.563-13.894c5.44-5.783,19.602-3.674,26.006-0.634c0.42,0.2,5.187,3.159,7.421,4.62
			c0.171-0.183,0.14-0.149,0.311-0.332c-4.443-6.02-9.505-11.293-14.486-15.995c-2.88-2.729-5.785-5.176-8.667-7.494
			c-1.75,1.812-9.84,10.006-14.971,12.054c-4.919,1.963-11.728,3.096-16.525,0.197c-4.696-2.84-6.517-9.068-3.079-13.639
			c4.772-6.346,19.08-5.804,25.779-3.486c0.365,0.127,3.927,1.818,6.503,3.087c-1.316-1.026-2.655-2.109-3.936-3.068
			c-4.798-3.608-9.413-6.617-13.523-9.249c-2.35-1.477-4.502-2.767-6.529-3.953c-2.646,0.883-13.351,4.305-18.75,3.768
			c-5.268-0.524-11.835-2.657-14.756-7.44c-2.859-4.685-1.605-11.051,3.552-13.523c7.159-3.432,19.608,3.641,24.486,8.786
			c0.42,0.445,6.214,8.156,6.076,8.203c0,0-0.128,0.043-0.16,0.054c1.974,1.102,4.077,2.305,6.349,3.667
			c4.175,2.547,8.87,5.464,13.765,8.982c4.901,3.503,10.128,7.448,15.257,12.099c5.148,4.655,10.326,9.815,14.973,15.822
			c0.053,0.068,0.099,0.146,0.151,0.214c-0.813-2.179-2.884-8.348-2.99-8.84c-1.484-6.932-0.277-21.199,6.603-25.163
			c4.957-2.854,10.916-0.287,13.162,4.721c2.292,5.113,0.338,11.735-2.21,16.377c-2.873,5.235-13.244,12.987-14.073,13.602
			c4.373,5.761,8.393,12.028,12.112,18.594c2.13,3.751,4.16,7.597,6.145,11.477c-0.644-1.906-1.203-3.616-1.256-3.863
			c-1.483-6.933-0.277-21.199,6.603-25.162c4.957-2.855,10.916-0.288,13.162,4.72c2.294,5.114,0.338,11.735-2.21,16.377
			c-2.585,4.71-11.295,11.497-13.624,13.262c0.746,1.497,1.508,2.983,2.248,4.483c3.553,7.194,7.067,14.39,10.731,21.341
			c1.29,2.451,2.651,4.817,4.003,7.189c-0.569-1.695-1.034-3.126-1.083-3.352c-1.484-6.932-0.277-21.199,6.603-25.161
			c4.956-2.855,10.916-0.288,13.161,4.72c2.292,5.113,0.337,11.735-2.211,16.377c-2.467,4.495-10.45,10.831-13.207,12.943
			c1.459,2.386,2.914,4.78,4.435,7.028c1.074,1.511,2.002,3.04,3.164,4.499c1.12,1.467,2.229,2.919,3.327,4.359
			c2.218,2.693,4.488,5.486,6.717,8.059c1.537,1.801,3.034,3.489,4.538,5.194c-1.313-2.424-3.782-7.224-3.943-7.648
			c-1.672-4.404-2.647-12.179-1.303-18.363c-0.251-0.649-0.443-1.317-0.57-2.002c-0.985-5.399,2.474-10.89,8.175-11.343
			c7.915-0.632,16.99,10.444,19.693,16.998c0.16,0.386,1.42,4.774,2.17,7.557c-0.192-1.703-0.398-3.353-0.574-5.108
			c-0.373-3.468-0.643-6.938-0.947-10.672c-0.083-1.807-0.167-3.634-0.251-5.478c-0.124-1.827-0.021-3.773-0.042-5.678
			c0.049-4.417,0.312-8.891,0.677-13.393c-3.037,0.319-13.838,1.295-18.896-0.351c-5.034-1.639-10.993-5.126-12.823-10.423
			c-1.792-5.187,0.793-11.138,6.361-12.452c7.727-1.822,18.376,7.749,22.04,13.819c0.228,0.379,2.368,5.029,3.494,7.606
			c0.241-2.705,0.467-5.405,0.799-8.132c0.958-7.874,2.173-15.813,3.35-23.741c0.362-2.428,0.693-4.851,1.035-7.276
			c-1.08,0.125-13.894,1.563-19.558-0.281c-5.035-1.639-10.994-5.127-12.824-10.424c-1.792-5.186,0.794-11.137,6.361-12.451
			c7.728-1.822,18.376,7.75,22.041,13.818c0.276,0.457,3.345,7.153,4.042,8.893c0.749-5.34,1.446-10.669,1.919-15.95
			c0.663-7.286,0.911-14.472,0.636-21.451c-0.502,0.059-13.869,1.621-19.671-0.268c-5.035-1.638-10.993-5.126-12.824-10.423
			c-1.792-5.187,0.794-11.138,6.361-12.45c7.728-1.823,18.376,7.749,22.04,13.817c0.242,0.399,2.587,5.501,3.644,7.951
			c0.242-0.058,0.198-0.047,0.44-0.105c-0.384-7.474-1.697-14.665-3.259-21.336c-0.896-3.865-1.969-7.509-3.093-11.032
			c-2.46,0.547-13.728,2.918-19.137,1.795c-5.185-1.076-11.49-3.888-13.891-8.952c-2.35-4.959-0.434-11.159,4.956-13.075
			c7.479-2.66,19.114,5.686,23.424,11.315c0.235,0.306,2.272,3.682,3.722,6.161c-0.532-1.581-1.051-3.224-1.591-4.729
			c-2.011-5.657-4.201-10.713-6.176-15.175c-1.144-2.529-2.229-4.792-3.266-6.899c-2.693-0.724-13.51-3.774-17.717-7.2
			c-4.105-3.344-8.406-8.745-8.203-14.345c0.199-5.485,4.758-10.104,10.423-9.32c7.864,1.087,14.345,13.854,15.576,20.836
			c0.106,0.604,0.684,10.231,0.543,10.195c0,0-0.131-0.035-0.162-0.043c1.039,2.007,2.129,4.173,3.273,6.561
			c2.077,4.427,4.384,9.45,6.526,15.086c2.155,5.625,4.339,11.799,6.05,18.508c1.726,6.723,3.199,13.883,3.761,21.457
			c0.006,0.085,0.002,0.175,0.008,0.261c0.523-2.266,2.199-8.554,2.382-9.022c2.587-6.601,11.465-17.834,19.388-17.344
			c5.709,0.354,9.264,5.781,8.374,11.198C223.319,123.748,218.036,128.192,213.349,130.658z"/>
		<path style="opacity:0.3;" d="M204.433,90.998c-4.542,4.245-17.786,8.594-17.796,8.597c-0.137,0.045-0.216-9.599-0.152-10.208
			c0.752-7.049,6.348-20.229,14.12-21.849c5.599-1.166,10.461,3.131,11.033,8.589C212.223,81.701,208.301,87.381,204.433,90.998z"/>
		<path style="opacity:0.3;" d="M72.562,140.864c-0.09,0.114-5.476-7.887-5.758-8.431c-3.262-6.294-5.865-20.374-0.275-26.012
			c4.026-4.062,10.452-3.16,13.94,1.076c3.562,4.327,3.424,11.229,2.193,16.379C81.215,129.923,72.568,140.855,72.562,140.864z"/>
		<path style="opacity:0.3;" d="M213.349,130.658c-5.284,2.782-18.211,3.526-19.24,3.582c0.469,7.218,0.365,14.662-0.156,22.191
			c-0.293,4.305-0.721,8.631-1.206,12.963c0.516-1.945,0.991-3.68,1.083-3.915c2.587-6.602,11.465-17.835,19.388-17.344
			c5.709,0.353,9.263,5.782,8.374,11.197c-0.908,5.531-6.192,9.975-10.877,12.441c-4.755,2.502-15.764,3.359-18.68,3.546
			c-0.203,1.66-0.387,3.32-0.597,4.979c-1.007,7.961-2.045,15.901-2.823,23.72c-0.277,2.756-0.447,5.478-0.628,8.203
			c0.461-1.727,0.862-3.178,0.946-3.392c2.587-6.601,11.464-17.835,19.388-17.344c5.709,0.354,9.263,5.782,8.374,11.198
			c-0.909,5.53-6.192,9.974-10.878,12.44c-4.537,2.388-14.691,3.27-18.155,3.509c-0.101,2.796-0.208,5.595-0.179,8.309
			c0.062,1.852-0.008,3.64,0.157,5.497c0.124,1.842,0.248,3.665,0.37,5.471c0.364,3.469,0.717,7.052,1.157,10.428
			c0.287,2.35,0.605,4.584,0.919,6.835c0.242-2.746,0.831-8.111,0.931-8.554c1.556-6.916,8.63-19.365,16.537-20.081
			c5.696-0.515,10.032,4.311,9.973,9.799c-0.061,5.604-4.61,10.797-8.868,13.945c-4.688,3.464-16.846,6.11-18.367,6.43
			c0.532,3.724,1.085,7.341,1.661,10.746c1.964,11.778,4.047,21.515,5.6,28.312l-5.075,1.794c-0.043-0.206-0.083-0.391-0.126-0.604
			c-1.422-6.913-3.316-16.811-5.047-28.775c-0.555-3.78-1.073-7.829-1.566-11.992c-0.997-0.038-6.671-0.292-11.937-1.194
			c-2.364,5.503-10.465,13.828-11.518,14.896c2.498,2.813,4.954,5.525,7.313,8.046c8.141,8.746,15.256,15.723,20.301,20.536
			l-5.572,1.969c-4.82-4.85-11.122-11.387-18.205-19.335c-2.548-2.845-5.215-5.937-7.922-9.138
			c-1.304,0.792-11.998,7.205-17.796,7.891c-5.258,0.621-12.129-0.049-16.01-4.092c-3.801-3.959-3.946-10.446,0.56-13.97
			c6.253-4.892,19.932-0.662,25.801,3.314c0.347,0.234,3.819,3.198,5.98,5.105c-1.1-1.314-2.182-2.577-3.296-3.943
			c-2.224-2.686-4.364-5.432-6.676-8.379c-1.067-1.461-2.145-2.939-3.233-4.43c-1.111-1.456-2.1-3.135-3.167-4.713
			c-2.396-3.71-4.645-7.587-6.824-11.543c-2.358,1.941-10.827,8.714-15.955,10.132c-5.103,1.41-11.997,1.789-16.445-1.62
			c-4.355-3.338-5.482-9.728-1.563-13.895c5.44-5.782,19.602-3.673,26.007-0.633c0.4,0.189,4.749,2.887,7.111,4.416
			c-1.291-2.388-2.592-4.765-3.819-7.224c-3.545-7.096-6.912-14.389-10.303-21.65c-1.038-2.225-2.098-4.428-3.152-6.639
			c-0.83,0.7-10.725,8.969-16.467,10.556c-5.103,1.411-11.997,1.789-16.446-1.619c-4.355-3.338-5.482-9.729-1.563-13.895
			c5.44-5.782,19.602-3.674,26.006-0.633c0.482,0.229,6.736,4.12,8.278,5.188c-2.322-4.867-4.681-9.696-7.199-14.362
			c-3.467-6.443-7.224-12.574-11.303-18.243c-0.386,0.327-10.673,9.003-16.554,10.629c-5.104,1.411-11.997,1.789-16.447-1.62
			c-4.355-3.337-5.482-9.728-1.563-13.894c5.44-5.783,19.602-3.674,26.006-0.634c0.42,0.2,5.187,3.159,7.421,4.62
			c0.171-0.183,0.14-0.149,0.311-0.332c-4.443-6.02-9.505-11.293-14.486-15.995c-2.88-2.729-5.785-5.176-8.667-7.494
			c-1.75,1.812-9.84,10.006-14.971,12.054c-4.919,1.963-11.728,3.096-16.525,0.197c-4.696-2.84-6.517-9.068-3.079-13.639
			c4.772-6.346,19.08-5.804,25.779-3.486c0.365,0.127,3.927,1.818,6.503,3.087c-1.316-1.026-2.655-2.109-3.936-3.068
			c-4.798-3.608-9.413-6.617-13.523-9.249c-2.35-1.477-4.502-2.767-6.529-3.953c-2.646,0.883-13.351,4.305-18.75,3.768
			c-5.268-0.524-11.835-2.657-14.756-7.44c-2.859-4.685-1.605-11.051,3.552-13.523c7.159-3.432,19.608,3.641,24.486,8.786
			c0.42,0.445,6.214,8.156,6.076,8.203c0,0-0.128,0.043-0.16,0.054c1.974,1.102,4.077,2.305,6.349,3.667
			c4.175,2.547,8.87,5.464,13.765,8.982c4.901,3.503,10.128,7.448,15.257,12.099c5.148,4.655,10.326,9.815,14.973,15.822
			c0.053,0.068,0.099,0.146,0.151,0.214c-0.813-2.179-2.884-8.348-2.99-8.84c-1.484-6.932-0.277-21.199,6.603-25.163
			c4.957-2.854,10.916-0.287,13.162,4.721c2.292,5.113,0.338,11.735-2.21,16.377c-2.873,5.235-13.244,12.987-14.073,13.602
			c4.373,5.761,8.393,12.028,12.112,18.594c2.13,3.751,4.16,7.597,6.145,11.477c-0.644-1.906-1.203-3.616-1.256-3.863
			c-1.483-6.933-0.277-21.199,6.603-25.162c4.957-2.855,10.916-0.288,13.162,4.72c2.294,5.114,0.338,11.735-2.21,16.377
			c-2.585,4.71-11.295,11.497-13.624,13.262c0.746,1.497,1.508,2.983,2.248,4.483c3.553,7.194,7.067,14.39,10.731,21.341
			c1.29,2.451,2.651,4.817,4.003,7.189c-0.569-1.695-1.034-3.126-1.083-3.352c-1.484-6.932-0.277-21.199,6.603-25.161
			c4.956-2.855,10.916-0.288,13.161,4.72c2.292,5.113,0.337,11.735-2.211,16.377c-2.467,4.495-10.45,10.831-13.207,12.943
			c1.459,2.386,2.914,4.78,4.435,7.028c1.074,1.511,2.002,3.04,3.164,4.499c1.12,1.467,2.229,2.919,3.327,4.359
			c2.218,2.693,4.488,5.486,6.717,8.059c1.537,1.801,3.034,3.489,4.538,5.194c-1.313-2.424-3.782-7.224-3.943-7.648
			c-1.672-4.404-2.647-12.179-1.303-18.363c-0.251-0.649-0.443-1.317-0.57-2.002c-0.985-5.399,2.474-10.89,8.175-11.343
			c7.915-0.632,16.99,10.444,19.693,16.998c0.16,0.386,1.42,4.774,2.17,7.557c-0.192-1.703-0.398-3.353-0.574-5.108
			c-0.373-3.468-0.643-6.938-0.947-10.672c-0.083-1.807-0.167-3.634-0.251-5.478c-0.124-1.827-0.021-3.773-0.042-5.678
			c0.049-4.417,0.312-8.891,0.677-13.393c-3.037,0.319-13.838,1.295-18.896-0.351c-5.034-1.639-10.993-5.126-12.823-10.423
			c-1.792-5.187,0.793-11.138,6.361-12.452c7.727-1.822,18.376,7.749,22.04,13.819c0.228,0.379,2.368,5.029,3.494,7.606
			c0.241-2.705,0.467-5.405,0.799-8.132c0.958-7.874,2.173-15.813,3.35-23.741c0.362-2.428,0.693-4.851,1.035-7.276
			c-1.08,0.125-13.894,1.563-19.558-0.281c-5.035-1.639-10.994-5.127-12.824-10.424c-1.792-5.186,0.794-11.137,6.361-12.451
			c7.728-1.822,18.376,7.75,22.041,13.818c0.276,0.457,3.345,7.153,4.042,8.893c0.749-5.34,1.446-10.669,1.919-15.95
			c0.663-7.286,0.911-14.472,0.636-21.451c-0.502,0.059-13.869,1.621-19.671-0.268c-5.035-1.638-10.993-5.126-12.824-10.423
			c-1.792-5.187,0.794-11.138,6.361-12.45c7.728-1.823,18.376,7.749,22.04,13.817c0.242,0.399,2.587,5.501,3.644,7.951
			c0.242-0.058,0.198-0.047,0.44-0.105c-0.384-7.474-1.697-14.665-3.259-21.336c-0.896-3.865-1.969-7.509-3.093-11.032
			c-2.46,0.547-13.728,2.918-19.137,1.795c-5.185-1.076-11.49-3.888-13.891-8.952c-2.35-4.959-0.434-11.159,4.956-13.075
			c7.479-2.66,19.114,5.686,23.424,11.315c0.235,0.306,2.272,3.682,3.722,6.161c-0.532-1.581-1.051-3.224-1.591-4.729
			c-2.011-5.657-4.201-10.713-6.176-15.175c-1.144-2.529-2.229-4.792-3.266-6.899c-2.693-0.724-13.51-3.774-17.717-7.2
			c-4.105-3.344-8.406-8.745-8.203-14.345c0.199-5.485,4.758-10.104,10.423-9.32c7.864,1.087,14.345,13.854,15.576,20.836
			c0.106,0.604,0.684,10.231,0.543,10.195c0,0-0.131-0.035-0.162-0.043c1.039,2.007,2.129,4.173,3.273,6.561
			c2.077,4.427,4.384,9.45,6.526,15.086c2.155,5.625,4.339,11.799,6.05,18.508c1.726,6.723,3.199,13.883,3.761,21.457
			c0.006,0.085,0.002,0.175,0.008,0.261c0.523-2.266,2.199-8.554,2.382-9.022c2.587-6.601,11.465-17.834,19.388-17.344
			c5.709,0.354,9.264,5.781,8.374,11.198C223.319,123.748,218.036,128.192,213.349,130.658z"/>
	</g>
</g>
<g id="Character_1">
	<g>
		<g>
			<path style="fill:#263238;" d="M177.482,112.66c0,0-60.213,2.808-69.191,73.774c-5.583,44.132,29.536,84.051,29.536,84.051
				s-42.034,14.276-64.241,57.103s2.379,91.999,50.758,97.55c48.379,5.552,131.653-45.206,138.791-71.378
				c7.138-26.172-15.862-90.413-6.345-117.378c9.517-26.965,54.723-40.448,37.275-81.688S200.481,89.66,177.482,112.66z"/>
			<path style="fill:#263238;" d="M131.826,426.045c-2.628,0-5.145-0.135-7.538-0.409c-22.729-2.608-41.609-15.084-51.798-34.228
				c-10.481-19.692-10.243-43.037,0.653-64.051c20.496-39.526,58.291-55.001,63.84-57.096c-4.168-4.994-34.38-42.841-29.187-83.89
				c4.663-36.86,23.349-55.076,38.204-63.867c15.107-8.94,29.435-10.205,31.265-10.332c8.657-8.512,25.148-11.141,45.294-7.214
				c26.777,5.222,60.72,22.952,71.97,49.541c11.432,27.02-3.7,42.236-18.333,56.952c-8.031,8.076-15.616,15.704-18.932,25.098
				c-4.953,14.032-0.986,38.481,2.851,62.124c3.561,21.947,6.925,42.679,3.505,55.219c-3.474,12.734-25.243,31.98-54.172,47.892
				C181.275,417.278,152.974,426.045,131.826,426.045z M205.271,104.171c-12.005,0-21.614,3.021-27.436,8.843
				c-0.088,0.088-0.205,0.14-0.33,0.146c-0.15,0.007-15.15,0.814-31.037,10.229c-14.646,8.68-33.073,26.674-37.682,63.109
				c-5.49,43.395,29.066,83.26,29.415,83.658c0.11,0.125,0.15,0.298,0.107,0.459c-0.043,0.161-0.164,0.291-0.322,0.345
				c-0.419,0.142-42.104,14.714-63.957,56.859c-10.742,20.717-10.982,43.723-0.658,63.12c10.032,18.849,28.631,31.133,51.03,33.703
				c2.464,0.283,5.023,0.419,7.653,0.419c48.907,0.004,123.934-46.99,130.599-71.432c3.363-12.331,0.016-32.957-3.527-54.795
				c-3.857-23.768-7.844-48.344-2.807-62.618c3.391-9.606,11.053-17.312,19.165-25.47c14.401-14.481,29.292-29.456,18.121-55.857
				c-11.107-26.253-44.714-43.777-71.239-48.949C216.286,104.754,210.546,104.171,205.271,104.171z M177.482,112.66h0.01H177.482z"
				/>
		</g>
		<g>
			<g>
				<path style="fill:#FFFFFF;" d="M439.089,378.656c-23.5-16.039-77.763-21.831-93.145-26.732
					c-15.382-4.901-32.405-11.006-35.036-28.068c-8.486-55.042-1.986-79.959-1.986-79.959l-44.419,6.5l-48.877,21.778
					c0,0,4.7,35.197-0.427,51.681c-5.127,16.485-19.654,23.168-35.036,28.068c-15.382,4.901-69.645,10.693-93.145,26.732
					c-23.5,16.039-32.473,74.403-32.473,74.403h208.508h208.508C471.562,453.06,462.589,394.696,439.089,378.656z"/>
				<path style="fill:#263238;" d="M471.561,453.56H54.546c-0.146,0-0.285-0.064-0.379-0.175c-0.095-0.11-0.137-0.257-0.115-0.401
					c0.09-0.586,9.276-58.764,32.685-74.74c16.76-11.439,48.571-17.593,71.798-22.085c9.142-1.769,17.037-3.296,21.476-4.71
					c15.037-4.791,29.649-11.469,34.71-27.74c5.037-16.191,0.456-51.116,0.409-51.467c-0.029-0.22,0.089-0.433,0.292-0.523
					l48.877-21.777c0.041-0.019,0.086-0.032,0.131-0.038l44.419-6.501c0.166-0.023,0.332,0.036,0.444,0.161
					c0.112,0.124,0.154,0.297,0.111,0.459c-0.065,0.249-6.371,25.484,1.997,79.757c2.488,16.136,17.831,22.295,34.693,27.668
					c4.439,1.414,12.335,2.941,21.477,4.71c23.227,4.492,55.038,10.646,71.799,22.085c23.408,15.977,32.595,74.154,32.685,74.74
					c0.022,0.145-0.02,0.291-0.114,0.401C471.846,453.496,471.707,453.56,471.561,453.56z M55.134,452.56h415.84
					c-1.018-6.103-10.356-58.604-32.167-73.49c-16.59-11.323-48.283-17.453-71.425-21.93c-9.173-1.774-17.095-3.307-21.589-4.738
					c-17.175-5.473-32.804-11.768-35.379-28.469c-7.623-49.439-3.098-74.932-2.141-79.435l-43.63,6.385L216.17,272.48
					c0.482,3.827,4.325,36.035-0.493,51.524c-5.197,16.709-20.067,23.522-35.362,28.396c-4.495,1.432-12.417,2.964-21.59,4.738
					c-23.142,4.477-54.835,10.607-71.425,21.93C65.49,393.955,56.152,446.457,55.134,452.56z"/>
			</g>
			<g>
				<path style="fill:#263238;" d="M246.5,335.85c12.589-14.283,15.538-24.406,15.538-24.406l-50.818,20.327
					c-1.263,9.736-14.897,15.985-14.897,15.985s46.088,32.377,49.056,33.267c2.968,0.89-5.342-29.384-5.342-32.055
					C240.037,347.218,243.864,340.364,246.5,335.85z"/>
				<path style="fill:#263238;" d="M245.5,381.543c-0.087,0-0.175-0.013-0.264-0.04c-3.011-0.903-47.315-32.013-49.2-33.337
					c-0.146-0.102-0.227-0.276-0.21-0.455c0.017-0.178,0.127-0.334,0.289-0.408c0.134-0.061,13.397-6.25,14.61-15.595
					c0.023-0.18,0.142-0.332,0.31-0.399l50.818-20.328c0.177-0.071,0.38-0.034,0.522,0.094s0.197,0.326,0.145,0.51
					c-0.122,0.418-3.119,10.377-15.612,24.56c-5.75,9.848-6.371,12.249-6.371,12.825c0,0.801,0.885,4.625,1.909,9.053
					c3.438,14.858,4.855,22.135,3.615,23.298C245.905,381.467,245.708,381.543,245.5,381.543z M197.304,347.834
					c13.119,9.209,45.094,31.459,48.12,32.676c0.809-1.683-2.278-15.027-3.952-22.262c-1.236-5.342-1.935-8.406-1.935-9.278
					c0-1.452,2.198-5.95,6.532-13.371c0.016-0.028,0.035-0.055,0.057-0.079c10.104-11.464,13.985-20.308,15.08-23.203l-49.53,19.813
					C210.361,340.618,200.232,346.344,197.304,347.834z"/>
			</g>
			<path style="fill:#263238;" d="M276.393,389.826c-0.08,0-0.16-0.019-0.235-0.059c-0.243-0.13-0.336-0.433-0.206-0.677
				c3.918-7.347,14.793-39.429,14.902-39.752c0.089-0.262,0.372-0.399,0.634-0.314c0.262,0.089,0.402,0.372,0.313,0.634
				c-0.448,1.323-11.011,32.483-14.967,39.902C276.744,389.73,276.571,389.826,276.393,389.826z"/>
			<path style="fill:#263238;" d="M243.403,390.675c-0.028,0-0.057-0.002-0.085-0.007l-9.36-1.608
				c-0.272-0.047-0.455-0.306-0.408-0.578c0.046-0.271,0.306-0.455,0.577-0.408l9.36,1.607c0.273,0.047,0.455,0.306,0.408,0.578
				C243.854,390.503,243.643,390.675,243.403,390.675z"/>
			<path style="fill:#263238;" d="M225.495,387.6c-0.028,0-0.057-0.002-0.085-0.007l-52.677-9.045
				c-0.273-0.047-0.455-0.306-0.408-0.578c0.046-0.271,0.307-0.452,0.577-0.408l52.677,9.045c0.272,0.047,0.455,0.306,0.408,0.578
				C225.945,387.428,225.734,387.6,225.495,387.6z"/>
			<path style="fill:#263238;" d="M281.903,391.389c-0.231,0-0.439-0.162-0.488-0.397c-0.057-0.271,0.116-0.535,0.387-0.592
				l57.752-12.121c0.268-0.059,0.534,0.117,0.592,0.387c0.057,0.27-0.116,0.535-0.387,0.592l-57.752,12.121
				C281.973,391.386,281.938,391.389,281.903,391.389z"/>
		</g>
		<g>
			<g>
				<path style="fill:#FFFFFF;" d="M168.686,119.368c0,0-18.832,14.175-26.591,52.376c-5.093,25.074,3.223,44.318,4.432,49.153
					c1.209,4.835,7.655,10.475,7.252,23.368c-0.403,12.893,4.835,33.44,10.878,41.095s20.548,29.008,27.397,37.469
					c6.849,8.461,10.072,13.296,18.936,13.698c8.864,0.403,17.727-1.209,32.634-8.461c14.907-7.252,36.663-25.785,42.304-38.275
					c5.641-12.49,4.432-24.979,3.626-28.605c-0.806-3.626-1.612-11.684-1.612-11.684s4.029,4.835,14.101-0.403
					c10.072-5.238,18.936-20.548,20.951-29.411c2.014-8.864,0.403-22.159,0.403-22.159s0-32.635-9.267-53.585
					c-9.267-20.951-21.756-37.469-47.542-45.93C240.805,89.554,193.666,96.403,168.686,119.368z"/>
				<path style="fill:#263238;" d="M213.521,337.089c-0.859,0-1.708-0.021-2.553-0.061c-8.453-0.384-12-4.801-17.879-12.117
					l-1.423-1.767c-3.717-4.591-9.612-12.871-15.314-20.879c-4.794-6.733-9.322-13.093-12.087-16.595
					c-5.961-7.551-11.402-28.067-10.985-41.42c0.275-8.809-2.748-14.271-4.955-18.259c-1.018-1.84-1.897-3.429-2.283-4.972
					c-0.165-0.658-0.47-1.607-0.856-2.808c-2.391-7.439-7.989-24.86-3.581-46.566c7.589-37.367,26.015-52.081,26.758-52.66
					c24.665-22.657,72.278-30.01,98.382-21.445c28.251,9.27,40.038,28.558,47.843,46.203c9.203,20.807,9.31,53.459,9.31,53.787
					c0.013,0.074,1.595,13.424-0.416,22.27c-1.972,8.675-10.658,24.258-21.207,29.744c-7.605,3.954-11.903,2.34-13.705,1.138
					c0.26,2.394,0.87,7.685,1.473,10.397c1.072,4.826,1.688,17.082-3.658,28.92c-5.81,12.864-27.639,31.27-42.541,38.519
					C229.798,335.351,221.246,337.089,213.521,337.089z M241.665,95.056c-24.914,0-54.829,8.305-72.641,24.68
					c-0.012,0.011-0.024,0.021-0.038,0.031c-0.186,0.141-18.776,14.532-26.402,52.077c-4.357,21.449,1.186,38.696,3.553,46.061
					c0.392,1.219,0.701,2.182,0.874,2.872c0.354,1.416,1.204,2.952,2.188,4.73c2.263,4.09,5.363,9.691,5.079,18.775
					c-0.411,13.169,4.924,33.363,10.771,40.77c2.78,3.521,7.315,9.891,12.116,16.634c5.693,7.995,11.579,16.263,15.277,20.83
					l1.425,1.77c5.896,7.338,9.144,11.381,17.145,11.745c8.293,0.376,16.974-0.911,32.393-8.411
					c14.448-7.029,36.434-25.562,42.066-38.032c6.547-14.494,3.624-28.154,3.594-28.291c-0.803-3.613-1.588-11.413-1.62-11.743
					c-0.022-0.219,0.101-0.426,0.304-0.511c0.202-0.086,0.438-0.028,0.577,0.141c0.155,0.182,3.938,4.439,13.487-0.526
					c9.896-5.145,18.722-20.404,20.693-29.078c1.972-8.676,0.41-21.856,0.395-21.989c-0.004-0.385-0.111-32.831-9.227-53.443
					c-7.716-17.444-19.362-36.509-47.241-45.657C259.445,96.197,250.898,95.056,241.665,95.056z M168.686,119.368h0.01H168.686z"/>
			</g>
			<path style="fill:#263238;" d="M174.18,279.994c-0.027,0-0.055-0.002-0.082-0.007c-0.273-0.045-0.457-0.303-0.411-0.575
				l0.601-3.604c0.326-1.957-0.757-2.352-3.236-3.058c-1.048-0.298-2.235-0.636-3.401-1.219c-3.473-1.736-3.717-2.817-3.554-3.308
				c0.087-0.261,0.368-0.403,0.632-0.316c0.228,0.076,0.365,0.301,0.339,0.53c0.035,0.111,0.36,0.864,3.03,2.199
				c1.083,0.541,2.222,0.865,3.227,1.151c2.281,0.649,4.436,1.263,3.949,4.184l-0.6,3.604
				C174.632,279.821,174.42,279.994,174.18,279.994z M165.044,268.54C165.044,268.54,165.044,268.54,165.044,268.54
				S165.044,268.54,165.044,268.54z M165.045,268.538c0,0,0,0.001,0,0.001C165.045,268.539,165.045,268.538,165.045,268.538z
				 M165.045,268.537C165.045,268.537,165.045,268.537,165.045,268.537S165.045,268.537,165.045,268.537z M165.063,268.425
				L165.063,268.425L165.063,268.425z"/>
			<path style="fill:#263238;" d="M188.245,269.82c-2.773,0-9.007-1.343-10.959-2.179c-1.628-0.701-2.609,1.453-2.649,1.545
				c-0.112,0.253-0.407,0.366-0.66,0.254c-0.253-0.112-0.366-0.408-0.254-0.66c0.485-1.091,1.935-2.925,3.957-2.059
				c2.011,0.861,9.108,2.359,11.144,2.066c1.145-0.163,3.053-1.796,3.707-3.578c0.404-1.103,0.268-2.045-0.405-2.802
				c-0.184-0.206-0.165-0.522,0.041-0.706c0.205-0.183,0.522-0.165,0.706,0.042c0.923,1.038,1.13,2.355,0.597,3.81
				c-0.793,2.163-3.032,4.015-4.504,4.225C188.765,269.807,188.522,269.82,188.245,269.82z"/>
			<g>
				<path style="fill:#263238;" d="M165.471,230.243c0,0-2.402,6.607-12.913,5.406c0,0-0.901,3.604-2.102,4.204
					c-1.201,0.601-3.303,1.201-3.303,1.201s7.508,2.102,12.313,0C164.269,238.952,165.17,233.547,165.471,230.243z"/>
				<path style="fill:#263238;" d="M154.117,242.494c-3.617,0-6.894-0.9-7.1-0.958c-0.215-0.06-0.365-0.256-0.365-0.48
					c-0.001-0.224,0.147-0.421,0.363-0.482c0.021-0.006,2.072-0.595,3.217-1.167c0.686-0.343,1.489-2.474,1.841-3.879
					c0.061-0.243,0.296-0.403,0.542-0.375c9.963,1.132,12.293-4.827,12.388-5.081c0.086-0.235,0.334-0.371,0.58-0.314
					c0.244,0.055,0.41,0.283,0.388,0.532c-0.198,2.181-0.802,8.817-6.304,11.224C157.981,242.249,156.003,242.494,154.117,242.494z
					 M149.051,240.968c2.468,0.471,7.009,1.03,10.213-0.372c3.583-1.567,4.89-5.067,5.43-8.215c-1.62,1.916-5.074,4.453-11.764,3.81
					c-0.306,1.092-1.105,3.536-2.251,4.109C150.207,240.536,149.611,240.769,149.051,240.968z"/>
			</g>
			<g>
				<path style="fill:#263238;" d="M159.464,214.327c0,0-4.204-4.505-9.91-3.904c-5.706,0.601-4.505,5.406-4.505,5.406
					s1.802-1.802,5.406-1.201C154.059,215.228,160.365,217.33,159.464,214.327z"/>
				<path style="fill:#263238;" d="M157.783,216.403c-1.223,0-2.897-0.335-4.961-0.786c-0.873-0.191-1.717-0.376-2.448-0.498
					c-3.282-0.549-4.904,0.997-4.972,1.063c-0.129,0.125-0.316,0.172-0.487,0.125c-0.172-0.049-0.306-0.185-0.35-0.359
					c-0.022-0.087-0.523-2.168,0.689-3.9c0.84-1.201,2.27-1.915,4.249-2.124c5.88-0.617,10.149,3.869,10.328,4.06
					c0.052,0.056,0.091,0.124,0.113,0.198c0.254,0.848,0.006,1.352-0.248,1.625C159.304,216.231,158.659,216.403,157.783,216.403z
					 M149.014,214.003c0.47,0,0.977,0.04,1.523,0.13c0.747,0.124,1.608,0.313,2.498,0.507c2.114,0.462,5.306,1.16,5.928,0.488
					c0.097-0.105,0.115-0.288,0.054-0.545c-0.606-0.601-4.45-4.185-9.41-3.664c-1.673,0.176-2.861,0.747-3.528,1.695
					c-0.548,0.778-0.646,1.678-0.631,2.305C146.147,214.503,147.337,214.003,149.014,214.003z"/>
			</g>
			<g>
				<path style="fill:#263238;" d="M195.201,221.534c0,0,8.409,0.601,14.715-0.901c6.307-1.501,12.913-6.306,12.913-6.306
					s-2.703,3.003-7.207,7.808c-4.505,4.805-13.214,5.406-16.817,4.805s-5.706-1.802-5.706-1.802S195.201,224.237,195.201,221.534z"
					/>
				<path style="fill:#263238;" d="M201.446,227.623c-1.087,0-2.024-0.073-2.723-0.19c-3.65-0.609-5.783-1.811-5.872-1.861
					c-0.165-0.094-0.262-0.273-0.251-0.462c0.011-0.189,0.128-0.357,0.302-0.431c0.071-0.032,1.799-0.822,1.799-3.144
					c0-0.139,0.058-0.271,0.159-0.366c0.102-0.094,0.241-0.146,0.376-0.133c0.082,0.005,8.407,0.577,14.564-0.889
					c6.138-1.462,12.669-6.177,12.735-6.225c0.206-0.151,0.494-0.122,0.666,0.07c0.171,0.19,0.171,0.479,0,0.669
					c-0.027,0.03-2.757,3.062-7.214,7.815C212.206,226.509,205.679,227.623,201.446,227.623z M194.114,225.072
					c0.896,0.391,2.544,1.003,4.773,1.374c3.256,0.542,11.892,0.123,16.371-4.654c1.848-1.972,3.399-3.646,4.582-4.933
					c-2.531,1.505-6.194,3.399-9.808,4.259c-5.49,1.308-12.422,1.05-14.356,0.944C195.527,223.607,194.743,224.553,194.114,225.072z
					"/>
			</g>
			<g>
				<path style="fill:#263238;" d="M176.282,201.413c0,0-0.901,5.405,3.904,4.204c4.805-1.201,13.814-7.508,21.322-9.61
					c7.508-2.102,18.319-3.904,19.22-4.204c0.901-0.3-10.811-3.604-18.319-1.802C194.901,191.803,180.186,196.308,176.282,201.413z"
					/>
				<path style="fill:#263238;" d="M178.905,206.292c-0.852,0-1.55-0.248-2.086-0.743c-1.485-1.371-1.05-4.102-1.031-4.217
					c0.013-0.08,0.046-0.157,0.096-0.222c4.786-6.258,24.208-11.067,26.407-11.595c6.827-1.638,18.64,0.962,18.964,2.096
					c0.074,0.257-0.116,0.582-0.37,0.667c-0.293,0.098-1.275,0.29-3.29,0.679c-4.024,0.778-10.76,2.079-15.954,3.533
					c-4.013,1.123-8.527,3.498-12.509,5.594c-3.522,1.853-6.564,3.454-8.826,4.019C179.802,206.229,179.334,206.292,178.905,206.292
					z M176.759,201.615c-0.058,0.486-0.205,2.33,0.74,3.201c0.543,0.5,1.405,0.606,2.566,0.317c2.145-0.537,5.282-2.187,8.603-3.934
					c4.026-2.119,8.59-4.52,12.706-5.672c5.233-1.465,11.994-2.771,16.033-3.552c0.665-0.128,1.274-0.246,1.777-0.346
					c-3.071-0.903-11.037-2.49-16.658-1.141C194.729,192.358,180.596,196.794,176.759,201.615z"/>
			</g>
			<path style="fill:#263238;" d="M177.783,299.214c-0.066,0-0.133-0.013-0.197-0.04c-0.254-0.109-0.372-0.403-0.263-0.657
				l0.626-1.462c0.758-1.767,2.369-2.987,4.31-3.265c1.425-0.203,2.685-0.521,3.747-0.945c2.101-0.842,4.348-1.535,5.5-1.874
				c0.595-0.176,1.213-0.248,1.829-0.217c1.941,0.099,8.538,0.342,11.939-0.629c0.263-0.078,0.542,0.077,0.618,0.343
				c0.076,0.266-0.078,0.543-0.344,0.618c-3.452,0.987-9.728,0.795-12.265,0.666c-0.504-0.027-1.008,0.033-1.495,0.178
				c-1.136,0.334-3.348,1.018-5.411,1.843c-1.136,0.454-2.474,0.793-3.977,1.008c-1.593,0.228-2.913,1.226-3.532,2.669l-0.626,1.462
				C178.162,299.101,177.977,299.214,177.783,299.214z"/>
			<g>
				<path style="fill:#263238;" d="M323.398,197.53c0,0,0-32.635-9.267-53.585c-9.267-20.951-21.756-37.469-47.542-45.93
					c-25.785-8.461-72.924-1.612-97.904,21.354c0,0-12.365,9.313-21.185,33.172c2.283-1.846,6.946-5.118,16.468-10.888
					c19.82-12.012,33.635-11.712,49.551-12.313c15.916-0.601,17.418,3.604,27.929,7.808c10.511,4.204,20.421,4.505,20.421,4.505
					l-14.715,4.805c0,0,3.904,13.814,18.92,24.926c15.016,11.112,8.409,12.012,11.412,21.622c3.003,9.61,24.025,4.805,27.028,3.304
					c3.003-1.502,13.814,11.412,14.715,20.421c0.357,3.572,1.045,6.613,1.745,8.997c0.922-2.184,1.613-4.243,2.021-6.037
					C325.01,210.826,323.398,197.53,323.398,197.53z"/>
				<path style="fill:#263238;" d="M320.975,226.226c-0.01,0-0.018-0.001-0.028-0.001c-0.211-0.012-0.392-0.155-0.451-0.358
					c-0.859-2.924-1.452-5.982-1.763-9.088c-0.725-7.238-8.221-17.37-12.368-19.656c-0.723-0.398-1.299-0.529-1.626-0.368
					c-2.276,1.138-15.623,4.386-23.028,1.237c-2.44-1.039-4.021-2.667-4.701-4.839c-0.943-3.021-0.96-5.177-0.975-7.08
					c-0.031-4.057-0.052-6.737-10.258-14.289c-14.979-11.084-19.064-25.052-19.103-25.192c-0.073-0.258,0.071-0.528,0.326-0.611
					l12.32-4.023c-3.647-0.37-10.741-1.422-18.056-4.347c-2.93-1.172-5.194-2.359-7.193-3.407
					c-5.311-2.785-9.153-4.797-20.532-4.366c-1.02,0.039-2.032,0.073-3.037,0.108c-14.936,0.514-27.835,0.957-46.274,12.133
					c-7.938,4.811-13.46,8.461-16.413,10.85c-0.173,0.143-0.422,0.149-0.606,0.018c-0.183-0.131-0.255-0.369-0.177-0.58
					c8.769-23.723,21.228-33.304,21.353-33.398c24.621-22.639,72.248-29.996,98.36-21.429c28.251,9.27,40.038,28.558,47.843,46.203
					c9.081,20.53,9.305,52.593,9.31,53.757c0.083,0.716,1.549,13.658-0.416,22.3c-0.413,1.819-1.102,3.878-2.047,6.121
					C321.356,226.106,321.175,226.226,320.975,226.226z M305.063,195.689c0.512,0,1.108,0.186,1.784,0.559
					c4.425,2.438,12.114,12.778,12.88,20.432c0.256,2.548,0.704,5.063,1.337,7.494c0.643-1.663,1.128-3.204,1.444-4.595
					c1.972-8.675,0.41-21.856,0.395-21.988c-0.003-0.02-0.004-0.04-0.004-0.06c0-0.325-0.107-32.771-9.224-53.383
					c-7.716-17.444-19.362-36.509-47.241-45.657c-25.85-8.481-72.997-1.197-97.409,21.247c-0.156,0.121-11.819,9.109-20.428,31.323
					c3.186-2.38,8.257-5.68,15.113-9.836c18.663-11.31,32.309-11.78,46.758-12.277c1.004-0.034,2.014-0.069,3.033-0.107
					c11.648-0.446,15.79,1.731,21.034,4.479c1.977,1.037,4.218,2.211,7.1,3.364c10.301,4.12,20.152,4.466,20.251,4.469
					c0.242,0.008,0.444,0.188,0.48,0.429c0.034,0.24-0.109,0.471-0.34,0.546l-14.243,4.651c0.835,2.471,5.416,14.455,18.59,24.203
					c10.606,7.849,10.629,10.727,10.662,15.085c0.014,1.833,0.029,3.911,0.93,6.79c0.587,1.88,1.979,3.299,4.138,4.217
					c7.12,3.03,19.993-0.112,22.189-1.212C304.521,195.746,304.779,195.689,305.063,195.689z M323.898,197.53h0.01H323.898z"/>
			</g>
			<g>
				<path style="fill:#263238;" d="M207.619,126.936c0,0-17.448-3.965-27.758,14.276c-10.31,18.241-7.931,37.275-16.655,49.965
					c-8.724,12.689-23,15.069-23,15.069s-10.789-25.722,7.295-53.705C165.585,124.557,207.619,126.936,207.619,126.936z"/>
				<path style="fill:#263238;" d="M140.206,206.745c-0.199,0-0.382-0.119-0.461-0.307c-0.109-0.26-10.682-26.288,7.336-54.17
					c12.602-19.5,36.961-24.373,50.636-25.531c5.604-1.233,9.925-0.309,10.013-0.29c0.253,0.058,0.42,0.3,0.384,0.558
					c-0.037,0.258-0.264,0.443-0.523,0.429c-0.124-0.006-3.938-0.192-9.699,0.288c-5.587,1.244-12.504,4.727-17.596,13.734
					c-5.206,9.21-7.114,18.441-8.96,27.367c-1.735,8.391-3.374,16.317-7.718,22.635c-8.743,12.717-23.185,15.255-23.33,15.279
					C140.261,206.743,140.233,206.745,140.206,206.745z M192.992,128.253c-13.823,1.843-34.054,7.51-45.071,24.558
					c-16.544,25.601-8.614,49.58-7.4,52.861c2.354-0.503,14.582-3.594,22.272-14.78c4.229-6.152,5.849-13.981,7.563-22.271
					c1.775-8.582,3.786-18.31,9.069-27.657C183.344,134.034,188.313,130.262,192.992,128.253z"/>
			</g>
			<g>
				<path style="fill:#FFFFFF;" d="M290.7,205.017c0,0,9.61-17.418,18.92-18.319c9.31-0.901,14.415,7.508,12.913,23.725
					c-1.502,16.217-6.307,27.628-11.112,34.235c-4.805,6.607-18.426,12.394-23.478,4.845"/>
				<path style="fill:#263238;" d="M295.266,253.57c-0.082,0-0.163-0.001-0.244-0.002c-3.287-0.064-5.879-1.374-7.494-3.787
					c-0.153-0.229-0.092-0.54,0.138-0.694c0.229-0.154,0.54-0.093,0.694,0.137c1.445,2.16,3.693,3.285,6.682,3.343
					c6.134,0.093,13.039-4.166,15.976-8.204c3.368-4.631,9.279-15.205,11.019-33.987c0.904-9.771-0.564-16.872-4.244-20.538
					c-2.083-2.075-4.816-2.965-8.124-2.644c-8.943,0.866-18.435,17.891-18.529,18.063c-0.133,0.242-0.44,0.328-0.679,0.196
					c-0.242-0.134-0.33-0.438-0.196-0.68c0.397-0.72,9.845-17.659,19.309-18.575c3.613-0.347,6.621,0.635,8.926,2.93
					c3.898,3.882,5.467,11.261,4.534,21.338c-1.762,19.021-7.777,29.77-11.206,34.483
					C308.339,249.746,300.963,253.57,295.266,253.57z"/>
			</g>
		</g>
	</g>
	<g>
		<path style="fill:#92E3A9;" d="M254.418,257.324c0,1.587-1.287,2.874-2.874,2.874c-1.587,0-2.874-1.287-2.874-2.874
			s1.287-2.874,2.874-2.874C253.131,254.45,254.418,255.737,254.418,257.324z"/>
		<path style="fill:#92E3A9;" d="M280.396,259.484c0,1.587-1.286,2.874-2.874,2.874s-2.874-1.287-2.874-2.874
			c0-1.587,1.287-2.874,2.874-2.874S280.396,257.897,280.396,259.484z"/>
		<path style="fill:#92E3A9;" d="M264.304,297.992c0,1.587-1.287,2.874-2.874,2.874c-1.587,0-2.874-1.287-2.874-2.874
			c0-1.587,1.287-2.874,2.874-2.874C263.017,295.118,264.304,296.405,264.304,297.992z"/>
		<path style="fill:#92E3A9;" d="M266.028,243.392c0,1.587-1.287,2.874-2.874,2.874c-1.587,0-2.874-1.287-2.874-2.874
			c0-1.587,1.287-2.874,2.874-2.874C264.741,240.518,266.028,241.805,266.028,243.392z"/>
		<path style="fill:#92E3A9;" d="M274.155,276.48c0,1.587-1.287,2.874-2.874,2.874s-2.874-1.286-2.874-2.874
			s1.287-2.874,2.874-2.874S274.155,274.893,274.155,276.48z"/>
		<path style="fill:#92E3A9;" d="M243.998,227.138c0,1.587-1.287,2.874-2.874,2.874c-1.587,0-2.874-1.287-2.874-2.874
			c0-1.587,1.287-2.874,2.874-2.874C242.711,224.264,243.998,225.551,243.998,227.138z"/>
		<circle style="fill:#92E3A9;" cx="233.549" cy="250.387" r="2.874"/>
		<path style="fill:#92E3A9;" d="M250.51,281.899c0,1.587-1.286,2.874-2.874,2.874s-2.874-1.287-2.874-2.874
			c0-1.587,1.287-2.874,2.874-2.874S250.51,280.312,250.51,281.899z"/>
		<path style="fill:#92E3A9;" d="M266.028,258.622c0,0.793-0.643,1.437-1.437,1.437c-0.794,0-1.437-0.643-1.437-1.437
			c0-0.794,0.643-1.437,1.437-1.437C265.384,257.185,266.028,257.829,266.028,258.622z"/>
		<path style="fill:#92E3A9;" d="M234.405,275.624c0,0.794-0.643,1.437-1.437,1.437c-0.794,0-1.437-0.643-1.437-1.437
			c0-0.794,0.643-1.437,1.437-1.437C233.762,274.187,234.405,274.83,234.405,275.624z"/>
		<path style="fill:#92E3A9;" d="M251.82,225.977c0,0.794-0.643,1.437-1.437,1.437c-0.794,0-1.437-0.643-1.437-1.437
			c0-0.794,0.643-1.437,1.437-1.437C251.177,224.54,251.82,225.184,251.82,225.977z"/>
		<path style="fill:#92E3A9;" d="M241.602,261.496c0,0.794-0.643,1.437-1.437,1.437c-0.794,0-1.437-0.643-1.437-1.437
			c0-0.793,0.643-1.437,1.437-1.437C240.958,260.059,241.602,260.703,241.602,261.496z"/>
		<path style="fill:#92E3A9;" d="M278.385,281.612c0,0.794-0.643,1.437-1.437,1.437c-0.793,0-1.437-0.643-1.437-1.437
			c0-0.794,0.643-1.437,1.437-1.437C277.741,280.175,278.385,280.818,278.385,281.612z"/>
		<path style="fill:#92E3A9;" d="M249.498,299.395c0,0.794-0.643,1.437-1.437,1.437c-0.794,0-1.437-0.643-1.437-1.437
			c0-0.793,0.643-1.437,1.437-1.437C248.855,297.958,249.498,298.602,249.498,299.395z"/>
		<path style="fill:#92E3A9;" d="M255.97,269.255c0,0.794-0.643,1.437-1.437,1.437c-0.794,0-1.437-0.643-1.437-1.437
			c0-0.794,0.643-1.437,1.437-1.437C255.327,267.818,255.97,268.461,255.97,269.255z"/>
		<path style="fill:#92E3A9;" d="M272.637,233.047c0,0.794-0.643,1.437-1.437,1.437c-0.793,0-1.437-0.643-1.437-1.437
			c0-0.794,0.643-1.437,1.437-1.437C271.994,231.61,272.637,232.253,272.637,233.047z"/>
		<path style="fill:#92E3A9;" d="M250.354,240.49c0,0.794-0.643,1.437-1.437,1.437c-0.793,0-1.437-0.643-1.437-1.437
			c0-0.794,0.643-1.437,1.437-1.437C249.711,239.053,250.354,239.696,250.354,240.49z"/>
		<path style="fill:#92E3A9;" d="M260.28,213.506c0,0.794-0.643,1.437-1.437,1.437c-0.794,0-1.437-0.643-1.437-1.437
			c0-0.794,0.643-1.437,1.437-1.437C259.637,212.069,260.28,212.712,260.28,213.506z"/>
	</g>
</g>
<g id="Character_2">
	<g>
		<g style="opacity:0.43;">
			
				<ellipse transform="matrix(0.7071 -0.7071 0.7071 0.7071 -103.1741 273.2922)" style="fill:#FFFFFF;" cx="278.306" cy="261.188" rx="65.465" ry="65.465"/>
			<path style="fill:#263238;" d="M278.258,327.157c-32.915,0.003-61.46-24.679-65.453-58.156
				c-4.308-36.118,21.571-69.005,57.688-73.313c17.498-2.086,34.758,2.765,48.604,13.661c13.847,10.895,22.621,26.533,24.708,44.027
				l0,0c2.087,17.496-2.764,34.757-13.66,48.603c-10.895,13.848-26.532,22.622-44.027,24.709
				C283.479,327.004,280.852,327.157,278.258,327.157z M278.435,196.214c-2.597,0-5.206,0.154-7.823,0.467
				c-35.57,4.242-61.056,36.631-56.814,72.201c4.242,35.568,36.625,61.047,72.201,56.814c17.23-2.056,32.63-10.698,43.36-24.335
				c10.731-13.637,15.509-30.637,13.454-47.866l0,0c-2.056-17.231-10.697-32.63-24.334-43.361
				C306.914,201.034,292.928,196.214,278.435,196.214z"/>
		</g>
		<g>
			<g>
				<path style="fill:#FFFFFF;" d="M421.127,329.9c0.956-1.457,0.746-3.383-0.508-4.593c-3.461-3.341-10.206-9.789-13.471-12.477
					c-1.313-1.081-2.509-1.749-3.55-2.164c-0.317-0.281-0.55-0.201-0.55-0.201c-2.208-0.73-10.597,0.373-10.597,0.373l9.151,16.468
					l8.195,2.736l-2.751,10.774l2.218,3.226c0,0,0.32-0.325,0.856-0.873l1.53,1.171L421.127,329.9z"/>
				<path style="fill:#263238;" d="M411.65,344.841c-0.109,0-0.216-0.036-0.304-0.102l-1.18-0.902l-0.546,0.557
					c-0.104,0.106-0.263,0.157-0.399,0.147c-0.149-0.013-0.284-0.092-0.369-0.215l-2.219-3.227
					c-0.082-0.119-0.108-0.268-0.072-0.407l2.636-10.323l-7.754-2.589c-0.119-0.04-0.218-0.122-0.279-0.231l-9.151-16.467
					c-0.08-0.145-0.084-0.32-0.009-0.468c0.074-0.148,0.217-0.25,0.381-0.272c0.342-0.044,8.271-1.078,10.708-0.386
					c0.169-0.013,0.459,0.032,0.766,0.274c1.21,0.493,2.423,1.236,3.608,2.213c3.256,2.681,9.855,8.984,13.5,12.504
					c1.422,1.372,1.665,3.57,0.578,5.227l-9.477,14.441c-0.076,0.116-0.197,0.195-0.334,0.219
					C411.706,344.839,411.679,344.841,411.65,344.841z M410.12,342.67c0.107,0,0.214,0.034,0.304,0.103l1.103,0.845l9.182-13.992
					l0,0c0.824-1.255,0.64-2.919-0.438-3.959c-3.634-3.509-10.212-9.792-13.44-12.451c-1.13-0.93-2.279-1.632-3.418-2.085
					c-0.053-0.022-0.103-0.052-0.146-0.09c-0.089-0.079-0.139-0.086-0.14-0.086c-0.104,0.033-0.134,0.019-0.237-0.015
					c-1.561-0.517-6.944-0.02-9.643,0.303l8.697,15.649l8.011,2.675c0.249,0.083,0.391,0.345,0.326,0.599l-2.694,10.554l1.746,2.54
					l0.43-0.438C409.86,342.721,409.99,342.67,410.12,342.67z"/>
			</g>
			<g>
				<g>
					<g>
						<g>
							<path style="fill:#FFFFFF;" d="M362.764,329.93c-1.429,0.17-2.923-0.153-4.208-1.025l-27.32-18.519
								c-2.832-1.92-3.573-5.773-1.652-8.606c1.919-2.832,5.772-3.574,8.606-1.652l27.32,18.519c2.833,1.92,3.573,5.773,1.652,8.606
								C366.113,328.802,364.486,329.725,362.764,329.93z"/>
							<path style="fill:#263238;" d="M362.034,330.474c-1.335,0-2.645-0.398-3.759-1.154l-27.319-18.518
								c-1.48-1.004-2.482-2.523-2.819-4.28c-0.337-1.757,0.03-3.54,1.033-5.02c1.004-1.48,2.523-2.482,4.28-2.819
								c1.758-0.339,3.539,0.029,5.021,1.033l27.319,18.519c3.057,2.071,3.857,6.244,1.786,9.301
								c-1.091,1.607-2.822,2.662-4.752,2.893c0,0,0,0-0.001,0C362.56,330.458,362.297,330.474,362.034,330.474z M362.765,329.931
								h0.01H362.765z M334.726,299.56c-0.361,0-0.725,0.034-1.087,0.103c-1.494,0.287-2.787,1.14-3.641,2.398
								c-0.853,1.26-1.166,2.775-0.879,4.271c0.287,1.494,1.139,2.787,2.398,3.641l27.319,18.519c1.135,0.77,2.506,1.103,3.87,0.943
								c1.642-0.197,3.115-1.094,4.042-2.461c1.763-2.601,1.081-6.15-1.518-7.912l-27.319-18.518
								C336.955,299.896,335.853,299.56,334.726,299.56z"/>
						</g>
					</g>
					<g>
						<path style="fill:#FFFFFF;" d="M349.316,331.619c0,0,1.669,3.015,2.339,3.87c0.67,0.855,4.094,1.603,4.094,1.603
							s3.604,9.451,4.307,11.136s2.189,4.612,2.883,4.83c0.694,0.217,5.777,2.512,6.986,0.898c1.209-1.614,1.021-7.284,1.021-7.284
							l-10.326-10.164l-0.769-3.347L349.316,331.619z"/>
						<path style="fill:#263238;" d="M368.37,355.033c-1.429,0-3.31-0.626-5.108-1.322c-0.22-0.085-0.384-0.149-0.472-0.177
							c-1.207-0.378-3.175-5.066-3.195-5.114c-0.642-1.54-3.63-9.362-4.218-10.9c-0.949-0.222-3.45-0.874-4.115-1.723
							c-0.686-0.876-2.314-3.811-2.383-3.936c-0.092-0.166-0.082-0.37,0.026-0.526c0.107-0.157,0.295-0.236,0.483-0.211
							l10.535,1.541c0.204,0.03,0.369,0.183,0.415,0.383l0.736,3.205l10.222,10.062c0.092,0.09,0.144,0.212,0.149,0.34
							c0.02,0.599,0.157,5.895-1.12,7.601C369.908,354.813,369.219,355.033,368.37,355.033z M350.252,332.262
							c0.54,0.948,1.382,2.389,1.797,2.918c0.385,0.491,2.458,1.128,3.807,1.423c0.165,0.036,0.301,0.152,0.36,0.311
							c0.036,0.094,3.61,9.463,4.303,11.122c0.868,2.083,2.148,4.336,2.583,4.549c0.087,0.027,0.272,0.098,0.521,0.194
							c4.201,1.628,5.529,1.375,5.902,0.877c0.868-1.159,0.965-5.102,0.927-6.77l-10.183-10.022
							c-0.068-0.067-0.115-0.151-0.137-0.244l-0.692-3.014L350.252,332.262z"/>
					</g>
					<g>
						<g>
							<path style="fill:#92E3A9;" d="M420.51,375.115c-3.017,0.36-6.171-0.323-8.884-2.162l-59.174-40.111
								c-5.981-4.054-7.543-12.188-3.489-18.169c4.054-5.981,12.189-7.542,18.169-3.489l59.174,40.111
								c5.981,4.054,7.543,12.189,3.489,18.169C427.58,372.732,424.145,374.681,420.51,375.115z"/>
							<path style="fill:#263238;" d="M418.962,375.706c-2.702,0-5.357-0.808-7.616-2.339l-59.175-40.111
								c-6.199-4.202-7.824-12.664-3.622-18.863c2.035-3.004,5.119-5.034,8.682-5.718c3.565-0.686,7.18,0.061,10.182,2.096
								l59.175,40.11c3.003,2.036,5.034,5.119,5.718,8.682s-0.061,7.179-2.096,10.182c-2.21,3.261-5.724,5.399-9.64,5.866
								C420.033,375.675,419.497,375.706,418.962,375.706z M359.817,309.428c-0.797,0-1.599,0.075-2.398,0.229
								c-3.301,0.634-6.156,2.515-8.042,5.297c-3.893,5.743-2.388,13.582,3.354,17.475l59.175,40.111
								c2.507,1.699,5.539,2.435,8.544,2.079l0,0c3.629-0.434,6.884-2.414,8.931-5.435c3.892-5.743,2.388-13.582-3.354-17.475
								l-59.175-40.11C364.743,310.17,362.309,309.428,359.817,309.428z"/>
						</g>
					</g>
					<g>
						<path style="fill:#FFFFFF;" d="M351.086,335.514c0,0-1.545-3.991-1.744-4.388c-0.198-0.397-1.454-2.049-1.256-2.578
							c0.198-0.529,0.793-0.793,1.719-0.132c0.925,0.661,2.647,4.426,2.647,4.426s2.707-1.385,3.897-0.196
							c1.19,1.19,1.454,4.362,1.454,4.362"/>
						<path style="fill:#263238;" d="M357.802,337.509c-0.257,0-0.476-0.197-0.497-0.458c-0.07-0.833-0.442-3.184-1.31-4.051
							c-0.762-0.763-2.652-0.052-3.316,0.287c-0.121,0.061-0.265,0.071-0.392,0.026c-0.129-0.045-0.234-0.14-0.291-0.264
							c-0.644-1.409-1.887-3.802-2.482-4.227c-0.482-0.345-0.724-0.305-0.789-0.287c-0.075,0.023-0.133,0.086-0.171,0.189
							c0.002,0.254,0.654,1.257,0.9,1.635c0.156,0.239,0.28,0.435,0.335,0.543c0.203,0.406,1.604,4.02,1.763,4.431
							c0.1,0.258-0.027,0.547-0.285,0.646c-0.257,0.101-0.547-0.026-0.647-0.285c-0.618-1.596-1.588-4.069-1.726-4.345
							c-0.045-0.089-0.15-0.248-0.278-0.445c-0.724-1.111-1.219-1.943-0.998-2.531c0.148-0.396,0.438-0.678,0.814-0.793
							c0.339-0.103,0.902-0.113,1.663,0.429c0.836,0.598,2.066,3.051,2.599,4.172c0.92-0.383,2.89-1.004,4.008,0.112
							c1.304,1.304,1.588,4.537,1.599,4.674c0.023,0.275-0.182,0.518-0.456,0.54C357.83,337.508,357.816,337.509,357.802,337.509z"
							/>
					</g>
				</g>
				<g>
					<g>
						<g>
							<path style="fill:#FFFFFF;" d="M272.191,191.891c-39.083,4.661-66.988,40.124-62.326,79.207
								c4.661,39.083,40.124,66.988,79.207,62.327s66.988-40.124,62.327-79.207C346.737,215.134,311.275,187.229,272.191,191.891z
								 M288.1,325.277c-34.584,4.125-65.964-20.567-70.089-55.151c-4.125-34.584,20.567-65.964,55.152-70.089
								c34.584-4.125,65.964,20.567,70.089,55.152C347.376,289.773,322.684,321.153,288.1,325.277z"/>
							<path style="fill:#263238;" d="M280.487,334.435c-16.011,0.001-31.459-5.323-44.236-15.378
								c-15.066-11.854-24.612-28.865-26.883-47.9c-2.27-19.035,3.008-37.815,14.863-52.881
								c11.853-15.064,28.868-24.611,47.901-26.882l0,0c19.031-2.269,37.814,3.007,52.881,14.862
								c15.065,11.855,24.612,28.866,26.882,47.901c4.687,39.295-23.47,75.077-62.764,79.763
								C286.24,334.265,283.353,334.435,280.487,334.435z M280.772,191.879c-2.827,0-5.671,0.168-8.521,0.508
								c-18.771,2.238-35.545,11.652-47.234,26.508c-11.69,14.855-16.894,33.374-14.655,52.143
								c2.239,18.771,11.653,35.545,26.508,47.234c14.855,11.688,33.378,16.89,52.143,14.655
								c18.771-2.239,35.545-11.652,47.234-26.508c11.689-14.855,16.895-33.374,14.656-52.143
								c-2.239-18.77-11.653-35.544-26.509-47.234C311.795,197.129,296.56,191.879,280.772,191.879z M272.191,191.891h0.01H272.191z
								 M280.504,326.23c-14.181,0-27.863-4.715-39.18-13.62c-13.343-10.499-21.798-25.566-23.809-42.425
								c-2.011-16.859,2.664-33.492,13.163-46.835c10.499-13.343,25.567-21.799,42.425-23.81
								c34.806-4.148,66.493,20.787,70.645,55.588c4.15,34.803-20.787,66.494-55.589,70.645l-0.06-0.496l0.06,0.496
								C285.599,326.079,283.043,326.23,280.504,326.23z M280.677,200.089c-2.462,0-4.95,0.145-7.454,0.444
								c-16.595,1.979-31.424,10.302-41.758,23.435c-10.334,13.133-14.936,29.504-12.956,46.098
								c1.979,16.594,10.301,31.424,23.434,41.758c13.133,10.335,29.505,14.931,46.098,12.957
								c34.255-4.086,58.8-35.278,54.716-69.533C338.969,223.498,311.894,200.089,280.677,200.089z"/>
						</g>
						<g>
							<path style="fill:#FFFFFF;" d="M269.398,190.708c-39.083,4.661-66.988,40.124-62.327,79.207
								c4.661,39.083,40.124,66.988,79.207,62.327c39.083-4.661,66.988-40.124,62.327-79.207
								C343.943,213.951,308.481,186.047,269.398,190.708z M285.307,324.095c-34.584,4.125-65.964-20.567-70.089-55.152
								c-4.125-34.584,20.568-65.964,55.152-70.089c34.584-4.125,65.964,20.567,70.089,55.152
								C344.583,288.59,319.891,319.97,285.307,324.095z"/>
							<path style="fill:#263238;" d="M277.694,333.253c-16.012,0-31.459-5.323-44.237-15.378
								c-15.065-11.854-24.612-28.865-26.883-47.9c-4.686-39.295,23.47-75.076,62.764-79.763
								c39.306-4.688,75.075,23.47,79.763,62.764c2.271,19.035-3.008,37.814-14.862,52.88
								c-11.855,15.065-28.867,24.612-47.901,26.882C283.447,333.082,280.56,333.253,277.694,333.253z M269.398,190.708l0.06,0.497
								c-38.748,4.622-66.511,39.904-61.89,78.651c2.239,18.771,11.653,35.545,26.508,47.234
								c14.855,11.688,33.372,16.89,52.143,14.655c38.748-4.621,66.512-39.904,61.891-78.65
								c-4.622-38.747-39.899-66.509-78.651-61.89L269.398,190.708z M277.711,325.048c-14.181,0-27.863-4.715-39.18-13.62
								c-13.343-10.499-21.798-25.566-23.809-42.425c-2.011-16.859,2.664-33.492,13.164-46.835
								c10.499-13.343,25.566-21.798,42.424-23.809c34.807-4.149,66.493,20.787,70.645,55.589
								c2.011,16.859-2.664,33.492-13.163,46.835c-10.499,13.343-25.566,21.798-42.425,23.809
								C282.806,324.897,280.25,325.048,277.711,325.048z M277.884,198.907c-2.463,0-4.951,0.146-7.455,0.444
								c-16.594,1.979-31.424,10.301-41.758,23.435c-10.334,13.133-14.936,29.504-12.956,46.098
								c1.979,16.594,10.301,31.424,23.435,41.758c13.133,10.334,29.505,14.931,46.098,12.957
								c16.594-1.979,31.424-10.302,41.758-23.435c10.335-13.133,14.936-29.504,12.957-46.098
								C336.175,222.315,309.1,198.907,277.884,198.907z"/>
						</g>
					</g>
				</g>
			</g>
			<g>
				<g>
					<g>
						<g>
							<path id="XMLID_00000091722225694812796520000007379343630143032719_" style="fill:#FFFFFF;" d="M374.06,290.449
								c0,0-1.758,4.922-1.641,5.859c0.117,0.938,0.586,1.289,0,1.875c-0.586,0.586-2.461,1.992-2.227,2.812
								c0.234,0.82,1.406,1.758,1.406,1.758s1.289,5.156,2.578,5.742s3.281,0.117,3.281,0.117l1.406,3.75l9.843-2.461l-0.586-5.976
								c0,0,2.93-5.625,2.226-9.023c-0.703-3.398-6.797-6.679-10.781-6.679C375.583,288.223,374.411,289.512,374.06,290.449z"/>
							<path style="fill:#263238;" d="M378.864,312.862c-0.204,0-0.394-0.126-0.468-0.324l-1.259-3.356
								c-0.705,0.112-2.116,0.247-3.168-0.231c-1.364-0.62-2.512-4.738-2.814-5.917c-0.348-0.298-1.215-1.104-1.442-1.899
								c-0.254-0.887,0.708-1.83,1.893-2.884c0.186-0.164,0.348-0.308,0.46-0.42c0.178-0.179,0.18-0.202,0.05-0.627
								c-0.066-0.218-0.149-0.489-0.192-0.833c-0.126-1.004,1.365-5.248,1.665-6.089c0.001-0.003,0.002-0.005,0.003-0.008
								c0.435-1.163,1.827-2.551,5.976-2.551c4.282,0,10.517,3.433,11.271,7.078c0.678,3.274-1.748,8.314-2.204,9.221l0.572,5.831
								c0.023,0.247-0.137,0.474-0.377,0.534l-9.844,2.461C378.945,312.857,378.904,312.862,378.864,312.862z M377.458,308.112
								c0.204,0,0.394,0.126,0.468,0.324l1.25,3.332l8.992-2.248l-0.544-5.547c-0.009-0.097,0.01-0.193,0.055-0.279
								c0.028-0.055,2.839-5.507,2.181-8.69c-0.645-3.116-6.531-6.281-10.292-6.281c-2.787,0-4.576,0.675-5.038,1.899
								c-0.844,2.363-1.678,5.112-1.613,5.624c0.033,0.268,0.1,0.48,0.156,0.665c0.139,0.452,0.31,1.016-0.299,1.626
								c-0.123,0.123-0.3,0.28-0.503,0.461c-1.401,1.244-1.642,1.698-1.597,1.86c0.139,0.482,0.833,1.179,1.238,1.504
								c0.085,0.068,0.147,0.163,0.173,0.27c0.592,2.367,1.64,5.108,2.299,5.408c1.116,0.507,2.942,0.089,2.96,0.086
								C377.382,308.116,377.42,308.112,377.458,308.112z"/>
						</g>
						<path style="fill:#263238;" d="M374.122,304.668c-0.246,0-0.461-0.183-0.494-0.435c-0.036-0.273,0.156-0.524,0.43-0.561
							c0.354-0.048,1.338-0.296,1.621-0.863c0.123-0.246,0.422-0.349,0.671-0.224c0.247,0.123,0.347,0.424,0.224,0.671
							c-0.569,1.141-2.201,1.384-2.386,1.408C374.166,304.667,374.144,304.668,374.122,304.668z"/>
						<path id="XMLID_36_" style="fill:#263238;" d="M374.257,298.159c0,0.406-0.135,0.734-0.3,0.734s-0.3-0.329-0.3-0.734
							c0-0.406,0.134-0.734,0.3-0.734S374.257,297.753,374.257,298.159z"/>
						<path style="fill:#263238;" d="M374.925,297.257c-0.198,0-0.386-0.119-0.464-0.314c-0.11-0.274-0.21-0.352-0.23-0.357
							c-0.068-0.041-0.233,0.113-0.32,0.22c-0.175,0.214-0.489,0.246-0.703,0.072c-0.214-0.174-0.247-0.488-0.072-0.703
							c0.056-0.07,0.575-0.683,1.246-0.578c0.436,0.066,0.776,0.395,1.008,0.975c0.102,0.256-0.022,0.547-0.278,0.649
							C375.05,297.245,374.986,297.257,374.925,297.257z"/>
					</g>
					<g>
						<path id="XMLID_00000034795229127129347670000011731085363768152509_" style="fill:#263238;" d="M376.404,292.324
							c0,0-3.867,0.234-4.101-3.398c-0.234-3.633,5.039-5.625,7.031-5.625s0.586,1.992,0.586,1.992s4.922-1.406,6.211-0.117
							c1.289,1.289,0.234,2.344,0.234,2.344s6.445,2.695,6.445,7.382c0,4.687-3.398,9.257-3.984,10.195
							c-0.586,0.937-1.992,1.758-4.57,1.875c-2.578,0.117-4.101-1.172-4.687-2.93c-0.586-1.758-0.586-1.758-0.586-1.758
							s1.992-2.109,1.055-3.867c-0.938-1.758-1.523-0.703-1.758,0c-0.234,0.703,0.234,1.406-0.234,1.406s-0.117-0.586-1.406-1.875
							c-1.289-1.289-2.344-1.875-1.875-3.164C375.232,293.496,376.404,292.324,376.404,292.324z"/>
						<path style="fill:#263238;" d="M383.938,307.478c-2.39,0-4.146-1.182-4.845-3.278l-0.586-1.757
							c-0.058-0.174-0.016-0.367,0.11-0.501c0.018-0.019,1.733-1.872,0.978-3.289c-0.34-0.637-0.536-0.698-0.538-0.698
							c0,0.017-0.155,0.175-0.304,0.621c-0.07,0.211-0.042,0.455-0.017,0.671c0.033,0.281,0.071,0.6-0.152,0.851
							c-0.092,0.104-0.26,0.227-0.54,0.227c-0.541,0-0.705-0.397-0.814-0.66c-0.117-0.283-0.295-0.711-0.945-1.361
							c-0.235-0.235-0.463-0.447-0.675-0.643c-0.972-0.904-1.812-1.685-1.316-3.045c0.256-0.703,0.694-1.363,1.07-1.849
							c-1.52-0.242-3.393-1.211-3.56-3.808c-0.078-1.208,0.363-2.333,1.311-3.344c1.721-1.835,4.717-2.813,6.219-2.813
							c0.722,0,1.205,0.228,1.437,0.676c0.174,0.336,0.152,0.72,0.058,1.068c1.653-0.374,4.551-0.827,5.655,0.276
							c0.947,0.947,0.872,1.877,0.607,2.481c1.605,0.786,6.219,3.41,6.219,7.599c0,4.366-2.77,8.518-3.812,10.081
							c-0.106,0.159-0.191,0.287-0.249,0.378c-0.452,0.725-1.7,1.961-4.972,2.109C384.163,307.477,384.05,307.478,383.938,307.478z
							 M379.546,302.397l0.496,1.487c0.589,1.766,2.082,2.674,4.19,2.589c2.815-0.129,3.82-1.083,4.169-1.641
							c0.06-0.098,0.151-0.233,0.265-0.403c0.996-1.494,3.644-5.463,3.644-9.526c0-4.297-6.077-6.896-6.139-6.922
							c-0.153-0.065-0.265-0.201-0.297-0.364c-0.032-0.164,0.019-0.332,0.137-0.45c0.11-0.116,0.64-0.763-0.234-1.637
							c-0.746-0.746-3.794-0.306-5.72,0.244c-0.209,0.062-0.422-0.02-0.545-0.19c-0.122-0.173-0.123-0.404-0.002-0.578
							c0.246-0.352,0.463-0.895,0.372-1.067c-0.026-0.051-0.171-0.136-0.549-0.136c-1.287,0-3.981,0.889-5.489,2.497
							c-0.751,0.801-1.102,1.674-1.042,2.595c0.199,3.104,3.433,2.944,3.571,2.932c0.206-0.025,0.4,0.104,0.486,0.294
							c0.085,0.188,0.044,0.411-0.103,0.559c-0.011,0.011-1.101,1.112-1.524,2.278c-0.255,0.702,0.073,1.055,1.059,1.971
							c0.219,0.204,0.455,0.424,0.7,0.669c0.343,0.343,0.581,0.643,0.752,0.899c0.015-0.077,0.034-0.156,0.06-0.235
							c0.341-1.021,0.835-1.271,1.19-1.301c0.811-0.061,1.313,0.904,1.483,1.224C381.384,299.882,380.074,301.751,379.546,302.397z
							 M378.218,299.427h0.011H378.218z"/>
					</g>
				</g>
				<g>
					<polygon id="XMLID_00000106854224667160085870000003199664343084523188_" style="fill:#FFFFFF;" points="376.056,311.793 
						374.659,314.881 392.451,310.837 390.392,308.264 					"/>
					<path style="fill:#263238;" d="M374.659,315.381c-0.148,0-0.291-0.066-0.388-0.184c-0.12-0.147-0.146-0.35-0.068-0.522
						l1.396-3.088c0.064-0.14,0.188-0.243,0.337-0.279l14.336-3.528c0.186-0.048,0.387,0.021,0.51,0.173l2.059,2.573
						c0.107,0.135,0.139,0.315,0.081,0.478c-0.057,0.162-0.193,0.284-0.361,0.322l-17.791,4.043
						C374.733,315.377,374.696,315.381,374.659,315.381z M376.411,312.221l-0.882,1.949l16.032-3.643l-1.36-1.701L376.411,312.221z"
						/>
				</g>
			</g>
			<g>
				<g>
					<path style="fill:#FFFFFF;" d="M402.117,312.035c-0.712-1.187-8.753-1.103-9.667-1.198s-17.241,3.655-17.241,3.655
						s-11.747,4.628-11.629,6.526c0.079,1.263-0.891,10.716-0.991,17.429l-1.969-1.94c0,0-4.049,1.743-4.314,4.656
						c-0.265,2.913,5.296,13.24,7.414,15.094c2.118,1.854,5.561,1.589,6.62-0.529c1.059-2.118,1.854-12.71,1.854-12.71l-0.229-0.278
						c0.502-1.646,0.87-3.209,0.87-3.209s0.237,10.442,1.305,11.51c1.068,1.068,14.239,2.254,19.104,0.593
						c4.865-1.661,5.933-2.255,6.17-3.441c0.237-1.187,1.068-14.121,1.068-14.121l1.495-11.958"/>
					<path style="fill:#263238;" d="M367.051,357.996c-1.319,0-2.656-0.486-3.658-1.363c-2.245-1.963-7.868-12.388-7.584-15.515
						c0.289-3.173,4.438-4.994,4.613-5.07c0.189-0.08,0.405-0.04,0.549,0.102l1.144,1.127c0.105-3.832,0.438-8.281,0.686-11.614
						c0.174-2.316,0.311-4.147,0.281-4.613c-0.128-2.041,8.311-5.591,11.944-7.022c3.922-0.906,16.565-3.797,17.476-3.688
						c0.177,0.019,0.627,0.028,1.241,0.045c5.974,0.153,8.277,0.518,8.803,1.393c0.143,0.236,0.065,0.544-0.172,0.686
						c-0.233,0.143-0.54,0.067-0.684-0.168c-0.377-0.478-3.06-0.786-7.974-0.912c-0.652-0.017-1.131-0.03-1.318-0.05
						c-0.004,0-0.007,0-0.011,0c-0.865,0-10.911,2.231-17.065,3.645c-6.011,2.374-11.191,5.137-11.242,6.011
						c0.033,0.532-0.092,2.209-0.281,4.748c-0.274,3.663-0.649,8.68-0.709,12.717c-0.003,0.2-0.125,0.379-0.31,0.455
						c-0.186,0.074-0.398,0.033-0.54-0.106l-1.72-1.694c-0.898,0.453-3.52,1.953-3.715,4.099
						c-0.251,2.759,5.216,12.896,7.246,14.673c1.028,0.898,2.483,1.294,3.803,1.039c0.953-0.188,1.678-0.69,2.041-1.416
						c0.815-1.63,1.55-9.26,1.787-12.325l-0.102-0.123c-0.105-0.13-0.141-0.304-0.092-0.463c0.491-1.61,0.858-3.163,0.862-3.178
						c0.058-0.245,0.276-0.416,0.538-0.383c0.251,0.026,0.442,0.234,0.448,0.485c0.111,4.908,0.586,10.574,1.158,11.169
						c0.974,0.857,13.781,2.116,18.589,0.473c4.839-1.651,5.667-2.189,5.843-3.065c0.189-0.947,0.828-10.467,1.059-14.056
						l1.498-11.988c0.034-0.275,0.287-0.472,0.559-0.434c0.273,0.034,0.468,0.284,0.434,0.559l-1.495,11.958
						c-0.031,0.499-0.832,12.951-1.073,14.156c-0.3,1.501-1.654,2.162-6.5,3.816c-4.772,1.629-18.314,0.593-19.619-0.713
						c-0.659-0.66-1.025-3.775-1.227-6.739c-0.271,3.074-0.929,9.608-1.772,11.297c-0.505,1.009-1.479,1.701-2.743,1.95
						C367.72,357.965,367.386,357.996,367.051,357.996z"/>
				</g>
				<path style="fill:#263238;" d="M362.397,349.343c-0.003,0-0.006,0-0.009,0c-0.276-0.005-0.496-0.233-0.491-0.509l0.192-10.396
					c0.005-0.276,0.221-0.5,0.509-0.491c0.276,0.005,0.496,0.233,0.491,0.509l-0.192,10.396
					C362.893,349.125,362.67,349.343,362.397,349.343z"/>
			</g>
			<g>
				<g>
					<path style="fill:#FFFFFF;" d="M370.617,443.066l-2.647,2.269c0,0-7.112,3.911-7.823,4.267c-0.711,0.356-1.778,0.889-1.6,1.422
						c0.178,0.533,0,1.778,1.422,1.956c1.422,0.178,17.602,0,17.602,0s0-3.2-0.178-4.978c-0.178-1.778-1.017-4.936-1.017-4.936
						H370.617z"/>
					<path style="fill:#263238;" d="M365.251,453.56c-2.668,0-4.848-0.021-5.344-0.083c-1.502-0.188-1.678-1.345-1.772-1.966
						c-0.019-0.125-0.033-0.239-0.063-0.327c-0.315-0.946,0.938-1.572,1.852-2.028c0.665-0.332,7.15-3.897,7.76-4.232l2.608-2.236
						c0.091-0.077,0.206-0.12,0.325-0.12h5.76c0.226,0,0.425,0.152,0.483,0.372c0.034,0.13,0.85,3.217,1.03,5.015
						c0.179,1.781,0.181,4.896,0.181,5.027c0,0.274-0.221,0.497-0.494,0.5C377.144,453.485,370.316,453.56,365.251,453.56z
						 M370.802,443.566l-2.507,2.149c-0.025,0.023-0.054,0.042-0.084,0.059c-0.291,0.159-7.128,3.92-7.84,4.275
						c-0.311,0.155-1.26,0.629-1.347,0.881c0.041,0.07,0.07,0.24,0.1,0.43c0.097,0.639,0.192,1.035,0.907,1.124
						c1.066,0.134,11.331,0.061,17.037,0.002c-0.008-0.964-0.04-3.114-0.172-4.434c-0.137-1.364-0.684-3.605-0.907-4.486H370.802z
						 M367.97,445.336h0.01H367.97z"/>
				</g>
				<g>
					<polygon style="fill:#263238;" points="370.137,384.515 368.458,408.031 367.97,445.336 377.393,447.113 382.856,405.632 
						387.895,392.913 					"/>
					<path style="fill:#263238;" d="M377.394,447.613c-0.031,0-0.062-0.003-0.093-0.009l-9.424-1.777
						c-0.238-0.045-0.41-0.255-0.407-0.498l0.488-37.305l1.681-23.545c0.012-0.165,0.104-0.314,0.247-0.396
						c0.142-0.085,0.316-0.092,0.466-0.021l17.757,8.398c0.238,0.113,0.348,0.392,0.251,0.637l-5.017,12.661l-5.453,41.42
						c-0.018,0.136-0.092,0.259-0.203,0.34C377.601,447.58,377.498,447.613,377.394,447.613z M368.476,444.923l8.491,1.602
						l5.393-40.958c0.006-0.041,0.016-0.08,0.031-0.119l4.866-12.282l-16.673-7.886l-1.627,22.787L368.476,444.923z"/>
				</g>
				<g>
					<path style="fill:#FFFFFF;" d="M402.195,442.48L402.195,442.48c-1.043,2.458-2.879,4.497-5.214,5.792
						c-1.123,0.623-2.126,1.187-2.341,1.33c-0.533,0.356-0.889,1.245-0.356,2.134c0.533,0.889,1.956,1.245,1.956,1.245
						s6.223,0.178,7.468,0c1.245-0.178,4.267-0.889,4.267-0.889s2.845,0,3.556-1.422c0.711-1.422-2.489-10.134-2.489-10.134
						L402.195,442.48z"/>
					<path style="fill:#263238;" d="M401.184,453.56c-2.158,0-4.79-0.074-4.958-0.079c-0.036-0.001-0.071-0.006-0.107-0.015
						c-0.166-0.042-1.642-0.435-2.264-1.473c-0.662-1.104-0.263-2.294,0.507-2.807c0.2-0.133,0.999-0.587,2.377-1.352
						c2.228-1.237,4.002-3.208,4.995-5.551c0.059-0.14,0.178-0.244,0.323-0.286l6.847-1.944c0.256-0.07,0.516,0.064,0.606,0.309
						c0.768,2.092,3.217,9.032,2.467,10.53c-0.787,1.576-3.424,1.691-3.943,1.699c-0.428,0.1-3.082,0.716-4.256,0.884
						C403.338,453.538,402.327,453.56,401.184,453.56z M396.313,452.482c2.156,0.061,6.38,0.137,7.325,0.003
						c1.207-0.173,4.192-0.873,4.223-0.88c0.037-0.009,0.075-0.014,0.114-0.014c0.706-0.001,2.641-0.21,3.108-1.146
						c0.366-0.732-0.912-5.306-2.353-9.302l-6.172,1.752c-1.096,2.45-2.982,4.509-5.334,5.814c-1.776,0.984-2.209,1.243-2.309,1.31
						c-0.319,0.213-0.595,0.807-0.203,1.46C395.045,452.031,395.936,452.377,396.313,452.482z"/>
				</g>
				<g>
					<polygon style="fill:#263238;" points="389.815,388.594 391.734,409.231 400.924,441.671 400.346,445.599 410.629,445.368 
						404.693,409.471 405.652,384.035 					"/>
					<path style="fill:#263238;" d="M400.346,446.1c-0.144,0-0.279-0.062-0.375-0.169c-0.098-0.11-0.142-0.258-0.12-0.404
						l0.563-3.822l-9.16-32.336l-1.937-20.729c-0.022-0.238,0.129-0.46,0.359-0.526l15.838-4.559
						c0.155-0.043,0.319-0.013,0.447,0.087c0.126,0.099,0.197,0.252,0.191,0.412l-0.958,25.386l5.928,35.847
						c0.023,0.144-0.016,0.29-0.108,0.401c-0.093,0.111-0.229,0.178-0.373,0.181l-10.283,0.231
						C400.353,446.1,400.35,446.1,400.346,446.1z M390.351,388.96l1.882,20.225l9.173,32.349c0.018,0.068,0.023,0.14,0.014,0.21
						l-0.492,3.342l9.115-0.205l-5.843-35.328c-0.006-0.033-0.008-0.067-0.007-0.101l0.935-24.745L390.351,388.96z"/>
				</g>
			</g>
			<g>
				<path style="fill:#FFFFFF;" d="M371.665,331.63l-1.324,24.097l-4.284,32.627c0,0,15.217,4.559,21.837,4.559
					s19.437-4.799,19.437-4.799l-2.64-41.994l-2.486-31.318"/>
				<path style="fill:#263238;" d="M387.895,393.413c-6.617,0-21.356-4.393-21.98-4.58c-0.235-0.07-0.384-0.301-0.353-0.544
					l4.284-32.627l1.32-24.06c0.016-0.275,0.253-0.492,0.526-0.472c0.275,0.015,0.487,0.251,0.472,0.526l-1.323,24.098
					l-4.231,32.241c2.464,0.719,15.414,4.417,21.285,4.417c5.853,0,16.827-3.881,18.915-4.64l-2.616-41.622l-2.485-31.309
					c-0.023-0.275,0.184-0.517,0.458-0.538c0.276-0.018,0.517,0.183,0.538,0.458l2.486,31.317l2.641,42.003
					c0.014,0.22-0.117,0.422-0.323,0.499C406.98,388.779,394.529,393.413,387.895,393.413z"/>
			</g>
		</g>
	</g>
</g>
<g id="Product_2">
	<g>
		<g>
			<path style="fill:#92E3A9;" d="M143.101,453.06H87.576c-3.349,0-6.064-2.715-6.064-6.064v-40.124
				c0-3.349,2.715-6.064,6.064-6.064h55.525c3.349,0,6.064,2.715,6.064,6.064v40.124C149.165,450.345,146.45,453.06,143.101,453.06z
				"/>
			<path style="fill:#263238;" d="M143.101,453.56H87.576c-3.62,0-6.564-2.944-6.564-6.565v-40.124c0-3.62,2.945-6.564,6.564-6.564
				h55.525c3.62,0,6.564,2.944,6.564,6.564v40.124C149.665,450.615,146.72,453.56,143.101,453.56z M87.576,401.307
				c-3.068,0-5.564,2.496-5.564,5.564v40.124c0,3.068,2.496,5.565,5.564,5.565h55.525c3.068,0,5.564-2.496,5.564-5.565v-40.124
				c0-3.068-2.496-5.564-5.564-5.564H87.576z"/>
		</g>
		<g>
			<rect x="86.554" y="412.344" style="fill:#FFFFFF;" width="56.533" height="28.267"/>
			<path style="fill:#263238;" d="M143.088,441.111H86.554c-0.276,0-0.5-0.224-0.5-0.5v-28.267c0-0.276,0.224-0.5,0.5-0.5h56.534
				c0.276,0,0.5,0.224,0.5,0.5v28.267C143.588,440.888,143.364,441.111,143.088,441.111z M87.054,440.111h55.534v-27.267H87.054
				V440.111z"/>
		</g>
		<g>
			<rect x="82.158" y="385.482" style="fill:#FFFFFF;" width="66.36" height="15.364"/>
			<path style="fill:#263238;" d="M148.518,401.345h-66.36c-0.276,0-0.5-0.224-0.5-0.5v-15.363c0-0.276,0.224-0.5,0.5-0.5h66.36
				c0.276,0,0.5,0.224,0.5,0.5v15.363C149.018,401.121,148.794,401.345,148.518,401.345z M82.658,400.345h65.36v-14.363h-65.36
				V400.345z"/>
		</g>
		<path style="fill:#263238;" d="M87.649,401.307c-0.276,0-0.5-0.224-0.5-0.5v-14.632c0-0.276,0.224-0.5,0.5-0.5
			c0.276,0,0.5,0.224,0.5,0.5v14.632C88.149,401.083,87.925,401.307,87.649,401.307z"/>
		<path style="fill:#263238;" d="M91.322,398.482c-0.276,0-0.5-0.224-0.5-0.5v-5.772c0-0.276,0.224-0.5,0.5-0.5
			c0.276,0,0.5,0.224,0.5,0.5v5.772C91.822,398.259,91.599,398.482,91.322,398.482z"/>
		<path style="fill:#263238;" d="M94.996,395.071c-0.276,0-0.5-0.224-0.5-0.5V386.7c0-0.276,0.224-0.5,0.5-0.5
			c0.276,0,0.5,0.224,0.5,0.5v7.871C95.496,394.848,95.272,395.071,94.996,395.071z"/>
		<path style="fill:#263238;" d="M99.194,400.582c-0.276,0-0.5-0.224-0.5-0.5v-10.233c0-0.276,0.224-0.5,0.5-0.5
			c0.276,0,0.5,0.224,0.5,0.5v10.233C99.694,400.358,99.47,400.582,99.194,400.582z"/>
		<path style="fill:#263238;" d="M141.175,396.908c-0.276,0-0.5-0.224-0.5-0.5v-9.446c0-0.276,0.224-0.5,0.5-0.5s0.5,0.224,0.5,0.5
			v9.446C141.675,396.685,141.452,396.908,141.175,396.908z"/>
		<path style="fill:#263238;" d="M143.331,401.307c-0.276,0-0.5-0.224-0.5-0.5v-7.022c0-0.276,0.224-0.5,0.5-0.5
			c0.276,0,0.5,0.224,0.5,0.5v7.022C143.831,401.083,143.607,401.307,143.331,401.307z"/>
		<path style="fill:#263238;" d="M137.502,391.923c-0.276,0-0.5-0.224-0.5-0.5v-5.248c0-0.276,0.224-0.5,0.5-0.5
			c0.276,0,0.5,0.224,0.5,0.5v5.248C138.002,391.699,137.778,391.923,137.502,391.923z"/>
		<g>
			<polygon style="fill:#92E3A9;" points="125.017,421.986 118.864,421.986 118.864,415.833 110.778,415.833 110.778,421.986 
				104.625,421.986 104.625,430.072 110.778,430.072 110.778,436.225 118.864,436.225 118.864,430.072 125.017,430.072 			"/>
			<path style="fill:#263238;" d="M118.864,436.725h-8.087c-0.276,0-0.5-0.224-0.5-0.5v-5.652h-5.653c-0.276,0-0.5-0.224-0.5-0.5
				v-8.087c0-0.276,0.224-0.5,0.5-0.5h5.653v-5.652c0-0.276,0.224-0.5,0.5-0.5h8.087c0.276,0,0.5,0.224,0.5,0.5v5.652h5.652
				c0.276,0,0.5,0.224,0.5,0.5v8.087c0,0.276-0.224,0.5-0.5,0.5h-5.652v5.652C119.364,436.501,119.141,436.725,118.864,436.725z
				 M111.278,435.725h7.087v-5.652c0-0.276,0.224-0.5,0.5-0.5h5.652v-7.087h-5.652c-0.276,0-0.5-0.224-0.5-0.5v-5.652h-7.087v5.652
				c0,0.276-0.224,0.5-0.5,0.5h-5.653v7.087h5.653c0.276,0,0.5,0.224,0.5,0.5V435.725z"/>
		</g>
	</g>
</g>
<g id="Product_3">
	<g>
		<g>
			<g>
				<rect x="132.896" y="381.398" style="fill:#92E3A9;" width="36.854" height="71.661"/>
				<path style="fill:#263238;" d="M169.75,453.56h-36.855c-0.276,0-0.5-0.224-0.5-0.5v-71.661c0-0.276,0.224-0.5,0.5-0.5h36.855
					c0.276,0,0.5,0.224,0.5,0.5v71.661C170.25,453.336,170.026,453.56,169.75,453.56z M133.395,452.56h35.855v-70.661h-35.855
					V452.56z"/>
			</g>
			<g>
				<rect x="132.896" y="401.07" style="fill:#FFFFFF;" width="29.969" height="32.318"/>
				<path style="fill:#263238;" d="M162.865,433.888h-29.969c-0.276,0-0.5-0.224-0.5-0.5V401.07c0-0.276,0.224-0.5,0.5-0.5h29.969
					c0.276,0,0.5,0.224,0.5,0.5v32.317C163.365,433.664,163.141,433.888,162.865,433.888z M133.395,432.888h28.969V401.57h-28.969
					V432.888z"/>
			</g>
			<g>
				<rect x="138.619" y="346.026" style="fill:#FFFFFF;" width="25.407" height="35.287"/>
				<path style="fill:#263238;" d="M164.026,381.814H138.62c-0.276,0-0.5-0.224-0.5-0.5v-35.287c0-0.276,0.224-0.5,0.5-0.5h25.407
					c0.276,0,0.5,0.224,0.5,0.5v35.287C164.526,381.59,164.303,381.814,164.026,381.814z M139.12,380.814h24.407v-34.287H139.12
					V380.814z"/>
			</g>
		</g>
		<path style="fill:#263238;" d="M142.661,370.816c-0.276,0-0.5-0.224-0.5-0.5v-23.05c0-0.276,0.224-0.5,0.5-0.5
			c0.276,0,0.5,0.224,0.5,0.5v23.05C143.161,370.593,142.938,370.816,142.661,370.816z"/>
		<path style="fill:#263238;" d="M142.661,378.283c-0.276,0-0.5-0.224-0.5-0.5v-4.545c0-0.276,0.224-0.5,0.5-0.5
			c0.276,0,0.5,0.224,0.5,0.5v4.545C143.161,378.06,142.938,378.283,142.661,378.283z"/>
		<path style="fill:#263238;" d="M146.232,376.011c-0.276,0-0.5-0.224-0.5-0.5v-22.726c0-0.276,0.224-0.5,0.5-0.5
			c0.276,0,0.5,0.224,0.5,0.5v22.726C146.732,375.787,146.509,376.011,146.232,376.011z"/>
		<path style="fill:#263238;" d="M151.751,358.155c-0.276,0-0.5-0.224-0.5-0.5v-10.713c0-0.276,0.224-0.5,0.5-0.5
			c0.276,0,0.5,0.224,0.5,0.5v10.713C152.251,357.932,152.027,358.155,151.751,358.155z"/>
	</g>
</g>
<g id="Product_1">
	<g>
		<g>
			<g>
				<path style="fill:#92E3A9;" d="M71.643,453.06H22.962l-2.965-102.023c-0.037-12.692-0.542-25.378-1.514-38.032l-3.634-34.996
					h64.908l-3.579,33.868c-0.985,12.718-1.499,25.468-1.54,38.223L71.643,453.06z"/>
				<path style="fill:#263238;" d="M71.643,453.56H22.962c-0.271,0-0.492-0.215-0.5-0.485l-2.965-102.022
					c-0.037-12.638-0.546-25.422-1.512-38.009l-3.633-34.983c-0.014-0.141,0.031-0.281,0.126-0.387
					c0.095-0.105,0.23-0.165,0.372-0.165h64.908c0.142,0,0.277,0.061,0.372,0.165c0.095,0.105,0.141,0.246,0.126,0.388
					l-3.579,33.869c-0.979,12.636-1.496,25.483-1.537,38.173l-2.995,102.971C72.135,453.345,71.914,453.56,71.643,453.56z
					 M23.448,452.56h47.709l2.98-102.473c0.041-12.7,0.56-25.573,1.541-38.248l3.521-33.33H15.403l3.577,34.444
					c0.969,12.625,1.479,25.434,1.516,38.083L23.448,452.56z"/>
			</g>
			<g>
				<rect x="29.897" y="308.055" style="fill:#FFFFFF;" width="34.263" height="96.364"/>
				<path style="fill:#263238;" d="M64.16,404.919H29.897c-0.276,0-0.5-0.224-0.5-0.5v-96.364c0-0.276,0.224-0.5,0.5-0.5H64.16
					c0.276,0,0.5,0.224,0.5,0.5v96.364C64.66,404.695,64.437,404.919,64.16,404.919z M30.397,403.919H63.66v-95.364H30.397V403.919z
					"/>
			</g>
			<g>
				<polygon style="fill:#FFFFFF;" points="22.157,425.38 22.962,453.06 71.643,453.06 72.448,425.38 				"/>
				<path style="fill:#263238;" d="M71.643,453.56H22.962c-0.271,0-0.492-0.215-0.5-0.485l-0.804-27.68
					c-0.004-0.135,0.047-0.266,0.141-0.363c0.094-0.097,0.224-0.151,0.359-0.151h50.29c0.135,0,0.265,0.055,0.359,0.151
					c0.094,0.098,0.145,0.228,0.141,0.363l-0.805,27.68C72.135,453.345,71.914,453.56,71.643,453.56z M23.448,452.56h47.709
					l0.776-26.68H22.672L23.448,452.56z"/>
			</g>
			<g>
				<polygon style="fill:#FFFFFF;" points="14.849,278.009 12.396,269.113 81.564,269.113 79.756,278.009 				"/>
				<path style="fill:#263238;" d="M79.756,278.509H14.849c-0.225,0-0.422-0.15-0.482-0.367l-2.452-8.897
					c-0.042-0.15-0.01-0.311,0.084-0.435c0.095-0.124,0.242-0.197,0.398-0.197h69.168c0.15,0,0.292,0.067,0.387,0.184
					c0.095,0.116,0.133,0.269,0.103,0.416l-1.808,8.896C80.199,278.342,79.994,278.509,79.756,278.509z M15.229,277.509h64.118
					l1.605-7.896h-67.9L15.229,277.509z"/>
			</g>
		</g>
		<path style="fill:#263238;" d="M28.959,444.5c-0.276,0-0.5-0.224-0.5-0.5v-18.435c0-0.276,0.224-0.5,0.5-0.5
			c0.276,0,0.5,0.224,0.5,0.5V444C29.459,444.276,29.236,444.5,28.959,444.5z"/>
		<path style="fill:#263238;" d="M33.397,453.185c-0.276,0-0.5-0.224-0.5-0.5v-22.511c0-0.276,0.224-0.5,0.5-0.5
			c0.276,0,0.5,0.224,0.5,0.5v22.511C33.897,452.961,33.674,453.185,33.397,453.185z"/>
		<path style="fill:#263238;" d="M39.165,445.817c-0.276,0-0.5-0.224-0.5-0.5v-16.131c0-0.276,0.224-0.5,0.5-0.5
			c0.276,0,0.5,0.224,0.5,0.5v16.131C39.665,445.594,39.441,445.817,39.165,445.817z"/>
		<path style="fill:#263238;" d="M62.539,442.525c-0.276,0-0.5-0.224-0.5-0.5v-16.131c0-0.276,0.224-0.5,0.5-0.5
			c0.276,0,0.5,0.224,0.5,0.5v16.131C63.039,442.302,62.815,442.525,62.539,442.525z"/>
		<path style="fill:#263238;" d="M66.16,451.084c-0.276,0-0.5-0.224-0.5-0.5v-16.131c0-0.276,0.224-0.5,0.5-0.5
			c0.276,0,0.5,0.224,0.5,0.5v16.131C66.66,450.86,66.436,451.084,66.16,451.084z"/>
		<path style="fill:#263238;" d="M45.749,446.147c-0.276,0-0.5-0.224-0.5-0.5v-8.56c0-0.276,0.224-0.5,0.5-0.5
			c0.276,0,0.5,0.224,0.5,0.5v8.56C46.249,445.923,46.025,446.147,45.749,446.147z"/>
	</g>
</g>
<g id="Floor_1_">
	<path style="fill:#263238;" d="M493.348,453.56H10.95c-0.276,0-0.5-0.224-0.5-0.5c0-0.276,0.224-0.5,0.5-0.5h482.398
		c0.276,0,0.5,0.224,0.5,0.5C493.848,453.336,493.624,453.56,493.348,453.56z"/>
</g>
</svg>
