<?xml version="1.0" encoding="utf-8"?>
<!-- Generator: Adobe Illustrator 27.5.0, SVG Export Plug-In . SVG Version: 6.00 Build 0)  -->
<svg version="1.1" xmlns="http://www.w3.org/2000/svg" xmlns:xlink="http://www.w3.org/1999/xlink" x="0px" y="0px"
	 viewBox="0 0 500 500" style="enable-background:new 0 0 500 500;" xml:space="preserve">
<g id="BACKGROUND">
	<rect style="fill:#FFFFFF;" width="500" height="500"/>
</g>
<g id="OBJECTS">
	<g>
		<path style="fill:#EBEEF5;" d="M319.477,408.239c50.615-4.821,120.548-9.488,107.792-78.86
			c-12.756-69.373,58.865-214.494-89.923-244.353C188.559,55.167,115.707,111.597,104.09,211.124
			C92.472,310.652-0.635,431.371,175.846,411.053C222.411,405.692,289.939,411.053,319.477,408.239z"/>
		<g>
			<g>
				<path style="fill:#ACD97E;" d="M192.964,351.518c-0.426,1.087-0.929,2.237-2.032,4.457
					C182.761,352.8,46.8,307.239,62.806,266.031C78.811,224.822,141.17,312.759,192.964,351.518z"/>
				<g>
					<path style="fill:#97C765;" d="M181.452,348.95c-0.101,0-0.204-0.029-0.293-0.089
						c-72.977-48.756-104.279-76.976-104.586-77.255c-0.216-0.196-0.232-0.53-0.036-0.746c0.197-0.215,0.531-0.23,0.745-0.036
						c0.308,0.278,31.563,28.454,104.463,77.158c0.243,0.162,0.308,0.49,0.145,0.732C181.789,348.867,181.622,348.95,181.452,348.95
						z"/>
					<path style="fill:#97C765;" d="M99.029,289.917c-0.046,0-0.094-0.007-0.142-0.02c-0.113-0.031-11.607-3.167-27.529-3.167
						c-0.292,0-0.528-0.236-0.528-0.528c0-0.291,0.236-0.527,0.528-0.527c16.075,0,27.697,3.174,27.812,3.206
						c0.282,0.077,0.445,0.367,0.368,0.649C99.474,289.764,99.261,289.917,99.029,289.917z"/>
					<path style="fill:#97C765;" d="M115.916,302.829c-0.236,0-0.452-0.159-0.512-0.398c-0.045-0.181-4.655-18.135-16.758-30.852
						c-0.201-0.211-0.193-0.545,0.019-0.746c0.21-0.2,0.544-0.195,0.747,0.019c12.298,12.923,16.971,31.139,17.017,31.321
						c0.071,0.283-0.1,0.569-0.383,0.641C116.002,302.824,115.959,302.829,115.916,302.829z"/>
					<path style="fill:#97C765;" d="M122.759,315.558c-5.519,0-13.451-0.623-23.845-2.946c-0.284-0.063-0.464-0.347-0.4-0.631
						c0.063-0.283,0.346-0.458,0.63-0.4c21.629,4.837,32.75,2.156,32.86,2.129c0.284-0.074,0.569,0.1,0.64,0.382
						c0.072,0.283-0.099,0.569-0.381,0.641C132.023,314.792,128.874,315.558,122.759,315.558z"/>
				</g>
			</g>
			<g>
				<path style="fill:#9BCC68;" d="M181.838,388.747c0.722-0.919,1.459-1.935,2.815-4.011
					c-6.878-5.435-139.825-104.582-142.454-64.907C38.626,373.729,122.183,363.724,181.838,388.747z"/>
				<g>
					<path style="fill:#8BB85D;" d="M173.337,380.917c-0.077,0-0.156-0.017-0.23-0.053
						c-78.921-38.183-119.048-50.857-119.444-50.981c-0.278-0.087-0.433-0.384-0.346-0.661c0.086-0.279,0.38-0.434,0.661-0.348
						c0.397,0.124,40.585,12.817,119.59,51.039c0.263,0.127,0.372,0.442,0.246,0.706
						C173.722,380.808,173.534,380.917,173.337,380.917z"/>
					<path style="fill:#8BB85D;" d="M81.219,339.966c-0.185,0-0.364-0.097-0.461-0.268c-0.078-0.141-8.011-14.146-19.633-25.77
						c-0.206-0.206-0.206-0.54,0-0.746c0.206-0.206,0.54-0.206,0.747,0C73.6,324.91,81.599,339.038,81.679,339.18
						c0.143,0.254,0.053,0.576-0.201,0.718C81.395,339.944,81.306,339.966,81.219,339.966z"/>
					<path style="fill:#8BB85D;" d="M63.326,349.378c-2.472,0-4.991-0.13-7.517-0.432c-0.289-0.034-0.496-0.297-0.461-0.587
						c0.034-0.29,0.286-0.509,0.587-0.461c17.958,2.147,35.759-4.524,35.936-4.593c0.272-0.101,0.577,0.034,0.681,0.307
						c0.104,0.271-0.033,0.577-0.305,0.681C92.092,344.353,78.684,349.378,63.326,349.378z"/>
					<path style="fill:#8BB85D;" d="M114.274,353.715c-0.224,0-0.431-0.144-0.503-0.368c-0.045-0.143-4.606-14.313-12.166-21.873
						c-0.206-0.206-0.206-0.54,0-0.746c0.206-0.207,0.54-0.207,0.747,0c7.745,7.744,12.238,21.709,12.426,22.3
						c0.089,0.278-0.065,0.574-0.343,0.663C114.381,353.707,114.327,353.715,114.274,353.715z"/>
					<path style="fill:#8BB85D;" d="M95.29,365.065c-0.292,0-0.528-0.236-0.528-0.528s0.236-0.527,0.528-0.527
						c21.805,0,32.827-4.995,32.935-5.045c0.265-0.126,0.58-0.008,0.701,0.257c0.123,0.265,0.008,0.579-0.256,0.7
						C128.56,359.973,117.325,365.065,95.29,365.065z"/>
				</g>
			</g>
			<g>
				<path style="fill:#9BCC68;" d="M205.942,346.85c-1.009,1.006-2.136,2.043-4.458,3.977
					c-7.559-7.56-148.646-155.806-98.779-163.376C155.266,179.471,167.191,278.131,205.942,346.85z"/>
				<g>
					<path style="fill:#8BB85D;" d="M194.617,338.266c-0.174,0-0.345-0.087-0.446-0.244c-57.471-90.29-78.53-137.166-78.736-137.628
						c-0.119-0.266,0.001-0.578,0.268-0.697c0.267-0.118,0.579,0.001,0.697,0.268c0.205,0.462,21.239,47.278,78.662,137.49
						c0.157,0.246,0.084,0.572-0.162,0.729C194.811,338.239,194.714,338.266,194.617,338.266z"/>
					<path style="fill:#8BB85D;" d="M132.133,232.759c-0.135,0-0.27-0.051-0.374-0.155c-11.947-11.947-29.748-17.092-29.926-17.143
						c-0.281-0.08-0.443-0.371-0.364-0.652c0.081-0.281,0.375-0.444,0.652-0.364c0.181,0.051,18.246,5.272,30.385,17.412
						c0.207,0.206,0.207,0.54,0,0.746C132.403,232.708,132.268,232.759,132.133,232.759z"/>
					<path style="fill:#8BB85D;" d="M144.853,255.817c-0.25,0-0.472-0.177-0.519-0.432c-0.042-0.227-4.199-23.015-2.429-40.485
						c0.03-0.29,0.284-0.497,0.578-0.472c0.29,0.029,0.501,0.289,0.472,0.579c-1.755,17.322,2.375,39.96,2.417,40.186
						c0.053,0.287-0.137,0.563-0.424,0.615C144.917,255.814,144.885,255.817,144.853,255.817z"/>
					<path style="fill:#8BB85D;" d="M152.653,269.439c-0.135,0-0.27-0.052-0.372-0.153c-0.124-0.123-12.562-12.358-29.217-16.68
						c-0.282-0.073-0.452-0.361-0.378-0.644c0.073-0.282,0.363-0.452,0.644-0.379c16.939,4.396,29.57,16.829,29.696,16.953
						c0.206,0.206,0.207,0.541,0.002,0.747C152.925,269.387,152.789,269.439,152.653,269.439z"/>
					<path style="fill:#8BB85D;" d="M171.675,301.435c-0.056,0-0.112-0.01-0.168-0.028c-0.276-0.093-0.425-0.393-0.332-0.669
						c2.758-8.172,1.649-20.148,1.637-20.268c-0.027-0.29,0.185-0.549,0.475-0.576c0.287-0.019,0.548,0.185,0.576,0.475
						c0.048,0.499,1.143,12.322-1.688,20.707C172.101,301.295,171.896,301.435,171.675,301.435z"/>
				</g>
			</g>
		</g>
		<path style="fill:#BABDC7;" d="M157.411,407.738c0,7.369,50.982,13.34,113.873,13.34c62.89,0,113.872-5.971,113.872-13.34
			c0-7.366-50.983-13.338-113.872-13.338C208.394,394.4,157.411,400.372,157.411,407.738z"/>
		<g>
			<g>
				<path style="fill:#A1B0E0;" d="M391.241,110.406c3.425,4.036-2.665,6.152-2.665,6.152s6.138,1.439,3.558,5.684
					c-2.58,4.245-6.676-0.633-6.676-0.633s1.259,6.398-4.307,5.141c-5.563-1.258-1.46-6.544-1.46-6.544s-5.536,2.188-6.219-2.507
					c-0.684-4.696,5.773-3.412,5.773-3.412s-4.39-4.771,0.462-6.689c4.85-1.921,5.028,4.435,5.028,4.435
					S387.815,106.369,391.241,110.406z"/>
				<path style="fill:#FFFFFF;" d="M386.51,118.839c-0.999,1.681-3.173,2.236-4.854,1.237c-1.683-1-2.235-3.173-1.237-4.855
					c1-1.682,3.173-2.237,4.855-1.237C386.955,114.982,387.51,117.156,386.51,118.839z"/>
			</g>
			<g>
				<path style="fill:#A1B0E0;" d="M142.581,164.722c4.931,1.923,0.581,6.68,0.581,6.68s6.083-1.652,5.831,3.309
					c-0.253,4.961-6.173,2.616-6.173,2.616s4.148,5.031-1.345,6.57c-5.494,1.538-4.396-5.064-4.396-5.064s-3.831,4.558-6.663,0.752
					c-2.833-3.807,3.457-5.746,3.457-5.746s-6.129-2.111-2.773-6.104c3.354-3.995,6.532,1.512,6.532,1.512
					S137.648,162.799,142.581,164.722z"/>
				<path style="fill:#FFFFFF;" d="M142.427,174.391c-0.079,1.954-1.728,3.475-3.683,3.396c-1.955-0.08-3.475-1.728-3.396-3.683
					c0.08-1.955,1.728-3.476,3.683-3.396C140.985,170.786,142.507,172.435,142.427,174.391z"/>
			</g>
			<g>
				<path style="fill:#B1BDE6;" d="M169.751,110.107c5.602-0.988,4.263,5.81,4.263,5.81s4.663-4.913,7.201-0.217
					c2.538,4.696-4.208,5.849-4.208,5.849s6.618,2.303,2.434,6.783c-4.187,4.479-6.864-2.195-6.864-2.195s-0.972,6.323-5.698,4.41
					c-4.728-1.913-0.034-7.206-0.034-7.206s-6.806,1.483-5.955-4.057c0.851-5.541,6.842-2.259,6.842-2.259
					S164.149,111.095,169.751,110.107z"/>
				<path style="fill:#FFFFFF;" d="M175.008,119.071c1.018,1.838,0.353,4.156-1.487,5.174c-1.839,1.019-4.155,0.354-5.174-1.486
					c-1.019-1.839-0.354-4.156,1.487-5.175C171.671,116.565,173.989,117.23,175.008,119.071z"/>
			</g>
			<g>
				<path style="fill:#E0558A;" d="M109.271,260.944c6.534-1.656,5.545,6.494,5.545,6.494s5.082-6.216,8.493-0.886
					c3.409,5.329-4.464,7.277-4.464,7.277s8.023,2.146,3.468,7.807c-4.556,5.658-8.303-1.995-8.303-1.995s-0.598,7.56-6.35,5.709
					c-5.753-1.849-0.669-8.513-0.669-8.513s-7.914,2.346-7.393-4.275c0.521-6.622,7.89-3.266,7.89-3.266
					S102.736,262.601,109.271,260.944z"/>
				<path style="fill:#FFFFFF;" d="M116.267,271.08c1.364,2.084,0.779,4.879-1.306,6.244c-2.085,1.362-4.88,0.78-6.246-1.305
					c-1.364-2.085-0.78-4.882,1.306-6.246C112.105,268.409,114.901,268.992,116.267,271.08z"/>
			</g>
			<g>
				<path style="fill:#E0558A;" d="M170.645,157.256c3.364,1.91-0.285,4.893-0.285,4.893s4.575-0.554,3.87,3.009
					c-0.705,3.561-4.74,1.241-4.74,1.241s2.47,4.077-1.666,4.612c-4.135,0.533-2.646-4.126-2.646-4.126s-3.251,2.894-4.9-0.159
					c-1.647-3.052,3.107-3.792,3.107-3.792s-4.211-2.173-1.364-4.708c2.848-2.536,4.567,1.782,4.567,1.782
					S167.279,155.346,170.645,157.256z"/>
				<path style="fill:#FFFFFF;" d="M169.515,164.234c-0.264,1.406-1.617,2.331-3.022,2.068c-1.405-0.265-2.333-1.617-2.068-3.022
					c0.263-1.405,1.616-2.332,3.022-2.068C168.852,161.475,169.779,162.828,169.515,164.234z"/>
			</g>
			<g>
				<path style="fill:#E0558A;" d="M362.913,97.282c3.373-0.107,2.011,3.773,2.011,3.773s3.157-2.492,4.25,0.482
					c1.094,2.973-2.966,3.078-2.966,3.078s3.691,1.915,0.852,4.192c-2.837,2.275-3.845-1.871-3.845-1.871s-1.106,3.632-3.722,2.108
					c-2.613-1.525,0.592-4.235,0.592-4.235s-4.123,0.294-3.155-2.887c0.969-3.183,4.211-0.747,4.211-0.747
					S359.537,97.387,362.913,97.282z"/>
				<path style="fill:#FFFFFF;" d="M365.241,102.992c0.442,1.167-0.145,2.471-1.311,2.914c-1.166,0.441-2.47-0.145-2.912-1.311
					c-0.443-1.167,0.143-2.471,1.311-2.914C363.494,101.237,364.799,101.824,365.241,102.992z"/>
			</g>
			<g>
				<path style="fill:#E0558A;" d="M319.032,107.648c4.379,1.633,0.602,5.889,0.602,5.889s5.348-1.539,5.191,2.844
					c-0.157,4.383-5.415,2.391-5.415,2.391s3.728,4.388-1.1,5.818c-4.83,1.43-3.948-4.411-3.948-4.411s-3.321,4.074-5.873,0.752
					c-2.551-3.323,2.975-5.117,2.975-5.117s-5.438-1.783-2.529-5.353c2.909-3.571,5.787,1.248,5.787,1.248
					S314.652,106.016,319.032,107.648z"/>
				<path style="fill:#FFFFFF;" d="M319.024,116.186c-0.044,1.727-1.479,3.091-3.206,3.047c-1.728-0.045-3.091-1.479-3.047-3.207
					c0.044-1.727,1.479-3.091,3.207-3.046C317.704,113.022,319.069,114.458,319.024,116.186z"/>
			</g>
		</g>
		<g>
			<g>
				<g>
					<path style="fill:#EB9474;" d="M141.743,266.782c-3.256,14.376-9.365,64.546-38.973,130.921
						c-10.486,0.863-13.237,0.385-26.528,4.185c-8.84,2.527-24.952,3.407-23.898,7.995c5.876,1.023,52.029,4.662,57.582-0.458
						c5.554-5.119,41.143-52.542,60.213-141.489C157.56,267.425,150.511,267.139,141.743,266.782z"/>
					<path style="fill:#C27253;" d="M64.231,411.053c-0.797-0.267-1.636-0.648-2.219-1.273c-0.912-0.969,0.317-1.793,1.156-2.099
						c2.452-0.896,5.318-0.764,7.892-0.869c4.751-0.196,9.516-0.412,14.273-0.436c-4.328,0.706-8.68,1.154-13.057,1.409
						c-2.509,0.146-5.073,0.088-7.566,0.416c-0.466,0.056-2.685,0.198-2.421,1.056C62.532,410.046,63.577,410.635,64.231,411.053z"
						/>
				</g>
				<g>
					<path style="fill:#252938;" d="M280.78,94.257c10.568,7.763,18.361,25.813,6.647,51.108
						c-8.613,18.592-1.642,25.704,6.484,41.305c-16.767,8.101-95.673,14.444-110.161-33.104
						C193.935,128.4,240.421,64.616,280.78,94.257z"/>
					<g>
						<path style="fill:#3E455E;" d="M257.993,102.491c-1.844,1.453-4.091,2.496-6.37,3.04c-2.774,0.661-5.662,0.223-8.41,0.974
							c-2.625,0.718-4.422,2.305-5.813,4.584c-1.048,1.716-3.524,2.385-5.252,3.202c-5.85,2.761-11.416,6.047-16.21,10.43
							c-4.625,4.227-8.415,9.412-11.095,15.075c-2.364,4.998-3.795,10.234-4.94,15.621c1.486-10.011,4.826-19.524,11.45-27.342
							c3.468-4.092,7.635-7.57,12.208-10.365c2.518-1.539,5.15-2.864,7.827-4.103c1.285-0.595,2.595-1.147,3.849-1.806
							c0.461-0.243,0.953-0.491,1.266-0.917c0.675-0.92,1.601-2.505,2.803-3.296c1.843-1.38,4.249-2.072,6.539-2.088
							c2.435-0.018,4.806,0.026,7.166-0.679C254.765,104.296,256.485,103.537,257.993,102.491z"/>
						<path style="fill:#3E455E;" d="M268.185,106.603c-1.828,1.445-4.048,2.477-6.294,3.072c-3.128,0.83-6.075,0.207-9.23,0.055
							c-3.102-0.15-6.496,0.118-9.119,1.944c-1.203,0.838-1.92,2.047-2.945,3.059c-1.114,1.1-2.525,1.838-3.977,2.39
							c-2.811,1.068-5.805,1.553-8.588,2.714c-2.835,1.182-5.068,3.228-7.079,5.508c-4.277,4.851-7.494,10.676-9.93,16.642
							c-3.36,8.229-4.975,16.936-4.29,25.815c-1.538-11.96,1.568-23.976,7.423-34.422c1.566-2.792,3.345-5.486,5.385-7.957
							c1.957-2.372,4.203-4.708,7.019-6.043c2.848-1.363,5.959-1.895,8.941-2.868c2.447-0.797,4.189-2.018,5.8-3.993
							c3.256-3.995,9.449-3.766,14.035-3.117c2.621,0.371,5.05,0.44,7.617-0.327C264.788,108.526,266.616,107.715,268.185,106.603z"
							/>
						<path style="fill:#3E455E;" d="M228.144,120.992c-4.772,4.392-7.747,10.537-9.768,16.596
							c-2.168,6.498-2.458,13.298-2.601,20.077c-0.668-6.787-0.663-13.819,1.584-20.354
							C219.442,131.256,222.704,124.729,228.144,120.992z"/>
						<path style="fill:#3E455E;" d="M277.072,108.426c2.028-3.369,4.397-6.48,5.458-10.321
							C283.156,102.002,280.21,106.341,277.072,108.426z"/>
						<path style="fill:#3E455E;" d="M286.05,115.216c2.097,7.832,1,16.621-2.02,24.032c-1.789,4.39-3.648,8.665-4.899,13.252
							c-1.17,3.704-0.916,7.664-0.295,11.424c-0.985-3.727-1.339-7.379-0.55-11.197c0.92-4.446,2.6-8.624,4.329-12.806
							c1.847-4.469,3.157-8.878,3.626-13.715C286.592,122.584,286.586,118.824,286.05,115.216z"/>
						<path style="fill:#3E455E;" d="M277.534,135.931c-1.952,12.517-4.05,26.028,0,38.315c-3.026-5.842-3.797-12.589-3.386-19.104
							C274.44,148.722,275.441,142.03,277.534,135.931z"/>
					</g>
				</g>
				<g>
					<path style="fill:#3B4A75;" d="M131.218,317.058c7.649-16.116,27.934-19.102,51.851-4.819
						c23.916,14.283,37.722,23.869,58.962,36.476c24.284-14.459,66.874-40.424,95.908-47.233c29.033-6.811,61.292-1.24,68.087,15.01
						c6.54,15.642-3.458,40.079-123.578,83.921c-0.382,1.747-0.712,3.532-0.872,4.789c-6.317-1.022-11.144-1.817-14.924-2.502
						c-17.91-0.524-96.727,23.501-103.652-28.969C143.164,363.872,117.824,345.272,131.218,317.058z"/>
					<g>
						<path style="fill:#313E61;" d="M286.929,322.908c-4.398,18.399-15.85,32.497-28.337,36.534
							c-6.754-4.294-17.794-11.03-22.796-14.318C249.62,336.171,276.127,328.484,286.929,322.908z"/>
						<path style="fill:#313E61;" d="M406.025,316.49c-1.412-3.378-3.939-6.287-7.294-8.727
							c-13.282,4.846-31.999,13.449-41.158,20.142c26.733-4.493,40.435-4.638,49.782-1.717
							C407.883,322.607,407.24,319.397,406.025,316.49z"/>
						<path style="fill:#2E3A5C;" d="M217.452,391.387c-18.775-3.606-37.13-9.57-54.452-17.657
							c3.885,1.143,7.733,2.444,11.559,3.771c5.187,1.796,10.399,3.506,15.606,5.244
							C199.202,385.795,208.454,388.21,217.452,391.387z"/>
						<path style="fill:#2E3A5C;" d="M242.03,348.714c7.991,4.609,15.851,9.435,23.727,14.235c4.472,2.719,8.943,5.437,13.417,8.154
							c3.404,2.068,6.881,4.026,10.247,6.159c-8.505-3.674-16.533-8.239-24.489-12.961
							C257.135,359.384,249.253,354.467,242.03,348.714z"/>
						<path style="fill:#2E3A5C;" d="M270.632,367.34c-0.566,0-1.233-0.503-1.004-1.018c0.256-0.571,12.014-7.129,14.808-8.788
							c5.01-2.975,9.992-5.995,14.958-9.042c9.725-5.965,19.328-12.169,29.299-17.719c3.872-2.154,7.823-4.213,11.954-5.83
							c1.685-0.659,3.403-1.242,5.158-1.688c0.619-0.158,1.825-0.659,2.432-0.368c0.476,0.228,0.596,0.871,0.235,1.256
							c-0.31,0.331-0.953,0.337-1.374,0.431c-8.385,1.872-16.133,6.604-23.441,10.926c-8.541,5.05-16.923,10.364-25.388,15.54
							c-4.326,2.646-8.667,5.271-13.028,7.859C282.789,360.354,271.238,367.34,270.632,367.34z"/>
					</g>
				</g>
				<g>
					<path style="fill:#AD285A;" d="M198.826,181.953c-25.879,2.672-33.983,0.038-40.887,14.911
						c-6.903,14.872-14.43,40.295-22.613,72.712c12.964,5.107,29.649,6.444,36.215,4.61c1.726-4.893,2.764-10.092,4.306-15.183
						c1.967,12.678,10.265,23.387,15.436,58.243c14.963,10.168,39.585,25.196,50.748,31.467
						c13.471,3.125,22.77,11.997,44.898-25.806c-8.011-28.387-11.822-97.915-0.375-140.116c-10.146-0.411-17.426-0.993-28.928-3.321
						C247.195,182.484,223.577,192.98,198.826,181.953z"/>
					<g>
						<path style="fill:#8F214A;" d="M285.209,315.883c-2.189-10.205-3.928-23.626-4.923-38.439
							c-8.653-9.417-19.303-20.897-24.643-26.24C259.637,276.722,267.926,301.942,285.209,315.883z"/>
						<path style="fill:#8F214A;" d="M208.379,300.906c16.87,18.296,33.043,45.196,63.291,33.213
							C259.136,345.678,235.166,352.135,208.379,300.906z"/>
						<path style="fill:#8F214A;" d="M182.314,229.224c-1.857,6.707-2.375,12.935-6.468,29.78c0.534,3.441,2.031,8.766,4.157,14.179
							C180.442,260.176,182.978,247.275,182.314,229.224z"/>
						<path style="fill:#7A1C3F;" d="M175.846,259.004c2.313-14.139,5.421-28.231,9.281-42.026
							C182.823,231.115,179.706,245.208,175.846,259.004z"/>
						<path style="fill:#8F214A;" d="M233.961,254.198c-8.975,13.199-24.285,16.895-32.468,11.483
							C212.514,276.702,227.89,268.717,233.961,254.198z"/>
					</g>
				</g>
				<g>
					<g>
						<path style="fill:#252938;" d="M328.003,389.075c9.544-3.215,18.281-1.51,24.148,0.171
							c13.158,3.77,47.879,12.494,44.122,25.429c-5.392,18.55-29.759,10.292-55.627,3.696
							c-15.986-4.077-28.506-11.595-27.828-18.044C318.688,395.574,322.06,395.355,328.003,389.075z"/>
						<path style="fill:#EB9474;" d="M289.565,377.269c17.434,7.185,26.568,8.504,33.272,9.209
							c6.702,0.706,42.39,7.314,41.313,17.548c-1.077,10.23-14.649,13.796-44.672,4.214c-30.024-9.582-21.508-6.195-37.03-7.828
							C283.701,393.521,286.154,382.965,289.565,377.269z"/>
					</g>
					<g>
						<path style="fill:#252938;" d="M217.452,391.387c-3.669-0.148-10.803,1.278-16.61,3.157
							c-13.02,4.214-43.484,12.858-39.289,25.656c6.019,18.354,30.091,9.272,55.72,1.802c15.838-4.619,30.959-17.094,30.062-23.517
							C238.828,396.556,233.164,395.426,217.452,391.387z"/>
						<path style="fill:#EB9474;" d="M221.123,392.324c-3.326,0.575-29.679,9.078-27.828,16.139
							c2.607,9.951,19.542,11.75,44.79,2.69c12.17-4.367,13.109-6.296,28.567-8.455C252.485,399.627,236.834,396.11,221.123,392.324
							z"/>
					</g>
				</g>
				<g>
					<g>
						<path style="fill:#EB9474;" d="M252.332,160.358c-1.983,7.937-3.143,15.335,5.294,19.113
							c-1.983,12.833-24.369,62.864-58.8,2.482c9.961-1.301,14.193-4.005,17.306-10.179c3.114-6.173,5.73-14.18,9.478-28.917
							C231.096,148.806,244.697,156.611,252.332,160.358z"/>
						<path style="fill:#D17B59;" d="M221.947,156.311c0.86,12.5,18.697,32.11,29.063,10.965
							C246.883,164.695,227.939,158.013,221.947,156.311z"/>
						<path style="fill:#EB9474;" d="M277.072,108.426c-5.553,6.291-10.594,6.865-21.774,6.412
							c-14.085-0.571-12.241,8.46-23.606,6.472c0.998-7.764-3.176-13.433-7.845-8.57c-2.617,2.725-5.987,12.52,1.118,15.86
							c-6.376,13.971-6.966,32.473,6.721,38.936c14.352,6.776,32.307-4.562,44.301-23.098
							C280.509,133.33,283.649,121.276,277.072,108.426z"/>
						<g>
							<path style="fill:#C27253;" d="M249.504,144.454c0.458,2.274,2.614,4.49,5.098,3.576c-0.021,0.011-0.043,0.021-0.064,0.031
								c1.81-1.206,2.18-4.411,2.658-6.356c0.599-2.432,1.077-4.906,1.822-7.301c-0.108,2.034-0.338,4.073-0.648,6.086
								c-0.374,2.426-0.799,5.266-2.202,7.341c-0.762,1.126-1.896,1.493-3.231,1.202c-1.18-0.257-2.216-1.032-2.822-2.073
								C250.016,146.79,249.241,144.432,249.504,144.454z"/>
							<path style="fill:#AD664A;" d="M249.048,156.712c-3.703-0.138-7.511-3.34-7.055-7.232c0.602,1.552,1.25,2.912,2.491,4.071
								C245.852,154.828,247.444,155.769,249.048,156.712z"/>
							<path style="fill:#C27253;" d="M263.98,135.15c2.148-1.615,5.07,0.553,5.235,2.892c-0.772-0.679-1.399-1.522-2.331-2.005
								C266.019,135.509,264.975,135.279,263.98,135.15z"/>
							<path style="fill:#252938;" d="M264.382,131.401c3.112-2.671,8.241,0.421,7.806,4.313c-1.082-0.869-2-1.859-3.193-2.595
								C267.602,132.259,265.935,131.863,264.382,131.401z"/>
							<path style="fill:#252938;" d="M249.06,130.898c-0.738,1.183-0.683,2.55,0.124,3.053c0.807,0.504,2.059-0.047,2.797-1.23
								c0.737-1.182,0.683-2.548-0.124-3.053C251.052,129.167,249.798,129.716,249.06,130.898z"/>
							<path style="fill:#252938;" d="M263.196,139.379c-0.739,1.183-0.682,2.551,0.124,3.053c0.806,0.504,2.059-0.046,2.797-1.23
								c0.736-1.182,0.683-2.548-0.125-3.053C265.186,137.646,263.934,138.197,263.196,139.379z"/>
							<path style="fill:#C27253;" d="M255.632,129.122c-0.596-0.807-1.304-1.605-2.187-2.105c-0.878-0.579-1.918-0.714-2.886-1.061
								C252.697,124.957,255.973,126.457,255.632,129.122z"/>
							<path style="fill:#252938;" d="M258.713,126.948c-1.068-1.044-2.131-2.224-3.428-2.99c-1.195-0.933-2.766-1.176-4.137-1.73
								C254.334,119.95,259.535,122.935,258.713,126.948z"/>
							<path style="fill:#D17B59;" d="M229.559,121.768c-0.18-4.234-1.531-7.812-3.361-6.125c-1.83,1.687-3.067,8.318,0.561,10.056
								C226.865,123.067,227.428,122.225,229.559,121.768z"/>
						</g>
					</g>
					<path style="fill:#FFFFFF;" d="M227.78,129.94c-0.061,1.482-1.311,2.635-2.793,2.575c-1.483-0.06-2.636-1.311-2.575-2.792
						c0.06-1.482,1.311-2.636,2.794-2.575C226.687,127.207,227.84,128.458,227.78,129.94z"/>
				</g>
			</g>
			<g>
				<g>
					<path style="fill:#E0558A;" d="M451.83,231.987c-2.242,55.26-48.854,98.239-104.114,95.998
						c-55.26-2.241-98.236-48.855-95.995-104.116c2.242-55.258,48.855-98.237,104.114-95.996
						C411.095,130.115,454.071,176.729,451.83,231.987z"/>
					<path style="fill:#FFE699;" d="M444.881,231.705c-2.086,51.423-45.461,91.417-96.884,89.331
						c-51.422-2.086-91.413-45.462-89.327-96.886c2.086-51.42,45.461-91.415,96.884-89.329
						C406.975,136.907,446.967,180.284,444.881,231.705z"/>
					<path style="fill:#FFF8E0;" d="M409.97,230.288c-1.305,32.142-28.415,57.14-60.556,55.836
						c-32.14-1.304-57.137-28.415-55.833-60.558c1.305-32.14,28.415-57.137,60.556-55.834
						C386.277,171.037,411.272,198.149,409.97,230.288z"/>
				</g>
				<g>
					<g>
						<path style="fill:#748AD4;" d="M377.213,196.44c6.227,0.01,14.807,3.938,13.438,17.57c-1.013,1.01-0.844,0.673-2.193,2.016
							c0.011-5.554,2.383-15.351-9.902-16.783C377.346,198.029,377.213,196.44,377.213,196.44z"/>
						<path style="fill:#748AD4;" d="M326.378,196.356c-6.227-0.01-14.818,3.89-13.495,17.526c1.01,1.012,0.841,0.674,2.186,2.023
							c0.011-5.555-2.331-15.36,9.96-16.751C326.24,197.945,326.378,196.356,326.378,196.356z"/>
					</g>
					<g>
						<path style="fill:#F0B65B;" d="M394.861,211.998c5.722,0.008,12.271,8.942,6.367,16.675
							c-5.902,7.734-15.411,5.421-17.669-3.396C381.303,216.459,387.623,211.985,394.861,211.998z"/>
						<path style="fill:#F0B65B;" d="M308.681,211.856c-5.727-0.01-12.306,8.902-6.427,16.654
							c5.882,7.752,15.396,5.473,17.681-3.339C322.222,216.361,315.918,211.867,308.681,211.856z"/>
					</g>
					<g>
						<path style="fill:#A1B0E0;" d="M411.379,197.708c-5.279-13.411-27.625-13.611-37.853-10.235
							c-6.378-6.395-15.093-9.201-21.701-9.211c-6.604-0.011-15.331,2.766-21.732,9.142c-10.213-3.411-32.562-3.283-37.883,10.111
							c-7.105,17.866,4.028,28.951,11.998,33.095c0.005-3.106-2.758-4.92-0.106-4.441c4.303,0.773,2.16-1.439,0.456-2.389
							c-1.4-0.781-0.434-2.367,1.58-2.206c4.048,0.321,1.292-1.826-0.625-2.527c-1.897-0.692-11.795-5.214-8.766-18.319
							c2.654-11.487,19.941-11.598,29.603-8.721c-2.961,4.529-4.863,10.278-4.874,17.407c-0.022,13.069,6.702,18.634,15.106,25.044
							c7.572,5.775,2.6,7.116-0.018,11.404c-2.976,4.877-0.691,10.858,4.963,15.263c6.195,4.833,2.063,11.676,2.043,24.471
							c5.678,0.926,12.244,0.673,16.158,0.041c0.021-12.797-4.089-19.666,2.123-24.477c5.667-4.388,7.971-10.361,5.012-15.249
							c-2.603-4.296-7.572-5.654,0.018-11.402c8.428-6.385,15.17-11.929,15.19-24.998c0.014-7.128-1.871-12.883-4.816-17.421
							c9.674-2.846,26.958-2.679,29.577,8.818c2.983,13.115-6.928,17.604-8.825,18.29c-1.926,0.695-4.684,2.833-0.638,2.523
							c2.014-0.153,2.977,1.436,1.573,2.212c-1.704,0.944-3.855,3.15,0.451,2.389c2.651-0.469-0.117,1.336-0.123,4.441
							C407.255,226.647,418.423,215.6,411.379,197.708z"/>
						<path style="fill:#748AD4;" d="M366.93,205.033c-1.636-8.097-27.552-9.333-30.297-0.05c-2.395,8.086,5.45,10.884,7.551,12.991
							c2.102,2.108,4.914,9.633,1.833,12.704c-3.081,3.07,1.186,5.787,3.166,7.845c3.103,3.225-0.493,5.38-2.854,7.733
							c-2.361,2.354-4.052,6.729,0.654,11.45c1.384,1.389,3.768,4.343,3.719,6.84c-0.103,5.337-2.427,17.388-1.585,21.6
							c1.105,0.057,3.629,0.057,5.194,0.003c0.854-4.207-3.092-18.718-2.029-21.414c0.482-1.226,2.738-5.628,4.126-7.012
							c4.721-4.705,3.045-9.086,0.691-11.449c-2.351-2.36-6.098-3.931-3.046-7.482c1.86-2.167,6.48-5.014,3.409-8.095
							c-3.071-3.081-0.235-10.597,1.874-12.698C361.442,215.898,368.567,213.132,366.93,205.033z"/>
						<path style="fill:#748AD4;" d="M375.695,213.158c-3.404,7.291-4.518,10.647-11.703,14.701
							C368.669,227.019,373.257,224.743,375.695,213.158z"/>
						<path style="fill:#748AD4;" d="M327.523,212.22c3.119,7.417,4.101,10.815,11.122,15.146
							C334.006,226.343,329.511,223.891,327.523,212.22z"/>
						<path style="fill:#D4D9EB;" d="M337.347,188.314c0,0,10.247-7.722,29.379-1.135
							C360.755,182.711,345.342,180.625,337.347,188.314z"/>
						<path style="fill:#D4D9EB;" d="M391.254,187.966c0,0,22.41,1.757,20.107,24.352
							C414.408,199.367,407.478,188.282,391.254,187.966z"/>
						<path style="fill:#D4D9EB;" d="M315.062,186.482c0,0-22.463,0.884-21.04,23.551
							C291.481,196.973,298.839,186.167,315.062,186.482z"/>
					</g>
				</g>
				<g>
					<path style="fill:#FFF8E0;" d="M351.828,305.947c-1.052,0-2.11-0.021-3.171-0.063c-0.583-0.023-1.036-0.514-1.014-1.097
						c0.021-0.569,0.49-1.015,1.054-1.015c0.015,0,0.029,0,0.042,0.001c2.111,0.082,4.202,0.08,6.276-0.005
						c0.552-0.032,1.075,0.428,1.099,1.012c0.023,0.582-0.429,1.074-1.012,1.098C354.016,305.925,352.924,305.947,351.828,305.947z
						 M342.362,305.373c-0.042,0-0.086-0.002-0.129-0.008c-2.129-0.26-4.27-0.611-6.361-1.044c-0.57-0.118-0.937-0.678-0.819-1.249
						c0.117-0.57,0.677-0.935,1.249-0.819c2.034,0.422,4.116,0.763,6.188,1.017c0.578,0.07,0.991,0.597,0.92,1.176
						C343.344,304.98,342.888,305.373,342.362,305.373z M361.395,305.354c-0.524,0-0.98-0.391-1.047-0.925
						c-0.071-0.578,0.339-1.106,0.917-1.179c2.07-0.258,4.151-0.607,6.185-1.034c0.568-0.119,1.131,0.245,1.251,0.815
						c0.12,0.57-0.245,1.132-0.815,1.251c-2.092,0.44-4.229,0.798-6.358,1.064C361.483,305.352,361.438,305.354,361.395,305.354z
						 M329.918,302.797c-0.1,0-0.199-0.013-0.299-0.043c-2.054-0.606-4.106-1.307-6.103-2.081c-0.544-0.211-0.813-0.823-0.602-1.367
						c0.213-0.544,0.825-0.811,1.367-0.602c1.941,0.755,3.938,1.435,5.936,2.024c0.559,0.165,0.879,0.752,0.714,1.312
						C330.795,302.5,330.375,302.797,329.918,302.797z M373.831,302.739c-0.455,0-0.875-0.296-1.012-0.753
						c-0.167-0.56,0.15-1.147,0.709-1.314c1.998-0.597,3.991-1.284,5.925-2.043c0.542-0.212,1.155,0.052,1.369,0.597
						c0.213,0.542-0.054,1.156-0.598,1.368c-1.989,0.78-4.038,1.488-6.092,2.102C374.032,302.726,373.931,302.739,373.831,302.739z
						 M318.068,298.194c-0.155,0-0.313-0.034-0.462-0.107c-1.926-0.939-3.834-1.97-5.676-3.065
						c-0.501-0.298-0.665-0.946-0.367-1.447c0.3-0.5,0.945-0.667,1.448-0.367c1.791,1.065,3.647,2.069,5.521,2.983
						c0.523,0.256,0.741,0.889,0.485,1.412C318.835,297.977,318.459,298.194,318.068,298.194z M385.656,298.103
						c-0.39,0-0.765-0.217-0.948-0.591c-0.257-0.522-0.041-1.156,0.482-1.412c1.866-0.917,3.72-1.925,5.509-2.996
						c0.501-0.297,1.148-0.136,1.448,0.364c0.299,0.5,0.136,1.148-0.364,1.448c-1.838,1.101-3.743,2.136-5.662,3.078
						C385.971,298.067,385.812,298.103,385.656,298.103z M307.143,291.694c-0.213,0-0.426-0.064-0.612-0.196
						c-1.746-1.245-3.459-2.576-5.091-3.957c-0.445-0.376-0.501-1.043-0.125-1.488c0.378-0.446,1.044-0.502,1.488-0.124
						c1.589,1.343,3.255,2.638,4.954,3.85c0.475,0.34,0.585,0.998,0.247,1.474C307.797,291.541,307.473,291.694,307.143,291.694z
						 M396.56,291.579c-0.329,0-0.652-0.153-0.858-0.44c-0.341-0.475-0.232-1.135,0.242-1.474c1.695-1.215,3.359-2.514,4.945-3.86
						c0.446-0.378,1.111-0.322,1.488,0.121c0.378,0.446,0.323,1.112-0.121,1.489c-1.632,1.384-3.341,2.718-5.082,3.966
						C396.987,291.515,396.772,291.579,396.56,291.579z M297.437,283.487c-0.27,0-0.539-0.103-0.745-0.308
						c-1.517-1.513-2.987-3.107-4.373-4.737c-0.378-0.444-0.324-1.11,0.12-1.488c0.442-0.378,1.11-0.325,1.488,0.121
						c1.349,1.586,2.781,3.137,4.255,4.609c0.414,0.412,0.414,1.08,0.003,1.493C297.978,283.385,297.708,283.487,297.437,283.487z
						 M406.247,283.353c-0.27,0-0.54-0.104-0.746-0.31c-0.413-0.411-0.413-1.08,0-1.493c1.467-1.469,2.895-3.022,4.246-4.617
						c0.377-0.444,1.041-0.499,1.488-0.124c0.444,0.378,0.5,1.044,0.124,1.489c-1.388,1.639-2.857,3.234-4.366,4.745
						C406.787,283.249,406.518,283.353,406.247,283.353z M289.208,273.804c-0.329,0-0.652-0.153-0.858-0.44
						c-1.25-1.743-2.439-3.556-3.538-5.389c-0.3-0.5-0.137-1.148,0.363-1.448c0.501-0.301,1.149-0.139,1.447,0.363
						c1.069,1.783,2.228,3.547,3.443,5.242c0.34,0.475,0.23,1.135-0.243,1.474C289.636,273.739,289.421,273.804,289.208,273.804z
						 M414.459,273.65c-0.213,0-0.427-0.063-0.612-0.196c-0.475-0.339-0.585-0.998-0.246-1.473c1.211-1.696,2.366-3.464,3.431-5.253
						c0.299-0.501,0.948-0.666,1.448-0.367c0.501,0.3,0.665,0.947,0.367,1.448c-1.097,1.84-2.283,3.655-3.528,5.398
						C415.113,273.497,414.789,273.65,414.459,273.65z M282.677,262.904c-0.39,0-0.765-0.217-0.948-0.59
						c-0.944-1.92-1.82-3.902-2.602-5.896c-0.214-0.543,0.054-1.155,0.597-1.368c0.542-0.212,1.156,0.053,1.368,0.597
						c0.762,1.937,1.613,3.868,2.533,5.735c0.257,0.522,0.042,1.155-0.481,1.413C282.992,262.869,282.834,262.904,282.677,262.904z
						 M420.964,262.729c-0.155,0-0.313-0.034-0.463-0.107c-0.524-0.256-0.74-0.888-0.484-1.413c0.912-1.867,1.759-3.802,2.517-5.747
						c0.212-0.544,0.826-0.813,1.366-0.602c0.544,0.212,0.813,0.823,0.602,1.366c-0.778,2.002-1.649,3.99-2.587,5.911
						C421.73,262.512,421.355,262.729,420.964,262.729z M278.034,251.08c-0.455,0-0.875-0.295-1.012-0.753
						c-0.615-2.056-1.15-4.158-1.591-6.248c-0.121-0.571,0.245-1.131,0.815-1.251c0.569-0.12,1.13,0.245,1.251,0.816
						c0.428,2.032,0.948,4.077,1.548,6.077c0.167,0.559-0.149,1.147-0.709,1.315C278.236,251.066,278.134,251.08,278.034,251.08z
						 M425.573,250.881c-0.099,0-0.2-0.015-0.3-0.044c-0.559-0.166-0.878-0.754-0.713-1.313c0.591-1.992,1.105-4.038,1.528-6.081
						c0.119-0.572,0.677-0.938,1.249-0.819c0.571,0.118,0.936,0.677,0.819,1.248c-0.436,2.101-0.964,4.205-1.571,6.253
						C426.449,250.585,426.029,250.881,425.573,250.881z M275.411,238.646c-0.525,0-0.979-0.39-1.047-0.924
						c-0.266-2.12-0.446-4.281-0.536-6.423c-0.024-0.583,0.428-1.075,1.011-1.099c0.593-0.005,1.075,0.427,1.099,1.01
						c0.088,2.085,0.264,4.188,0.522,6.249c0.072,0.579-0.337,1.106-0.916,1.179C275.498,238.644,275.454,238.646,275.411,238.646z
						 M428.158,238.44c-0.042,0-0.086-0.002-0.13-0.008c-0.578-0.071-0.99-0.598-0.919-1.177c0.253-2.064,0.424-4.167,0.509-6.251
						l0.006-0.166c0.02-0.583,0.563-1.026,1.093-1.017c0.583,0.021,1.039,0.511,1.017,1.093l-0.006,0.171
						c-0.087,2.145-0.262,4.306-0.522,6.427C429.14,238.047,428.685,238.44,428.158,238.44z M274.874,225.906
						c-0.013,0-0.026,0-0.038-0.001c-0.582-0.023-1.038-0.469-1.016-1.05l1.055,0.038l-1.052-0.123
						c0.085-2.125,0.258-4.257,0.511-6.342c0.071-0.578,0.598-0.991,1.177-0.92c0.578,0.07,0.991,0.597,0.921,1.175
						c-0.247,2.03-0.416,4.105-0.499,6.167C275.91,225.419,275.438,225.906,274.874,225.906z M428.662,225.571
						c-0.561,0-1.028-0.443-1.054-1.01c-0.091-2.089-0.269-4.191-0.528-6.249c-0.073-0.579,0.337-1.107,0.915-1.18
						c0.583-0.075,1.107,0.338,1.18,0.915c0.268,2.115,0.45,4.275,0.544,6.422c0.025,0.583-0.428,1.076-1.01,1.101
						C428.693,225.57,428.678,225.571,428.662,225.571z M276.411,213.336c-0.071,0-0.142-0.007-0.215-0.022
						c-0.571-0.118-0.939-0.676-0.82-1.248c0.433-2.097,0.959-4.201,1.564-6.253c0.163-0.559,0.747-0.88,1.312-0.714
						c0.558,0.165,0.878,0.752,0.713,1.311c-0.589,1.996-1.1,4.043-1.521,6.083C277.341,212.993,276.902,213.336,276.411,213.336z
						 M427.068,212.965c-0.488,0-0.927-0.34-1.032-0.837c-0.431-2.036-0.954-4.08-1.555-6.075c-0.168-0.559,0.148-1.147,0.707-1.315
						c0.56-0.171,1.147,0.148,1.315,0.707c0.617,2.051,1.155,4.153,1.599,6.246c0.121,0.57-0.244,1.131-0.814,1.252
						C427.215,212.958,427.141,212.965,427.068,212.965z M280.002,201.148c-0.126,0-0.256-0.023-0.381-0.072
						c-0.545-0.211-0.814-0.822-0.604-1.366c0.775-1.999,1.645-3.988,2.581-5.912c0.257-0.523,0.888-0.744,1.411-0.487
						c0.525,0.255,0.743,0.887,0.488,1.412c-0.912,1.872-1.757,3.806-2.511,5.751C280.824,200.892,280.425,201.148,280.002,201.148z
						 M423.41,200.8c-0.421,0-0.818-0.253-0.983-0.669c-0.765-1.939-1.618-3.867-2.538-5.732c-0.259-0.523-0.043-1.156,0.479-1.414
						c0.526-0.257,1.157-0.043,1.414,0.479c0.946,1.917,1.824,3.9,2.609,5.893c0.214,0.542-0.053,1.156-0.595,1.369
						C423.67,200.776,423.539,200.8,423.41,200.8z M285.567,189.716c-0.184,0-0.369-0.047-0.538-0.148
						c-0.501-0.298-0.666-0.946-0.368-1.447c1.094-1.842,2.278-3.66,3.522-5.404c0.339-0.474,0.998-0.584,1.472-0.247
						c0.476,0.339,0.586,0.998,0.248,1.473c-1.21,1.696-2.361,3.464-3.427,5.256C286.279,189.532,285.927,189.716,285.567,189.716z
						 M417.791,189.406c-0.358,0-0.708-0.183-0.906-0.513c-1.069-1.781-2.23-3.544-3.447-5.238c-0.342-0.474-0.233-1.133,0.24-1.474
						c0.475-0.34,1.134-0.232,1.473,0.241c1.253,1.742,2.445,3.553,3.545,5.384c0.301,0.5,0.139,1.148-0.361,1.449
						C418.164,189.358,417.976,189.406,417.791,189.406z M292.941,179.362c-0.24,0-0.481-0.082-0.68-0.249
						c-0.445-0.376-0.502-1.042-0.125-1.488c1.381-1.635,2.847-3.233,4.359-4.751c0.41-0.412,1.078-0.415,1.493-0.002
						c0.412,0.412,0.414,1.081,0.002,1.494c-1.472,1.477-2.898,3.031-4.242,4.622C293.541,179.235,293.243,179.362,292.941,179.362z
						 M410.371,179.089c-0.298,0-0.595-0.126-0.804-0.371c-1.348-1.584-2.781-3.133-4.26-4.605c-0.413-0.412-0.415-1.08-0.004-1.494
						c0.409-0.413,1.079-0.415,1.493-0.003c1.521,1.513,2.994,3.105,4.379,4.732c0.377,0.444,0.324,1.11-0.119,1.488
						C410.857,179.006,410.614,179.089,410.371,179.089z M301.914,170.358c-0.299,0-0.596-0.126-0.805-0.372
						c-0.377-0.444-0.324-1.11,0.119-1.489c1.627-1.384,3.335-2.72,5.078-3.972c0.472-0.339,1.134-0.231,1.473,0.241
						c0.341,0.474,0.232,1.133-0.242,1.474c-1.695,1.218-3.357,2.519-4.939,3.866C302.399,170.276,302.156,170.358,301.914,170.358z
						 M401.362,170.122c-0.24,0-0.481-0.081-0.679-0.249c-1.596-1.345-3.264-2.639-4.959-3.845
						c-0.475-0.338-0.586-0.997-0.248-1.473c0.337-0.476,0.996-0.587,1.473-0.249c1.742,1.24,3.455,2.569,5.095,3.951
						c0.445,0.376,0.503,1.042,0.127,1.488C401.962,169.995,401.664,170.122,401.362,170.122z M312.236,162.946
						c-0.359,0-0.709-0.183-0.906-0.513c-0.301-0.5-0.139-1.148,0.361-1.449c1.837-1.102,3.74-2.14,5.659-3.085
						c0.524-0.259,1.155-0.043,1.415,0.48c0.258,0.523,0.042,1.156-0.48,1.414c-1.868,0.92-3.721,1.93-5.507,3.001
						C312.608,162.897,312.421,162.946,312.236,162.946z M391.004,162.753c-0.184,0-0.369-0.047-0.538-0.148
						c-1.793-1.065-3.651-2.066-5.523-2.976c-0.524-0.255-0.742-0.887-0.488-1.412c0.255-0.523,0.887-0.743,1.412-0.487
						c1.924,0.936,3.835,1.965,5.678,3.059c0.502,0.297,0.667,0.946,0.369,1.447C391.716,162.569,391.365,162.753,391.004,162.753z
						 M323.632,157.332c-0.421,0-0.818-0.254-0.982-0.67c-0.214-0.542,0.054-1.155,0.596-1.369c1.995-0.784,4.044-1.493,6.09-2.107
						c0.559-0.167,1.147,0.15,1.314,0.708c0.167,0.559-0.149,1.147-0.708,1.315c-1.989,0.597-3.982,1.287-5.923,2.05
						C323.892,157.309,323.761,157.332,323.632,157.332z M379.571,157.195c-0.127,0-0.256-0.023-0.382-0.072
						c-1.939-0.752-3.937-1.431-5.937-2.018c-0.559-0.165-0.879-0.752-0.714-1.311c0.165-0.558,0.746-0.88,1.31-0.715
						c2.055,0.604,4.108,1.303,6.104,2.075c0.544,0.211,0.814,0.822,0.604,1.366C380.394,156.938,379.994,157.195,379.571,157.195z
						 M335.798,153.68c-0.488,0-0.927-0.34-1.032-0.837c-0.12-0.571,0.245-1.131,0.814-1.252c2.097-0.443,4.235-0.803,6.357-1.07
						c0.594-0.072,1.106,0.338,1.18,0.917c0.073,0.578-0.337,1.107-0.916,1.179c-2.065,0.259-4.145,0.609-6.184,1.041
						C335.943,153.672,335.87,153.68,335.798,153.68z M367.381,153.608c-0.069,0-0.142-0.007-0.213-0.021
						c-2.035-0.419-4.118-0.759-6.19-1.01c-0.58-0.07-0.992-0.596-0.922-1.175c0.069-0.579,0.591-0.989,1.175-0.921
						c2.13,0.258,4.271,0.607,6.361,1.038c0.571,0.117,0.939,0.676,0.821,1.247C368.311,153.265,367.872,153.608,367.381,153.608z
						 M348.404,152.091c-0.561,0-1.029-0.444-1.054-1.011c-0.024-0.582,0.427-1.075,1.01-1.1c2.139-0.09,4.291-0.095,6.447-0.011
						c0.583,0.023,1.036,0.513,1.014,1.096c-0.022,0.584-0.523,1.047-1.096,1.014c-2.101-0.083-4.196-0.078-6.274,0.011
						C348.435,152.091,348.42,152.091,348.404,152.091z"/>
					<g>
						<path style="fill:#D9A452;" d="M353.49,162.211c0,0.947-0.767,1.714-1.714,1.714l0,0c-0.948,0-1.716-0.767-1.716-1.714
							v-19.555c0-0.947,0.768-1.715,1.716-1.715l0,0c0.946,0,1.714,0.768,1.714,1.715V162.211z"/>
						<path style="fill:#D9A452;" d="M353.49,313.202c0,0.946-0.767,1.714-1.714,1.714l0,0c-0.948,0-1.716-0.768-1.716-1.714
							v-19.556c0-0.947,0.768-1.714,1.716-1.714l0,0c0.946,0,1.714,0.767,1.714,1.714V313.202z"/>
						<path style="fill:#D9A452;" d="M286.06,226.212c0.946,0,1.713,0.768,1.713,1.715l0,0c0,0.947-0.767,1.716-1.713,1.716h-19.557
							c-0.946,0-1.714-0.769-1.714-1.716l0,0c0-0.947,0.767-1.715,1.714-1.715H286.06z"/>
						<path style="fill:#D9A452;" d="M437.048,226.212c0.946,0,1.714,0.768,1.714,1.715l0,0c0,0.947-0.768,1.716-1.714,1.716
							h-19.557c-0.946,0-1.714-0.769-1.714-1.716l0,0c0-0.947,0.768-1.715,1.714-1.715H437.048z"/>
					</g>
				</g>
			</g>
			<g>
				<path style="fill:#EB9474;" d="M441.569,183.56c3.488-6.355,6.325-10.594,9.617-8.622c3.292,1.972-1.436,8.981-2.472,11.851
					c5.854,2.995,6.857,4.722,6.789,6.404c-0.068,1.682,3.171,4.878,2.239,8.979c-0.932,4.099,0.767,5.546-0.265,9.336
					c-1.032,3.788,0.483,5.954-4.85,10.872c-5.335,4.919-12.645,5.885-9.688,0.949c-3.143,1.728-9.161,3.059-6.503-2.102
					c-3.268,1.247-5.316-1.135-0.956-6.628c-5.088,1.104-5.98-2.793,10.422-20.911C444.513,190.085,443.287,186.952,441.569,183.56z
					"/>
				<g>
					<path style="fill:#C27253;" d="M435.482,214.598c2.441-2.844,4.833-5.737,7.308-8.553c2.298-2.616,4.398-5.398,6.786-7.937
						C445.778,204.134,441.147,210.203,435.482,214.598z"/>
					<path style="fill:#C27253;" d="M436.438,221.226c2.683-2.763,5.403-5.488,8.058-8.278c2.479-2.605,4.869-5.3,7.376-7.875
						C447.801,211.22,442.491,216.977,436.438,221.226z"/>
					<path style="fill:#C27253;" d="M442.941,223.328c1.905-1.72,3.875-3.426,5.605-5.326c1.734-1.913,3.367-3.88,5.042-5.845
						C451.378,216.781,447.589,221.033,442.941,223.328z"/>
				</g>
			</g>
		</g>
	</g>
</g>
</svg>
