<?xml version="1.0" encoding="utf-8"?>
<!-- Generator: Adobe Illustrator 27.5.0, SVG Export Plug-In . SVG Version: 6.00 Build 0)  -->
<svg version="1.1" xmlns="http://www.w3.org/2000/svg" xmlns:xlink="http://www.w3.org/1999/xlink" x="0px" y="0px"
	 viewBox="0 0 3710 3710" style="enable-background:new 0 0 3710 3710;" xml:space="preserve">
<g id="Background">
	<g>
		<g>
			<rect style="fill:#FFFFFF;" width="3710" height="3710"/>
		</g>
	</g>
</g>
<g id="Illustration">
	<g>
		<path style="fill:#F4F7FA;" d="M1714.955,467.664c0,0-948.367,57.574-925.001,593.738
			c6.699,153.715-31.584,307.562-144.338,422.26c-70.791,72.009-165.273,124.486-215.004,213.97
			c-98.297,176.882-33.579,393.189,20.63,570.546c53.884,176.291,89.098,361.629,194.196,518.541
			c57.46,85.789,135.041,169.629,220.089,231.516c117.987,85.855,269.501,122.494,416.543,124.74
			c844.382,12.897,1777.102-46.664,1871.553-1108.13C3248.076,973.379,2619.892,329.469,1714.955,467.664z"/>
		<g>
			<linearGradient id="SVGID_1_" gradientUnits="userSpaceOnUse" x1="898.0744" y1="981.8039" x2="470.1472" y2="1983.1519">
				<stop  offset="0" style="stop-color:#AB316D"/>
				<stop  offset="1" style="stop-color:#792D3D"/>
			</linearGradient>
			<path style="fill:url(#SVGID_1_);" d="M997.516,1353.409c21.837,11.087,49.271,0.907,61.277-22.737
				c12.005-23.645,4.034-51.801-17.802-62.887c-1.132-0.575-2.286-1.058-3.445-1.519c4.057-13.084,7.116-26.27,9.167-39.461
				c1.252-0.004,2.508-0.024,3.784-0.139c24.914-2.22,44.688-25.113,44.165-51.135c-0.521-26.021-21.141-45.315-46.054-43.094
				c-1.303,0.117-2.581,0.322-3.853,0.548c-2.602-12.895-6.168-25.491-10.667-37.683c1.146-0.67,2.287-1.364,3.4-2.144
				c21.315-14.933,28.129-44.406,15.221-65.831c-12.908-21.423-40.652-26.685-61.967-11.753c-1.092,0.766-2.119,1.593-3.135,2.431
				c-8.419-9.306-17.653-17.931-27.643-25.802c0.703-1.152,1.39-2.319,2.012-3.543c12.006-23.645,27.693-49.474,5.686-60.217
				c-50.911-24.853-72.758-3.578-84.763,20.067c-0.622,1.225-1.157,2.468-1.673,3.715c-12.25-3.42-24.662-5.785-37.143-7.091
				c0.078-1.315,0.138-2.631,0.112-3.965c-0.522-26.02,7.199-40.101-17.809-40.588c-54.533-1.06-72.933,22.61-72.411,48.629
				c0.027,1.361,0.141,2.69,0.276,4.011c-12.497,3.563-24.771,8.117-36.717,13.625c-0.568-1.16-1.157-2.313-1.831-3.434
				c-12.908-21.424-40.653-26.686-61.968-11.752c-21.315,14.935-28.129,44.408-15.221,65.831c0.661,1.098,1.385,2.125,2.121,3.138
				c-9.44,9.44-18.279,19.69-26.448,30.687c-1.056-0.663-2.127-1.31-3.258-1.885c-21.836-11.087-49.271-0.907-61.276,22.738
				c-12.005,23.644-4.035,51.8,17.802,62.887c1.132,0.575,2.287,1.057,3.444,1.519c-4.057,13.084-7.116,26.269-9.167,39.46
				c-1.252,0.004-2.508,0.024-3.784,0.137c-24.914,2.221-44.687,25.115-44.166,51.136c0.521,26.02,21.142,45.313,46.056,43.093
				c1.301-0.116,2.581-0.321,3.853-0.547c2.602,12.895,6.167,25.492,10.666,37.683c-1.146,0.67-2.286,1.364-3.399,2.144
				c-21.315,14.932-28.13,44.407-15.221,65.831c12.909,21.423,55.645,31.377,76.96,16.444c1.092-0.765-12.873-6.284-11.858-7.123
				c8.419,9.306,17.653,17.931,27.643,25.802c-0.702,1.152-1.39,2.319-2.012,3.543c-12.005,23.645-4.035,51.801,17.802,62.887
				c21.836,11.087,49.271,0.908,61.275-22.737c0.621-1.224,1.158-2.469,1.673-3.715c12.25,3.42,24.662,5.785,37.143,7.09
				c-0.077,1.314-0.138,2.631-0.112,3.965c0.521,26.02,21.141,45.314,46.055,43.093c24.914-2.221,44.687-25.116,44.165-51.135
				c-0.027-1.36-0.14-2.689-0.276-4.01c12.497-3.563,24.771-8.117,36.717-13.626c0.567,1.161,1.157,2.314,1.832,3.433
				c12.908,21.424,40.651,26.687,61.967,11.753c21.315-14.934,28.13-44.407,15.221-65.832c-0.662-1.096-1.387-2.123-2.122-3.135
				c9.44-9.44,18.279-19.691,26.448-30.687C995.313,1352.188,996.385,1352.834,997.516,1353.409z M725.299,1356.863
				c-79.284-40.254-108.223-142.48-64.635-228.329c43.587-85.85,143.194-122.811,222.479-82.556
				c79.284,40.255,108.224,142.481,64.635,228.33C904.19,1360.156,804.584,1397.118,725.299,1356.863z"/>
			
				<linearGradient id="SVGID_00000088828252527817281170000016786048827411636369_" gradientUnits="userSpaceOnUse" x1="1045.4858" y1="1044.8005" x2="617.559" y2="2046.1475">
				<stop  offset="0" style="stop-color:#AB316D"/>
				<stop  offset="1" style="stop-color:#792D3D"/>
			</linearGradient>
			<path style="fill:url(#SVGID_00000088828252527817281170000016786048827411636369_);" d="M1050.496,1226.666
				c24.914-2.221,44.688-25.115,44.165-51.135c-0.521-26.02-21.141-45.315-46.054-43.094c-1.303,0.116-2.581,0.322-3.853,0.547
				c-2.602-12.895-6.168-25.49-10.667-37.682c1.146-0.67,2.287-1.364,3.4-2.145c21.315-14.932,47.685-51.014,32.647-71.001
				c-28.541-37.933-58.078-21.514-79.393-6.582c-1.092,0.766-2.119,1.592-3.135,2.431c-8.419-9.307-17.653-17.93-27.643-25.802
				c0.703-1.152,1.39-2.318,2.012-3.543c6.534-12.868,7.111-27.056,2.796-39.118c-20.588,36.235-40.899,72.623-60.845,109.208
				c63.251,46.349,83.388,137.687,43.852,215.557c-33.503,65.988-100.1,103.04-165.128,98.397
				c-2.901,7.523-5.749,15.086-8.855,22.537c-8.43,20.218-18.006,40.02-27.594,59.796c6.03,1.137,12.087,2.032,18.16,2.668
				c-0.078,1.315-0.139,2.632-0.112,3.965c0.521,26.021,16.32,48.128,61.472,45.734c24.977-1.325,29.27-27.755,28.747-53.776
				c-0.027-1.359-0.14-2.69-0.275-4.009c12.497-3.563,24.77-8.118,36.717-13.626c0.567,1.161,1.157,2.314,1.832,3.433
				c12.908,21.425,57.69,30.528,79.004,15.593c21.316-14.934,11.092-48.247-1.816-69.672c-0.662-1.098-1.387-2.124-2.122-3.137
				c9.44-9.439,18.279-19.69,26.448-30.686c1.056,0.664,2.128,1.311,3.259,1.884c21.837,11.088,49.271,0.907,61.277-22.738
				c12.005-23.644,4.034-51.801-17.802-62.887c-1.132-0.575-2.286-1.057-3.445-1.518c4.057-13.084,7.116-26.271,9.167-39.46
				C1047.964,1226.801,1049.22,1226.78,1050.496,1226.666z"/>
			
				<linearGradient id="SVGID_00000094582790403892232700000001354880431906759336_" gradientUnits="userSpaceOnUse" x1="1056.4442" y1="1493.8231" x2="221.3055" y2="435.9821">
				<stop  offset="0" style="stop-color:#FF9085"/>
				<stop  offset="1" style="stop-color:#FB6FBB"/>
			</linearGradient>
			<path style="fill:url(#SVGID_00000094582790403892232700000001354880431906759336_);" d="M1021.003,1356.08
				c21.837,11.087,49.271,0.906,61.276-22.737c12.005-23.645,4.034-51.801-17.802-62.887c-1.132-0.575-2.286-1.058-3.445-1.519
				c4.058-13.084,7.117-26.27,9.168-39.461c1.252-0.004,2.507-0.024,3.784-0.139c24.913-2.22,44.687-25.114,44.166-51.135
				c-0.521-26.021-21.141-45.315-46.055-43.094c-1.303,0.117-2.581,0.322-3.853,0.548c-2.602-12.895-6.169-25.491-10.667-37.683
				c1.146-0.67,2.287-1.364,3.4-2.144c21.314-14.933,28.13-44.406,15.221-65.831c-12.909-21.424-40.653-26.686-61.967-11.752
				c-1.092,0.765-2.121,1.592-3.135,2.431c-8.419-9.307-17.653-17.932-27.642-25.802c0.702-1.152,1.39-2.319,2.012-3.543
				c12.005-23.645,4.034-51.801-17.802-62.888c-21.838-11.087-49.272-0.906-61.276,22.738c-0.622,1.225-1.158,2.469-1.674,3.715
				c-12.25-3.42-24.662-5.786-37.143-7.09c0.078-1.315,0.139-2.633,0.113-3.966c-0.523-26.02-21.142-45.314-46.055-43.093
				c-24.914,2.221-44.688,25.115-44.166,51.135c0.027,1.361,0.142,2.69,0.276,4.012c-12.497,3.562-24.769,8.117-36.716,13.625
				c-0.568-1.16-1.157-2.313-1.831-3.434c-12.909-21.424-40.653-26.686-61.968-11.752c-21.315,14.934-28.129,44.406-15.221,65.831
				c0.66,1.098,1.385,2.124,2.121,3.137c-9.44,9.44-18.28,19.69-26.448,30.686c-1.057-0.662-2.127-1.31-3.259-1.884
				c-21.836-11.088-49.271-0.907-61.275,22.738c-12.005,23.644-4.035,51.801,17.802,62.887c1.131,0.574,2.286,1.057,3.445,1.519
				c-4.058,13.084-7.118,26.269-9.168,39.46c-1.252,0.003-2.508,0.024-3.784,0.137c-24.913,2.222-44.686,25.116-44.166,51.136
				c0.521,26.022,21.142,45.314,46.055,43.093c1.302-0.115,2.582-0.32,3.853-0.547c2.602,12.894,6.167,25.492,10.667,37.683
				c-1.147,0.67-2.287,1.363-3.4,2.144c-21.315,14.932-28.13,44.407-15.221,65.83c12.909,21.425,40.653,26.686,61.967,11.753
				c1.093-0.765,2.12-1.591,3.135-2.43c8.42,9.306,17.653,17.932,27.642,25.803c-0.702,1.152-1.39,2.318-2.012,3.543
				c-12.005,23.644-4.035,51.8,17.802,62.887c21.837,11.087,49.271,0.906,61.276-22.738c0.622-1.224,1.158-2.469,1.673-3.715
				c12.251,3.42,24.662,5.785,37.143,7.09c-0.078,1.314-0.139,2.631-0.112,3.966c0.522,26.02,21.142,45.312,46.055,43.092
				c24.914-2.22,44.688-25.115,44.165-51.134c-0.027-1.36-0.141-2.69-0.276-4.01c12.497-3.562,24.77-8.117,36.717-13.626
				c0.568,1.16,1.157,2.314,1.832,3.433c12.909,21.425,40.652,26.687,61.967,11.753c21.315-14.934,28.129-44.407,15.221-65.832
				c-0.662-1.096-1.385-2.123-2.122-3.135c9.439-9.44,18.279-19.691,26.448-30.687
				C1018.801,1354.859,1019.871,1355.505,1021.003,1356.08z M748.786,1359.533c-79.285-40.254-108.223-142.48-64.636-228.33
				c43.588-85.849,143.195-122.81,222.479-82.556c79.286,40.254,108.224,142.481,64.636,228.33
				C927.678,1362.827,828.07,1399.788,748.786,1359.533z"/>
		</g>
		<g>
			
				<linearGradient id="SVGID_00000174602905132579332490000006170708339031610045_" gradientUnits="userSpaceOnUse" x1="1318.6531" y1="597.3273" x2="977.3923" y2="1395.8762">
				<stop  offset="0" style="stop-color:#AB316D"/>
				<stop  offset="1" style="stop-color:#792D3D"/>
			</linearGradient>
			<path style="fill:url(#SVGID_00000174602905132579332490000006170708339031610045_);" d="M1397.955,893.673
				c17.414,8.841,39.292,0.723,48.867-18.133c9.573-18.857,3.217-41.31-14.197-50.151c-0.903-0.458-1.823-0.844-2.747-1.212
				c3.236-10.434,5.675-20.95,7.311-31.469c0.998-0.003,2-0.019,3.017-0.111c19.868-1.771,35.637-20.027,35.221-40.779
				c-0.416-20.751-16.859-36.137-36.727-34.366c-1.039,0.093-2.059,0.257-3.073,0.437c-2.075-10.284-4.919-20.328-8.506-30.051
				c0.914-0.535,1.824-1.088,2.712-1.71c16.998-11.909,22.432-35.413,12.138-52.498c-10.294-17.085-32.419-21.281-49.418-9.373
				c-0.871,0.611-1.69,1.27-2.5,1.939c-6.714-7.422-14.078-14.299-22.045-20.577c0.56-0.919,1.109-1.849,1.604-2.826
				c9.575-18.857,22.084-39.454,4.534-48.022c-40.6-19.82-58.022-2.853-67.596,16.003c-0.496,0.977-0.923,1.968-1.334,2.963
				c-9.769-2.728-19.667-4.614-29.621-5.655c0.062-1.049,0.11-2.098,0.089-3.162c-0.416-20.75,5.741-31.979-14.202-32.368
				c-43.489-0.845-58.162,18.031-57.746,38.781c0.021,1.085,0.112,2.145,0.22,3.199c-9.966,2.841-19.754,6.473-29.281,10.866
				c-0.453-0.925-0.923-1.845-1.46-2.739c-10.294-17.085-32.419-21.281-49.418-9.372c-16.998,11.91-22.432,35.414-12.138,52.498
				c0.527,0.876,1.105,1.695,1.692,2.502c-7.528,7.528-14.577,15.702-21.092,24.472c-0.842-0.529-1.696-1.045-2.599-1.503
				c-17.414-8.842-39.292-0.723-48.866,18.133c-9.573,18.855-3.218,41.309,14.197,50.151c0.902,0.458,1.824,0.843,2.747,1.212
				c-3.235,10.434-5.675,20.948-7.31,31.468c-0.998,0.003-2,0.019-3.017,0.11c-19.868,1.771-35.637,20.028-35.221,40.78
				c0.416,20.751,16.86,36.136,36.728,34.365c1.038-0.092,2.058-0.256,3.072-0.436c2.075,10.284,4.918,20.329,8.506,30.051
				c-0.914,0.535-1.823,1.088-2.711,1.71c-16.999,11.908-22.433,35.413-12.139,52.498c10.295,17.084,44.375,25.023,61.374,13.114
				c0.871-0.61-10.266-5.011-9.456-5.68c6.714,7.422,14.078,14.3,22.045,20.577c-0.56,0.919-1.108,1.849-1.604,2.826
				c-9.574,18.856-3.218,41.31,14.197,50.151c17.414,8.841,39.292,0.724,48.865-18.133c0.496-0.976,0.924-1.969,1.334-2.962
				c9.769,2.727,19.667,4.613,29.621,5.654c-0.061,1.048-0.11,2.098-0.089,3.162c0.416,20.751,16.86,36.137,36.727,34.366
				c19.868-1.771,35.637-20.029,35.22-40.779c-0.021-1.085-0.112-2.145-0.22-3.198c9.966-2.841,19.754-6.473,29.281-10.866
				c0.452,0.926,0.923,1.845,1.461,2.738c10.294,17.085,32.418,21.282,49.417,9.373c16.998-11.909,22.433-35.413,12.139-52.499
				c-0.528-0.874-1.106-1.693-1.692-2.5c7.528-7.528,14.577-15.703,21.091-24.472
				C1396.198,892.699,1397.053,893.214,1397.955,893.673z M1180.869,896.427c-63.227-32.102-86.305-113.624-51.545-182.087
				c34.76-68.463,114.194-97.939,177.421-65.837c63.227,32.102,86.305,113.625,51.545,182.087
				C1323.531,899.053,1244.097,928.529,1180.869,896.427z"/>
			
				<linearGradient id="SVGID_00000129175337662691950880000001132843837423231903_" gradientUnits="userSpaceOnUse" x1="1436.2098" y1="647.5654" x2="1094.9493" y2="1446.1135">
				<stop  offset="0" style="stop-color:#AB316D"/>
				<stop  offset="1" style="stop-color:#792D3D"/>
			</linearGradient>
			<path style="fill:url(#SVGID_00000129175337662691950880000001132843837423231903_);" d="M1440.206,792.599
				c19.868-1.771,35.637-20.029,35.221-40.779c-0.416-20.751-16.859-36.138-36.727-34.366c-1.039,0.093-2.059,0.257-3.073,0.436
				c-2.075-10.284-4.919-20.328-8.506-30.05c0.914-0.534,1.824-1.088,2.712-1.711c16.998-11.908,38.028-40.683,26.035-56.622
				c-22.76-30.251-46.316-17.157-63.314-5.249c-0.871,0.611-1.69,1.269-2.5,1.938c-6.714-7.422-14.078-14.299-22.045-20.577
				c0.56-0.919,1.109-1.849,1.604-2.825c5.211-10.262,5.671-21.577,2.23-31.195c-16.419,28.896-32.616,57.914-48.522,87.091
				c50.441,36.962,66.5,109.802,34.971,171.901c-26.718,52.623-79.827,82.172-131.685,78.469c-2.314,6-4.585,12.031-7.061,17.972
				c-6.722,16.123-14.359,31.915-22.006,47.686c4.809,0.907,9.639,1.621,14.482,2.128c-0.062,1.049-0.111,2.099-0.089,3.162
				c0.416,20.751,13.015,38.381,49.023,36.472c19.919-1.057,23.342-22.134,22.925-42.885c-0.021-1.084-0.112-2.145-0.219-3.198
				c9.966-2.841,19.754-6.473,29.28-10.866c0.452,0.926,0.923,1.845,1.461,2.738c10.294,17.086,46.006,24.345,63.004,12.435
				c16.999-11.909,8.845-38.476-1.448-55.562c-0.528-0.875-1.106-1.694-1.692-2.502c7.528-7.527,14.577-15.702,21.091-24.471
				c0.842,0.53,1.697,1.045,2.599,1.502c17.414,8.842,39.292,0.723,48.867-18.133c9.573-18.855,3.217-41.31-14.197-50.151
				c-0.903-0.458-1.823-0.843-2.747-1.211c3.236-10.434,5.675-20.95,7.311-31.468
				C1438.186,792.706,1439.188,792.689,1440.206,792.599z"/>
			
				<linearGradient id="SVGID_00000072958441614028050150000016138854968521209517_" gradientUnits="userSpaceOnUse" x1="1444.9489" y1="1005.6491" x2="778.9476" y2="162.0486">
				<stop  offset="0" style="stop-color:#FF9085"/>
				<stop  offset="1" style="stop-color:#FB6FBB"/>
			</linearGradient>
			<path style="fill:url(#SVGID_00000072958441614028050150000016138854968521209517_);" d="M1416.685,895.802
				c17.414,8.841,39.292,0.723,48.866-18.133c9.573-18.857,3.217-41.31-14.197-50.151c-0.902-0.458-1.823-0.844-2.747-1.212
				c3.236-10.434,5.676-20.95,7.311-31.469c0.999-0.003,2-0.019,3.018-0.111c19.868-1.771,35.636-20.028,35.221-40.779
				c-0.416-20.751-16.86-36.138-36.728-34.366c-1.039,0.094-2.058,0.257-3.073,0.437c-2.075-10.284-4.919-20.328-8.506-30.051
				c0.914-0.535,1.824-1.088,2.712-1.71c16.997-11.909,22.432-35.413,12.138-52.498c-10.294-17.085-32.419-21.281-49.417-9.372
				c-0.871,0.61-1.691,1.269-2.5,1.938c-6.714-7.422-14.078-14.3-22.044-20.577c0.56-0.918,1.108-1.849,1.604-2.826
				c9.573-18.857,3.217-41.31-14.197-50.152c-17.415-8.841-39.293-0.723-48.866,18.133c-0.496,0.977-0.924,1.969-1.335,2.963
				c-9.769-2.728-19.667-4.614-29.621-5.654c0.063-1.049,0.111-2.099,0.09-3.162c-0.417-20.75-16.86-36.137-36.728-34.366
				c-19.868,1.771-35.638,20.028-35.221,40.778c0.022,1.085,0.113,2.145,0.22,3.199c-9.966,2.841-19.753,6.473-29.28,10.865
				c-0.453-0.925-0.923-1.845-1.46-2.739c-10.294-17.085-32.419-21.281-49.418-9.371c-16.999,11.91-22.432,35.413-12.138,52.498
				c0.527,0.875,1.104,1.694,1.692,2.502c-7.528,7.528-14.578,15.703-21.092,24.471c-0.843-0.528-1.696-1.044-2.599-1.502
				c-17.414-8.842-39.292-0.723-48.865,18.133c-9.573,18.855-3.218,41.31,14.197,50.151c0.902,0.458,1.823,0.843,2.747,1.212
				c-3.236,10.434-5.676,20.948-7.311,31.468c-0.999,0.002-2,0.02-3.018,0.109c-19.868,1.772-35.636,20.029-35.221,40.78
				c0.416,20.752,16.86,36.137,36.728,34.366c1.038-0.092,2.059-0.255,3.072-0.436c2.075,10.283,4.918,20.329,8.506,30.051
				c-0.914,0.535-1.824,1.087-2.712,1.71c-16.998,11.908-22.433,35.413-12.138,52.498c10.294,17.086,32.42,21.281,49.417,9.373
				c0.871-0.61,1.691-1.269,2.501-1.938c6.714,7.422,14.077,14.3,22.044,20.577c-0.56,0.918-1.108,1.849-1.604,2.826
				c-9.573,18.855-3.218,41.309,14.197,50.151c17.414,8.841,39.293,0.723,48.866-18.133c0.496-0.976,0.924-1.969,1.334-2.962
				c9.77,2.728,19.667,4.613,29.621,5.654c-0.062,1.048-0.111,2.098-0.089,3.162c0.416,20.75,16.86,36.135,36.728,34.365
				c19.868-1.771,35.637-20.028,35.22-40.779c-0.022-1.084-0.112-2.145-0.22-3.198c9.966-2.841,19.754-6.473,29.281-10.866
				c0.453,0.925,0.923,1.845,1.461,2.738c10.294,17.086,32.419,21.282,49.417,9.373c16.999-11.909,22.432-35.413,12.139-52.499
				c-0.528-0.874-1.105-1.693-1.692-2.5c7.527-7.528,14.577-15.703,21.091-24.472
				C1414.929,894.828,1415.783,895.344,1416.685,895.802z M1199.599,898.557c-63.228-32.102-86.305-113.624-51.545-182.087
				c34.76-68.463,114.194-97.938,177.421-65.836c63.228,32.102,86.305,113.625,51.546,182.087
				C1342.261,901.183,1262.826,930.659,1199.599,898.557z"/>
		</g>
		<g>
			<g>
				<g>
					<defs>
						<path id="SVGID_00000083087861035653579670000009682217101601018046_" d="M2150.281,2842.402
							c40.542-108.192,83.377-272.545,48.105-457.613c-46.26-242.713-186.22-307.803-354.918-674.1
							c-106.666-231.606-178.773-394.314-105.655-536.487c57.299-111.413,196.922-196.877,316.225-178.736
							c99.198,15.084,195.962,103.56,247.592,175.326c42.079,58.489,56.401,108.97,109.713,124.402
							c54.483,15.772,85.421-23.662,133.073-15.584c96.636,16.383,139.696,207.437,146.655,238.314
							c77.413,343.481-103.166,690.074-183.756,840.311C2440.68,2482.455,2329.827,2658.877,2150.281,2842.402z"/>
					</defs>
					
						<linearGradient id="SVGID_00000029021699570130908670000008799417111330607008_" gradientUnits="userSpaceOnUse" x1="1708.1206" y1="1917.7151" x2="2709.9424" y2="1917.7151">
						<stop  offset="0" style="stop-color:#AA80F9"/>
						<stop  offset="0.9964" style="stop-color:#6165D7"/>
					</linearGradient>
					
						<use xlink:href="#SVGID_00000083087861035653579670000009682217101601018046_"  style="overflow:visible;fill:url(#SVGID_00000029021699570130908670000008799417111330607008_);"/>
					<clipPath id="SVGID_00000135683289887286948380000012774180481209093251_">
						<use xlink:href="#SVGID_00000083087861035653579670000009682217101601018046_"  style="overflow:visible;"/>
					</clipPath>
					<g style="opacity:0.5;clip-path:url(#SVGID_00000135683289887286948380000012774180481209093251_);">
						<path style="fill:#FFFFFF;" d="M2092.006,2941.784l-5.253-4.881c106.57-114.617,190.09-229.776,248.241-342.281
							c85.741-165.879,113.391-321.253,82.18-461.803c-24.442-110.085-83.216-207.634-164.555-342.649
							c-64.933-107.778-120.678-178.31-169.861-240.54c-64.279-81.329-115.047-145.569-155.822-255.02
							c-41.374-111.073-58.41-233.379-50.629-363.519l7.158,0.427c-7.718,129.135,9.168,250.458,50.194,360.592
							c40.375,108.391,90.84,172.238,154.726,253.073c49.316,62.398,105.208,133.12,170.375,241.29
							c78.618,130.49,140.715,233.561,165.417,344.792c31.583,142.235,3.722,299.241-82.81,466.65
							C2282.916,2711,2199.017,2826.695,2092.006,2941.784z"/>
						<path style="fill:#FFFFFF;" d="M2198.351,1713.057c-23.903,0-103.173-2.808-197.553-36.313
							c-104.101-36.958-248.533-119.866-345.433-304.959l6.352-3.327c95.758,182.912,238.397,264.878,341.196,301.426
							c98.144,34.892,179.652,36.1,198.411,35.991c-39.017-233.778,7.2-415.265,53.02-526.579
							c49.981-121.424,110.407-188.031,111.013-188.69l5.284,4.846c-0.599,0.651-60.311,66.537-109.795,186.89
							c-45.656,111.041-91.698,292.507-51.763,526.418l0.683,3.992l-4.048,0.193
							C2205.572,1712.952,2203.012,1713.057,2198.351,1713.057z"/>
						<path style="fill:#FFFFFF;" d="M2376.921,2008.929l-2.269-1.278c-1.271-0.714-128.449-71.948-269.917-118.402
							c-140.726-46.202-378.666,31.085-381.053,31.873l-2.245-6.814c2.413-0.791,242.599-78.801,385.531-31.873
							c131.681,43.24,251.011,107.834,268.901,117.695c81.413-76.794,137.813-249.183,163.151-498.866
							c19.337-190.542,13.808-360.41,13.752-362.105l7.165-0.245c0.06,1.698,5.603,172.053-13.783,363.071
							c-26.081,257.013-82.376,426.979-167.315,505.18L2376.921,2008.929z"/>
						<path style="fill:#FFFFFF;" d="M2363.964,2552.433l0.455-7.133c4.654-73.026-12.666-138.404-51.476-194.313
							c-31.12-44.823-76.069-83.759-133.6-115.727c-98.281-54.607-200.494-70.06-201.513-70.211l1.036-7.094
							c1.033,0.15,104.374,15.751,203.789,70.942c90.819,50.419,196.625,144.893,189.313,309.631
							c23.763-16.283,115.814-81.777,219.68-187.496c110.852-112.827,258.228-295.862,330.82-527.122l140.985-449.131l6.843,2.15
							l-140.985,449.131c-73.04,232.686-221.228,416.722-332.679,530.134c-120.727,122.853-225.633,191.659-226.677,192.338
							L2363.964,2552.433z"/>
					</g>
				</g>
			</g>
			<g>
				<g>
					<defs>
						<path id="SVGID_00000096754337010367647790000005710279285981552549_" d="M2167.453,2812.059
							c182.421-0.575,414.726-27.334,636.45-130.282c56.585-26.272,406.137-188.573,363.082-348.084
							c-15.167-56.188-66.24-64.578-87.83-139.347c-25.583-88.595,29.75-133.524,67.312-244.629
							c22.413-66.295,88.006-260.31-28.889-366.213c-69.854-63.284-201.713-92.242-301.619-67.872
							c-146.541,35.746-195.621,179.218-274.466,423.411c-69.893,216.468-50.86,269.245-103.91,424.244
							C2398.21,2478.321,2323.499,2636.905,2167.453,2812.059z"/>
					</defs>
					
						<linearGradient id="SVGID_00000012430112493211267870000008335748459719488919_" gradientUnits="userSpaceOnUse" x1="3069.5723" y1="1522.1667" x2="2631.8413" y2="2697.1309">
						<stop  offset="0.0036" style="stop-color:#E38DDD"/>
						<stop  offset="1" style="stop-color:#9571F6"/>
					</linearGradient>
					
						<use xlink:href="#SVGID_00000096754337010367647790000005710279285981552549_"  style="overflow:visible;fill:url(#SVGID_00000012430112493211267870000008335748459719488919_);"/>
					<clipPath id="SVGID_00000036932913450508226080000009558002423442686639_">
						<use xlink:href="#SVGID_00000096754337010367647790000005710279285981552549_"  style="overflow:visible;"/>
					</clipPath>
					<g style="opacity:0.5;clip-path:url(#SVGID_00000036932913450508226080000009558002423442686639_);">
						<path style="fill:#FFFFFF;" d="M1698.841,2915.521c-101.959,0-206.33-13.555-312.322-40.652l1.775-6.948
							c200.267,51.2,394.661,53.781,577.791,7.666c243.969-61.428,454.639-210.022,626.163-441.665
							c178.64-241.245,270.074-512.117,315.321-696.871c31.33-127.923,23.64-269.136-22.856-419.719l6.85-2.115
							c46.885,151.841,54.617,294.342,22.975,423.543c-45.407,185.391-137.178,457.227-316.526,699.431
							c-172.536,233.008-384.558,382.51-630.176,444.351C1880.513,2904.529,1790.654,2915.521,1698.841,2915.521z"/>
						<path style="fill:#FFFFFF;" d="M2787.361,2105.238l-2.056-2.486c-0.518-0.627-52.327-63.886-94.639-160.836
							c-39.094-89.572-77.907-227.115-40.806-373.692l6.955,1.758c-36.587,144.536,1.744,280.37,40.337,368.87
							c37.196,85.286,81.77,144.214,91.673,156.817c384.53-255.525,377.845-543.332,366.591-625.603
							c-0.347-2.521-0.466-3.428-0.466-4.083h7.172h-3.586l3.586-0.042c0.018,0.466,0.175,1.527,0.399,3.152
							c11.426,83.517,18.339,376.084-372.47,634.368L2787.361,2105.238z"/>
						<path style="fill:#FFFFFF;" d="M2736.875,2445.422c-42.9,0-89.246-3.005-139.259-9.851l-1.898-0.263l-0.841-1.723
							c-1.075-2.213-107.494-224.937-87.649-529.398l20.013-307.039l7.158,0.469l-20.013,307.039
							c-18.798,288.368,76.297,502.795,86.133,524.069c130.959,17.695,319.544,19.011,478.101-73.895
							c95.042-55.689,134.51-119.607,134.896-120.247l6.135,3.719c-0.399,0.655-40.817,66.121-137.406,122.716
							C3011.898,2402.238,2899.365,2445.422,2736.875,2445.422z"/>
					</g>
				</g>
			</g>
			<g>
				<g>
					<defs>
						<path id="SVGID_00000166636674985937647060000010594821676205909385_" d="M2274.749,2894.132
							c-0.467-18.533-1.548-127.804,78.9-194.753c67.349-56.047,155.237-51.975,175.595-51.032
							c81.977,3.798,102.286,41.776,152.72,24.485c59.89-20.533,64.062-85.333,111.894-86.871
							c32.997-1.06,65.938,28.655,76.03,59.361c17.714,53.896-30.745,123.688-87.158,151.25
							c-77.722,37.974-128.69-24.658-220.579,13.762c-53.398,22.326-52.356,50.238-108.256,75.146
							C2388.982,2914.403,2321.884,2906.038,2274.749,2894.132z"/>
					</defs>
					
						<linearGradient id="SVGID_00000031198150724354117490000007976686034066415284_" gradientUnits="userSpaceOnUse" x1="2274.6665" y1="2745.5256" x2="2873.5981" y2="2745.5256">
						<stop  offset="0" style="stop-color:#FF9085"/>
						<stop  offset="1" style="stop-color:#FB6FBB"/>
					</linearGradient>
					
						<use xlink:href="#SVGID_00000166636674985937647060000010594821676205909385_"  style="overflow:visible;fill:url(#SVGID_00000031198150724354117490000007976686034066415284_);"/>
					<clipPath id="SVGID_00000107570389414793935170000003393981060468578470_">
						<use xlink:href="#SVGID_00000166636674985937647060000010594821676205909385_"  style="overflow:visible;"/>
					</clipPath>
					<g style="opacity:0.5;clip-path:url(#SVGID_00000107570389414793935170000003393981060468578470_);">
						<path style="fill:#FFFFFF;" d="M2249.096,2935.149l-2.851-2.178c27.549-35.977,57.664-70.725,89.509-103.281
							c63.767-65.182,95.766-97.892,134.738-111.574c50.695-17.803,90.23-3.432,128.477,10.463
							c33.897,12.319,65.917,23.949,104.237,13.559c60.847-16.5,109.77-83.174,145.411-198.162l3.425,1.064
							c-36.026,116.234-85.786,183.714-147.897,200.557c-39.416,10.701-71.951-1.127-106.401-13.646
							c-37.651-13.682-76.58-27.818-126.06-10.453c-38.184,13.405-69.987,45.915-133.351,110.684
							C2306.57,2864.647,2276.553,2899.287,2249.096,2935.149z"/>
						<path style="fill:#FFFFFF;" d="M2778.666,2753.935c-6.59,0-12.536-0.347-17.813-0.886
							c-28.603-2.935-43.849-11.846-44.487-12.225l-0.518-0.308l-0.228-0.564c-25.342-63,15.797-153.857,16.217-154.768l3.257,1.499
							c-0.41,0.893-40.652,89.8-16.381,151.34c6.107,3.257,65.974,32.496,165.242-13.191l1.499,3.257
							C2841.176,2748.469,2804.866,2753.935,2778.666,2753.935z"/>
						<path style="fill:#FFFFFF;" d="M2668.097,2851.018c-26.407-75.05-195.837-128.963-197.546-129.499l-1.534-0.483l0.312-1.576
							c5.382-27.401,35.788-46.381,90.374-56.41c40.239-7.396,79.42-6.909,79.837-6.906l-0.056,3.586
							c-1.502,0.014-151.904-1.506-166.299,58.868c8.149,2.658,46.945,15.716,87.923,36.124
							c61.876,30.816,99.013,62.815,110.372,95.105L2668.097,2851.018z"/>
						<path style="fill:#FFFFFF;" d="M2557.546,2879.771c-45.901-107.214-211.486-54.617-213.153-54.071l-2.021,0.658l-0.312-2.104
							c-14.928-101.761,76.573-194.009,77.498-194.927l2.528,2.542c-0.907,0.903-89.901,90.654-76.766,189.796
							c19.438-5.767,171.149-46.924,215.524,56.69L2557.546,2879.771z"/>
					</g>
				</g>
			</g>
		</g>
		<g>
			<g>
				<g>
					<path style="fill:#26264F;" d="M3282.334,2968.618l-2822.8-24.061v71.193c0,19.323,12.312,35.754,28.986,38.682
						l798.204,140.193c9.473,1.664,19.079,2.105,28.638,1.316l1936.297-159.842c17.287-1.427,30.675-17.909,30.675-37.762V2968.618z
						"/>
					<g>
						<path style="fill:#26264F;" d="M2257.951,2854.527l-1769.227,130.24c-31.659,2.33-57.4-22.434-57.4-55.318V1611.956
							c0-32.885,25.741-59.543,57.4-59.543h1769.227c26.082,0,47.171,24.099,47.171,53.826v1190.99
							C2305.122,2826.955,2284.034,2852.607,2257.951,2854.527z"/>
						
							<linearGradient id="SVGID_00000110455225338357962520000004640099656524301746_" gradientUnits="userSpaceOnUse" x1="459.5342" y1="2268.666" x2="2333.3323" y2="2268.666">
							<stop  offset="0" style="stop-color:#444B8C"/>
							<stop  offset="0.9964" style="stop-color:#26264F"/>
						</linearGradient>
						<path style="fill:url(#SVGID_00000110455225338357962520000004640099656524301746_);" d="M2286.161,2854.527l-1769.227,130.24
							c-31.66,2.33-57.401-22.434-57.401-55.318V1611.956c0-32.885,25.741-59.543,57.401-59.543h1769.227
							c26.083,0,47.171,24.099,47.171,53.826v1190.99C2333.332,2826.955,2312.245,2852.607,2286.161,2854.527z"/>
						
							<linearGradient id="SVGID_00000123415418883196056130000004948265067103887283_" gradientUnits="userSpaceOnUse" x1="536.495" y1="2256.3523" x2="2269.9651" y2="2256.3523">
							<stop  offset="0.0036" style="stop-color:#E38DDD"/>
							<stop  offset="1" style="stop-color:#9571F6"/>
						</linearGradient>
						<path style="fill:url(#SVGID_00000123415418883196056130000004948265067103887283_);" d="M2231.045,2770.56l-1647.85,113.131
							c-25.764,1.769-46.7-18.557-46.7-45.403V1684.821c0-26.846,20.937-48.7,46.7-48.811l1647.85-7.104
							c21.516-0.093,38.92,19.654,38.92,44.107v1050.602C2269.965,2748.066,2252.561,2769.084,2231.045,2770.56z"/>
						<path style="fill:#FFFFFF;" d="M1464.032,1588.449c0,12.242-9.106,22.195-20.351,22.23
							c-11.259,0.036-20.396-9.881-20.396-22.151s9.137-22.222,20.396-22.231
							C1454.926,1566.289,1464.032,1576.207,1464.032,1588.449z"/>
						<path style="opacity:0.48;fill:#FFFFFF;" d="M516.928,2984.768l1760.276-129.581l8.958-0.659
							c11.967-0.881,22.849-6.797,31.16-15.771c-126.671-6.932-205.349-51.884-256.102-98.333
							c-101.923-93.279-84.244-185.266-194.156-246.595c-137.089-76.496-244.883,20.433-348.912-75.202
							c-63.067-57.981-32.104-101.218-109.709-187.862c-85.953-95.967-141.913-63.708-228.295-150.078
							c-109.222-109.21-54.596-194.178-148.678-272.587c-114.135-95.122-237.224-7.081-345.872-98.306
							c-46.861-39.346-72.574-96.547-86-157.382h-82.663c-31.659,0-57.401,26.659-57.401,59.544v1317.493
							C459.534,2962.331,485.27,2987.093,516.928,2984.768z"/>
					</g>
					
						<linearGradient id="SVGID_00000034052434266050077020000016889942455818964390_" gradientUnits="userSpaceOnUse" x1="459.5342" y1="2989.1467" x2="3282.3345" y2="2989.1467">
						<stop  offset="0" style="stop-color:#444B8C"/>
						<stop  offset="0.9964" style="stop-color:#26264F"/>
					</linearGradient>
					<path style="fill:url(#SVGID_00000034052434266050077020000016889942455818964390_);" d="M2356.678,2847.303l-1897.144,137.09
						l827.19,145.283c9.473,1.664,19.079,2.105,28.638,1.316l1966.972-162.375l-895.478-120.383
						C2376.842,2846.888,2366.742,2846.576,2356.678,2847.303z"/>
					<polygon style="fill:#26264F;" points="736.357,2985.572 2315.786,2869.74 2804.605,2934.925 1238.782,3058.744 					"/>
				</g>
			</g>
			
				<linearGradient id="SVGID_00000125596110592760032350000007562413322984313249_" gradientUnits="userSpaceOnUse" x1="1978.9972" y1="1087.6798" x2="924.7673" y2="3267.8567">
				<stop  offset="0" style="stop-color:#FFFFFF"/>
				<stop  offset="0.9964" style="stop-color:#EBEFF2"/>
			</linearGradient>
			<path style="fill:url(#SVGID_00000125596110592760032350000007562413322984313249_);" d="M2505.823,2500.458
				c0,145.763-118.9,271.476-267.63,280.918L581.462,2886.562l0,0c175.184-11.122,315.068-148.137,315.068-306.198V762.116
				l1609.292,61.566V2500.458z"/>
			<g>
				<g>
					
						<linearGradient id="SVGID_00000148652003155556334240000003656589035916334763_" gradientUnits="userSpaceOnUse" x1="1129.3317" y1="-9.289" x2="871.1229" y2="5391.4922">
						<stop  offset="0" style="stop-color:#AA80F9"/>
						<stop  offset="0.9964" style="stop-color:#6165D7"/>
					</linearGradient>
					<polygon style="fill:url(#SVGID_00000148652003155556334240000003656589035916334763_);" points="1108.485,1822.272 
						1010.024,1822.02 1010.07,1089.688 1108.768,1092.541 					"/>
					
						<linearGradient id="SVGID_00000128457664663310560600000012268915468408876439_" gradientUnits="userSpaceOnUse" x1="1328.2979" y1="0.2237" x2="1070.0895" y2="5400.9971">
						<stop  offset="0" style="stop-color:#AA80F9"/>
						<stop  offset="0.9964" style="stop-color:#6165D7"/>
					</linearGradient>
					<polygon style="fill:url(#SVGID_00000128457664663310560600000012268915468408876439_);" points="1303.33,1822.771 
						1202.504,1822.513 1202.851,1323.796 1303.842,1325.879 					"/>
					
						<linearGradient id="SVGID_00000091705715094780590500000005102057995118827433_" gradientUnits="userSpaceOnUse" x1="1514.2269" y1="9.1148" x2="1256.0182" y2="5409.8955">
						<stop  offset="0" style="stop-color:#AA80F9"/>
						<stop  offset="0.9964" style="stop-color:#6165D7"/>
					</linearGradient>
					<polygon style="fill:url(#SVGID_00000091705715094780590500000005102057995118827433_);" points="1491.784,1823.254 
						1392.337,1822.999 1393.166,1196.551 1492.815,1199.082 					"/>
					
						<linearGradient id="SVGID_00000088848223385429925860000000336276774586488478_" gradientUnits="userSpaceOnUse" x1="1707.2274" y1="18.3397" x2="1449.0178" y2="5419.1372">
						<stop  offset="0" style="stop-color:#AA80F9"/>
						<stop  offset="0.9964" style="stop-color:#6165D7"/>
					</linearGradient>
					<polygon style="fill:url(#SVGID_00000088848223385429925860000000336276774586488478_);" points="1677.674,1823.73 
						1586.869,1823.497 1587.842,1328.217 1678.791,1330.104 					"/>
					
						<linearGradient id="SVGID_00000054981651449098522050000012147900107311637166_" gradientUnits="userSpaceOnUse" x1="1895.8864" y1="27.3568" x2="1637.677" y2="5428.1494">
						<stop  offset="0" style="stop-color:#AA80F9"/>
						<stop  offset="0.9964" style="stop-color:#6165D7"/>
					</linearGradient>
					<polygon style="fill:url(#SVGID_00000054981651449098522050000012147900107311637166_);" points="1868.192,1824.218 
						1767.875,1823.961 1768.787,1468.219 1869.217,1469.797 					"/>
					
						<linearGradient id="SVGID_00000042004633209341074060000010281068441148830357_" gradientUnits="userSpaceOnUse" x1="2071.0527" y1="35.7366" x2="1812.8439" y2="5436.5195">
						<stop  offset="0" style="stop-color:#AA80F9"/>
						<stop  offset="0.9964" style="stop-color:#6165D7"/>
					</linearGradient>
					<polygon style="fill:url(#SVGID_00000042004633209341074060000010281068441148830357_);" points="2045.49,1824.672 
						1957.134,1824.446 1959.387,1117.123 2047.941,1119.682 					"/>
					
						<linearGradient id="SVGID_00000101071972663379073040000007219207158589540286_" gradientUnits="userSpaceOnUse" x1="2264.3169" y1="44.972" x2="2006.1085" y2="5445.7461">
						<stop  offset="0" style="stop-color:#AA80F9"/>
						<stop  offset="0.9964" style="stop-color:#6165D7"/>
					</linearGradient>
					<polygon style="fill:url(#SVGID_00000101071972663379073040000007219207158589540286_);" points="2230.896,1825.146 
						2136.766,1824.906 2137.558,1615.161 2231.751,1616.143 					"/>
					
						<linearGradient id="SVGID_00000057113784778203909250000007733387456807970734_" gradientUnits="userSpaceOnUse" x1="2433.0112" y1="53.0404" x2="2174.8022" y2="5453.8223">
						<stop  offset="0" style="stop-color:#AA80F9"/>
						<stop  offset="0.9964" style="stop-color:#6165D7"/>
					</linearGradient>
					<polygon style="fill:url(#SVGID_00000057113784778203909250000007733387456807970734_);" points="2406.897,1825.597 
						2314.012,1825.359 2316.458,1264.556 2409.506,1266.763 					"/>
				</g>
				
					<linearGradient id="SVGID_00000132058957724997452900000009023365414153542060_" gradientUnits="userSpaceOnUse" x1="1802.6963" y1="22.8947" x2="1544.4857" y2="5423.7144">
					<stop  offset="0" style="stop-color:#AA80F9"/>
					<stop  offset="0.9964" style="stop-color:#6165D7"/>
				</linearGradient>
				<polygon style="fill:url(#SVGID_00000132058957724997452900000009023365414153542060_);" points="2405.914,2036.329 
					1010.01,2043.893 1010.015,1972.356 2406.231,1968.383 				"/>
				
					<linearGradient id="SVGID_00000180327853835858564160000012231485147647464876_" gradientUnits="userSpaceOnUse" x1="1827.0338" y1="24.0535" x2="1568.8234" y2="5424.8691">
					<stop  offset="0" style="stop-color:#AA80F9"/>
					<stop  offset="0.9964" style="stop-color:#6165D7"/>
				</linearGradient>
				<polygon style="fill:url(#SVGID_00000180327853835858564160000012231485147647464876_);" points="2403.476,2558.494 
					1009.976,2593.594 1009.98,2522.317 2403.792,2490.782 				"/>
				
					<linearGradient id="SVGID_00000176761441542303936830000002521271989840831918_" gradientUnits="userSpaceOnUse" x1="1388.4824" y1="3.0916" x2="1130.2721" y2="5403.9043">
					<stop  offset="0" style="stop-color:#AA80F9"/>
					<stop  offset="0.9964" style="stop-color:#6165D7"/>
				</linearGradient>
				<polygon style="fill:url(#SVGID_00000176761441542303936830000002521271989840831918_);" points="1679.618,964.981 
					1010.08,942.077 1010.084,866.416 1679.785,891.148 				"/>
				
					<linearGradient id="SVGID_00000065793763694689121730000015530865982924798127_" gradientUnits="userSpaceOnUse" x1="1371.2606" y1="2.2737" x2="1113.052" y2="5403.0513">
					<stop  offset="0" style="stop-color:#AA80F9"/>
					<stop  offset="0.9964" style="stop-color:#6165D7"/>
				</linearGradient>
				<polygon style="opacity:0.5;fill:url(#SVGID_00000065793763694689121730000015530865982924798127_);" points="
					1535.191,2135.744 1534.719,2398.485 991.009,2408.555 991.009,2140.582 				"/>
				
					<linearGradient id="SVGID_00000022523187288963853050000012023338755275403430_" gradientUnits="userSpaceOnUse" x1="1374.9927" y1="2.4531" x2="1116.7831" y2="5403.252">
					<stop  offset="0" style="stop-color:#AA80F9"/>
					<stop  offset="0.9964" style="stop-color:#6165D7"/>
				</linearGradient>
				<path style="fill:url(#SVGID_00000022523187288963853050000012023338755275403430_);" d="M991.009,2297.063v111.493
					l543.709-10.07l0.367-204.491c-32.904-11.064-69.391-16.976-98.15,1.29c-60.154,38.242-52.701,59.88-115.227,49.83
					c-48.848-7.875-103.179-15.029-144.954,16.809c-25.851,19.702-39.188,40.64-76.365,38.032
					C1065.448,2297.504,1023.282,2274.452,991.009,2297.063z"/>
				
					<linearGradient id="SVGID_00000178185319486065913090000005683703822330139569_" gradientUnits="userSpaceOnUse" x1="2136.8638" y1="38.8689" x2="1878.6533" y2="5439.6851">
					<stop  offset="0" style="stop-color:#AA80F9"/>
					<stop  offset="0.9964" style="stop-color:#6165D7"/>
				</linearGradient>
				<polygon style="fill:url(#SVGID_00000178185319486065913090000005683703822330139569_);" points="2405.264,2175.523 
					1666.008,2183.425 1666.116,2134.581 2405.486,2128.007 				"/>
				
					<linearGradient id="SVGID_00000101066296744631842900000015092705191978079881_" gradientUnits="userSpaceOnUse" x1="2141.5132" y1="39.084" x2="1883.3029" y2="5439.8965">
					<stop  offset="0" style="stop-color:#AA80F9"/>
					<stop  offset="0.9964" style="stop-color:#6165D7"/>
				</linearGradient>
				<polygon style="fill:url(#SVGID_00000101066296744631842900000015092705191978079881_);" points="2404.789,2277.291 
					1665.775,2288.038 1665.875,2242.714 2404.994,2233.2 				"/>
				
					<linearGradient id="SVGID_00000134929471249580800540000014082956699180321417_" gradientUnits="userSpaceOnUse" x1="2146.1526" y1="39.3086" x2="1887.9425" y2="5440.1143">
					<stop  offset="0" style="stop-color:#AA80F9"/>
					<stop  offset="0.9964" style="stop-color:#6165D7"/>
				</linearGradient>
				<polygon style="fill:url(#SVGID_00000134929471249580800540000014082956699180321417_);" points="2404.298,2382.379 
					1665.534,2396.063 1665.642,2347.287 2404.52,2334.929 				"/>
			</g>
		</g>
		<g>
			
				<linearGradient id="SVGID_00000041981339778406774000000014115840910859739815_" gradientUnits="userSpaceOnUse" x1="3312.5647" y1="2762.3232" x2="3335.1343" y2="3049.5688" gradientTransform="matrix(1 -0.0024 0.0024 1 -794.8005 3.3687)">
				<stop  offset="0" style="stop-color:#311944"/>
				<stop  offset="1" style="stop-color:#A03976"/>
			</linearGradient>
			<path style="fill:url(#SVGID_00000041981339778406774000000014115840910859739815_);" d="M2568.754,2900.892
				c0,0-90.75,41.509-92.218,48.104c-1.469,6.595,58.42-2.35,82.879-1.458c24.459,0.893,44.56-6.385,42.323-16.739
				c-2.241-10.354-10.864-36.388-10.864-36.388L2568.754,2900.892z"/>
			
				<linearGradient id="SVGID_00000035499271135993644060000008799435949181891212_" gradientUnits="userSpaceOnUse" x1="3370.8291" y1="2922.2424" x2="3366.7258" y2="2624.7471" gradientTransform="matrix(1 -0.0024 0.0024 1 -794.8005 3.3687)">
				<stop  offset="0" style="stop-color:#FFC444"/>
				<stop  offset="0.9964" style="stop-color:#F36F56"/>
			</linearGradient>
			<path style="fill:url(#SVGID_00000035499271135993644060000008799435949181891212_);" d="M2565.349,2867.391l5.625,40.89
				c0,0,14.395,5.085,24.042-0.991l4.014-44.872L2565.349,2867.391z"/>
			
				<linearGradient id="SVGID_00000052066039882967928860000012143078259399615918_" gradientUnits="userSpaceOnUse" x1="3739.0671" y1="2728.8179" x2="3761.6357" y2="3016.0532" gradientTransform="matrix(1 -0.0024 0.0024 1 -794.8005 3.3687)">
				<stop  offset="0" style="stop-color:#311944"/>
				<stop  offset="1" style="stop-color:#A03976"/>
			</linearGradient>
			<path style="fill:url(#SVGID_00000052066039882967928860000012143078259399615918_);" d="M2993.195,2867.344l10.608,16.938
				c2.967,4.737,3.862,10.446,2.458,15.857c-3.662,14.116-10.977,41.625-14.178,48.802c-4.358,9.775-63.136,15.717-63.136,15.717
				s-5.26-7.364,6.925-16.305c12.184-8.94,20.027-10.36,24.304-23.521c4.275-13.158,7.06-50.36,7.06-50.36L2993.195,2867.344z"/>
			
				<linearGradient id="SVGID_00000086654184739256549070000011124502443715714712_" gradientUnits="userSpaceOnUse" x1="3761.6992" y1="2916.8511" x2="3757.5959" y2="2619.3469" gradientTransform="matrix(1 -0.0024 0.0024 1 -794.8005 3.3687)">
				<stop  offset="0" style="stop-color:#FFC444"/>
				<stop  offset="0.9964" style="stop-color:#F36F56"/>
			</linearGradient>
			<path style="fill:url(#SVGID_00000086654184739256549070000011124502443715714712_);" d="M2949.107,2824.339
				c3.868,3.068,22.887,60.335,22.887,60.335s6.131,7.801,17.714-3.761c11.582-11.563,5.242-5.187,5.242-5.187l-2.313-56.364
				L2949.107,2824.339z"/>
			
				<linearGradient id="SVGID_00000104672938595499258900000011805160497811287227_" gradientUnits="userSpaceOnUse" x1="3299.8286" y1="2440.3042" x2="3519.7903" y2="2440.3042" gradientTransform="matrix(1 -0.0024 0.0024 1 -794.8005 3.3687)">
				<stop  offset="0" style="stop-color:#444B8C"/>
				<stop  offset="0.9964" style="stop-color:#3E4177"/>
			</linearGradient>
			<path style="fill:url(#SVGID_00000104672938595499258900000011805160497811287227_);" d="M2513.389,2045.727
				c-4.5,122.026-4.377,254.591,2.985,396.193c8.287,159.454,24.526,306.81,44.866,440.374c7.443,0.219,15.263,0.24,23.431-0.009
				c5.516-0.166,10.86-0.448,16.025-0.817c10.321-27.73,22.514-64.194,33.405-107.737c11.449-45.788,18.325-86.85,23.2-126.113
				c17.163-138.242-3.369-150.249,10.583-252.702c12.356-90.738,30.23-94.323,50.913-223.157
				c22.44-139.79,5.435-160.713-2.83-168.266C2680.789,1971.338,2598.39,1993.484,2513.389,2045.727z"/>
			
				<linearGradient id="SVGID_00000016041516589539767490000000090538793585987773_" gradientUnits="userSpaceOnUse" x1="3299.8281" y1="2440.3137" x2="3519.7888" y2="2440.3137" gradientTransform="matrix(1 -0.0024 0.0024 1 -794.8005 3.3687)">
				<stop  offset="0" style="stop-color:#444B8C"/>
				<stop  offset="0.9964" style="stop-color:#3E4177"/>
			</linearGradient>
			<path style="opacity:0.3;fill:url(#SVGID_00000016041516589539767490000000090538793585987773_);" d="M2715.967,2003.494
				c-33.552-30.671-110.072-11.87-190.826,35.256c93.271,100.287,103.57,165.465,92.518,207.799
				c-12.489,47.845-50.777,61.708-50.506,113.992c0.334,64.25,58.364,81.131,57.293,149.125
				c-0.707,44.96-26.189,44.554-32.073,100.098c-6.962,65.719,26.381,88.279,15.716,136.916
				c-4.588,20.924-17.762,48.283-55.403,76.523c2.767,19.956,5.602,39.71,8.554,59.091c7.44,0.217,15.261,0.24,23.429-0.011
				c5.516-0.165,10.862-0.447,16.024-0.816c10.323-27.73,22.515-64.192,33.407-107.736c11.449-45.789,18.325-86.85,23.2-126.114
				c17.162-138.241-3.369-150.249,10.583-252.702c12.356-90.738,30.23-94.325,50.912-223.158
				C2741.236,2031.967,2724.232,2011.045,2715.967,2003.494z"/>
			
				<linearGradient id="SVGID_00000059278377957928091910000007960381581260304026_" gradientUnits="userSpaceOnUse" x1="3360.8943" y1="2418.6216" x2="3803.7021" y2="2418.6216" gradientTransform="matrix(1 -0.0024 0.0024 1 -794.8005 3.3687)">
				<stop  offset="0" style="stop-color:#444B8C"/>
				<stop  offset="0.9964" style="stop-color:#3E4177"/>
			</linearGradient>
			<path style="fill:url(#SVGID_00000059278377957928091910000007960381581260304026_);" d="M2571.01,2043.539
				c80.383,117.014,167.133,262.675,244.819,437.088c58.707,131.805,101.354,255.587,132.712,365.921
				c4.212,1.937,14.146,5.799,26.824,4.093c17.293-2.329,27.634-13.396,30.336-16.484c12.464-79.178,10.908-146.206,6.497-194.574
				c-2.825-30.967-7.815-82.538-27.712-146.169c-22.286-71.275-37.499-75.247-66.531-150.642
				c-30.132-78.256-22.926-97.82-51.838-195.774c-11.878-40.24-31.742-100.116-64.454-171.718
				C2724.778,1998.031,2647.893,2020.786,2571.01,2043.539z"/>
			
				<linearGradient id="SVGID_00000017514972851501575570000000165647718595900291_" gradientUnits="userSpaceOnUse" x1="1933.6519" y1="2696.8535" x2="3339.2932" y2="1195.5878">
				<stop  offset="0" style="stop-color:#FFC444"/>
				<stop  offset="0.9964" style="stop-color:#F36F56"/>
			</linearGradient>
			<path style="fill:url(#SVGID_00000017514972851501575570000000165647718595900291_);" d="M2244.473,1878.437
				c0.761,28.473,47.558,53.552,85.238,61.244c88.101,17.981,190.243-46.033,238.723-116.847
				c9.52-13.905,20.097-30.763,22.646-29.459c5.764,2.952-47.2,89.973-70.164,188.947c-11.749,50.633-8.673,74.346-30.637,108.055
				c-4.975,7.636-11.106,15.586-8.952,24.621c5.396,22.624,57.137,28.499,93.028,32.574c37.894,4.302,73.229,3.886,108.162,3.375
				c55.922-0.816,60.326-3.721,73.091,2.545c38.896,19.089,36.26,64.827,65.531,70.926c24.581,5.124,49.515-22.326,57.421-31.029
				c41.094-45.237,38.898-99.777,46.187-154.789c16.944-127.896,86.429-268.019,154.4-356.722
				c20.615-26.902,34.95-41.053,35.845-66.055c2.628-73.393-113.644-154.412-210.451-163.721
				c-26.534-2.55-74.049-1.748-118.592,2.453c-17.803,1.676-36.756,4.146-57.128,7.71c-49.405,8.643-83.799,14.658-118.85,30.695
				c-141.341,64.67-110.496,208.624-263.475,308.155C2293.896,1835.338,2243.676,1848.62,2244.473,1878.437z"/>
			
				<linearGradient id="SVGID_00000013171331794080989240000000817358551773882291_" gradientUnits="userSpaceOnUse" x1="2826.0662" y1="1517.032" x2="2779.0752" y2="1931.5558">
				<stop  offset="0" style="stop-color:#FFC444"/>
				<stop  offset="0.9964" style="stop-color:#F36F56"/>
			</linearGradient>
			<path style="fill:url(#SVGID_00000013171331794080989240000000817358551773882291_);" d="M2823.59,1375.967
				c0,0,6.071,33.877,20.043,57.993c12.629,21.795,64.843,29.608,75.721,33.402c10.878,3.792-16.411,22.738-45.433,29.607
				c-29.019,6.87-113.908,11.361-130.533,2.224c-16.626-9.136,10.797-11.93,30.766-22.428c19.97-10.499,26.649-53.175,20.465-71.317
				C2788.436,1387.302,2823.59,1375.967,2823.59,1375.967z"/>
			<g>
				
					<linearGradient id="SVGID_00000064329380869147533050000017477763921473573039_" gradientUnits="userSpaceOnUse" x1="4686.8325" y1="2185.8586" x2="4611.3613" y2="1994.1758" gradientTransform="matrix(0.9989 0.0475 -0.0475 0.9989 -1725.9976 -907.3022)">
					<stop  offset="0" style="stop-color:#444B8C"/>
					<stop  offset="0.9964" style="stop-color:#3E4177"/>
				</linearGradient>
				<path style="fill:url(#SVGID_00000064329380869147533050000017477763921473573039_);" d="M2768.417,1366.162
					c-21.06-15.051-26.892-55.752-15.195-64.889c3.344-2.611,6.537-1.412,54.064,17.652c23.601,9.469,35.21,14.51,39.033,24.933
					c2.335,6.362,1.957,14.958-0.622,21.731c-1.328,3.485-3.915,7.824-9.668,16.105c-5.106,7.348-4.762,7.099-6.327,9.235
					c-3.76,5.13-11.013,13.768-24.302,23.78c-0.739-3.746-1.907-8.395-3.864-13.464c-0.753-1.951-3.789-9.575-8.603-15.998
					C2784.65,1374.193,2775.252,1371.048,2768.417,1366.162z"/>
				
					<linearGradient id="SVGID_00000182524820630407163970000002865692243888830114_" gradientUnits="userSpaceOnUse" x1="2796.8008" y1="1354.4028" x2="2833.7219" y2="1659.8407">
					<stop  offset="0" style="stop-color:#FFC444"/>
					<stop  offset="0.9964" style="stop-color:#F36F56"/>
				</linearGradient>
				<path style="fill:url(#SVGID_00000182524820630407163970000002865692243888830114_);" d="M2822.39,1404.87
					c0,0-13.779,20.526-39.301,17.741c-22.851-2.495-23.959-54.032-8.844-64.298c5.042-3.425,14.888-4.506,22.744-1.931
					c4.64,1.521,6.143,3.545,13.772,5.882c7.036,2.158,9.083,1.456,11.151,3.359c2.589,2.379,4.314,8.01-0.831,22.839
					c4.566-4.237,9.889-5.706,13.53-3.788c0.58,0.306,2.108,1.445,2.921,3.106C2840.479,1393.792,2834.792,1401.054,2822.39,1404.87
					z"/>
			</g>
			
				<linearGradient id="SVGID_00000112625572937475468350000004505010715784439975_" gradientUnits="userSpaceOnUse" x1="2258.3169" y1="1835.6718" x2="2614.5527" y2="1835.6718">
				<stop  offset="0" style="stop-color:#FFC444"/>
				<stop  offset="0.9964" style="stop-color:#F36F56"/>
			</linearGradient>
			<path style="opacity:0.3;fill:url(#SVGID_00000112625572937475468350000004505010715784439975_);" d="M2368.056,1874.061
				c63.877-14.386,89.33-13.923,120.918-39.374c52.592-42.375,60.49-106.87,91.053-106.082
				c14.443,0.373,26.176,15.123,34.525,29.566c-7.694,12.05-15.388,24.1-23.082,36.149c-0.031-0.458-0.133-0.813-0.389-0.945
				c-2.55-1.305-13.127,15.554-22.646,29.459c-48.48,70.813-150.622,134.828-238.723,116.847
				c-25.261-5.157-54.557-18.147-71.395-34.716C2301.799,1890.276,2338.936,1880.619,2368.056,1874.061z"/>
			
				<linearGradient id="SVGID_00000160154447522715215210000000934325465863285437_" gradientUnits="userSpaceOnUse" x1="2225.51" y1="1929.1322" x2="2096.4211" y2="2190.8962">
				<stop  offset="0" style="stop-color:#FFC444"/>
				<stop  offset="0.9964" style="stop-color:#F36F56"/>
			</linearGradient>
			<path style="fill:url(#SVGID_00000160154447522715215210000000934325465863285437_);" d="M2264.021,1945.267
				c0,0-36.044-3.585-57.521-12.774c-21.478-9.191-35.352,4.005-33.378,13.141c1.973,9.133,37.308,21.85,51.425,22.306
				C2238.662,1968.397,2264.021,1945.267,2264.021,1945.267z"/>
			
				<linearGradient id="SVGID_00000012433400666331322490000010172562578309191319_" gradientUnits="userSpaceOnUse" x1="2092.8042" y1="2845.8691" x2="3498.4438" y2="1344.605">
				<stop  offset="0" style="stop-color:#FFC444"/>
				<stop  offset="0.9964" style="stop-color:#F36F56"/>
			</linearGradient>
			<path style="fill:url(#SVGID_00000012433400666331322490000010172562578309191319_);" d="M3040.302,2119.636
				c38.698,3.453,125.809,5.028,187.419-51.971c102.569-94.886,51.686-275.501,15.983-353.178
				c-40.933-89.06-106.083-138.91-145.676-169.205c-49.121-37.586-79.103-60.526-115.173-55.389
				c-93.287,13.285-157.894,204.48-106.683,259.22c16.766,17.92,33.367,7.773,81.886,23.224
				c15.8,5.033,133.73,42.594,154.262,129.45c14.371,60.791-22.217,131.974-87.337,179.782
				C3030.091,2094.257,3035.197,2106.947,3040.302,2119.636z"/>
			
				<linearGradient id="SVGID_00000127740589523081123350000003254566987904045440_" gradientUnits="userSpaceOnUse" x1="2484.822" y1="1948.6628" x2="3215.6873" y2="1948.6628">
				<stop  offset="0" style="stop-color:#FFC444"/>
				<stop  offset="0.9964" style="stop-color:#F36F56"/>
			</linearGradient>
			<path style="opacity:0.3;fill:url(#SVGID_00000127740589523081123350000003254566987904045440_);" d="M2606.539,2088.142
				c43.811-27.687,50.293-55.748,99.353-74.708c63.733-24.633,94.36,6.657,125.958-18.605
				c37.604-30.065,4.316-82.443,32.456-173.336c4.776-15.428,41.054-132.607,124.294-147.537
				c38.815-6.962,90.083,7.908,109.838,40.802c15.46,25.742,1.058,44.932,19.855,73.351c18.785,28.401,41.251,21.454,65.197,45.141
				c38.023,37.612,43.851,116.925,9.523,161.779c-16.011,20.921-36.818,29.194-75.968,44.762
				c-23.914,9.507-46.144,15.422-65.288,19.178c47.938-46.012,72.817-105.35,60.564-157.182
				c-12.798-54.142-63.439-89.125-103.601-109.019c-40.188,75.631-73.034,163.271-83.971,245.833
				c-7.289,55.012-5.093,109.552-46.187,154.789c-7.906,8.703-32.841,36.153-57.421,31.029
				c-29.27-6.099-26.634-51.837-65.531-70.926c-12.765-6.266-17.169-3.361-73.091-2.545c-34.933,0.511-70.268,0.927-108.162-3.375
				c-31.918-3.625-76.291-8.704-89.535-25.69C2542.445,2120.315,2580.902,2104.344,2606.539,2088.142z"/>
			<g>
				
					<linearGradient id="SVGID_00000121969741663118555840000014990119209524306352_" gradientUnits="userSpaceOnUse" x1="2114.2441" y1="2002.3387" x2="3021.5083" y2="2002.3387">
					<stop  offset="0" style="stop-color:#444B8C"/>
					<stop  offset="0.9964" style="stop-color:#26264F"/>
				</linearGradient>
				<path style="fill:url(#SVGID_00000121969741663118555840000014990119209524306352_);" d="M3014.895,2150.05l4.509-13.261
					c7.188-21.145-4.63-43.695-26.381-50.32l-852.793-259.777l-25.986,88.076l848.485,261.342
					C2984.367,2182.774,3007.73,2171.128,3014.895,2150.05z"/>
				
					<linearGradient id="SVGID_00000096781852538122564950000015018468911091560618_" gradientUnits="userSpaceOnUse" x1="1277.4984" y1="1715.9562" x2="2213.6272" y2="1715.9562">
					<stop  offset="0" style="stop-color:#444B8C"/>
					<stop  offset="0.9964" style="stop-color:#26264F"/>
				</linearGradient>
				<path style="fill:url(#SVGID_00000096781852538122564950000015018468911091560618_);" d="M1292.797,1588.071
					c65.202-257.593,320.708-412.831,573.393-340.077c257.323,74.09,404.644,352.899,326.462,615.718
					c-76.346,256.648-338.165,395.102-582.477,315.919C1370.084,2101.816,1229.077,1839.805,1292.797,1588.071z M2118.427,1840.976
					c64.616-219.949-58.671-452.909-273.551-515.421c-211.634-61.568-426.646,67.661-482.129,283.943
					c-54.419,212.132,64.414,433.247,267.143,498.383C1835.62,2173.982,2055.085,2056.592,2118.427,1840.976z"/>
				<path style="opacity:0.3;fill:#D8DEE8;" d="M2140.23,1826.692l108.734,33.123c7.461,34.679,21.967,54.549,36.566,66.65
					c54.923,45.53,128.262-4.126,230.581,49.26c51.344,26.79,41.587,43.838,89.714,62.531
					c79.563,30.903,115.984-11.904,186.398,16.224c71.222,28.451,78.243,89.936,118.636,87.729
					c17.279-0.943,39.524-13.514,64.328-61.173l17.836,5.433c21.75,6.626,33.568,29.174,26.381,50.321l-4.509,13.26
					c-7.166,21.076-30.528,32.724-52.166,26.059l-848.485-261.343L2140.23,1826.692z"/>
				<path style="opacity:0.56;fill:#FFFFFF;" d="M1609.757,2143.133c212.802,68.483,440.003-52.792,505.702-275.915
					c67.066-227.769-60.604-469.081-283.212-533.719c-219.127-63.627-441.559,70.326-498.84,294.163
					C1277.262,1847.059,1400.163,2075.683,1609.757,2143.133z"/>
				
					<linearGradient id="SVGID_00000091001632514783144390000015225723663487764376_" gradientUnits="userSpaceOnUse" x1="-6972.0425" y1="3361.3506" x2="-7443.3989" y2="2833.5928" gradientTransform="matrix(-0.8705 0.4922 0.4922 0.8705 -6104.4209 2747.6741)">
					<stop  offset="0" style="stop-color:#444B8C"/>
					<stop  offset="0.9964" style="stop-color:#26264F"/>
				</linearGradient>
				<path style="fill:url(#SVGID_00000091001632514783144390000015225723663487764376_);" d="M1276.279,1610.163
					c65.202-257.593,320.708-412.831,573.394-340.077c257.323,74.09,404.644,352.899,326.462,615.718
					c-76.347,256.649-338.166,395.103-582.478,315.919C1353.567,2123.907,1212.559,1861.897,1276.279,1610.163z M2101.91,1863.068
					c64.616-219.95-58.671-452.909-273.551-515.421c-211.634-61.567-426.646,67.661-482.13,283.943
					c-54.418,212.132,64.415,433.246,267.144,498.383C1819.103,2196.073,2038.567,2078.683,2101.91,1863.068z"/>
				
					<linearGradient id="SVGID_00000004510412772553583290000002698729142344230324_" gradientUnits="userSpaceOnUse" x1="-7664.9404" y1="2590.7939" x2="-7025.665" y2="3294.5347" gradientTransform="matrix(-0.8705 0.4922 0.4922 0.8705 -6104.4209 2747.6741)">
					<stop  offset="0" style="stop-color:#444B8C"/>
					<stop  offset="0.9964" style="stop-color:#26264F"/>
				</linearGradient>
				<path style="fill:url(#SVGID_00000004510412772553583290000002698729142344230324_);" d="M1300.977,1617.728
					c61.796-242.98,302.999-388.97,541.141-320.151c242.257,70.009,381.059,332.549,307.722,580.172
					c-71.713,242.14-318.535,373.192-549.225,298.652C1373.691,2103.079,1240.508,1855.488,1300.977,1617.728z M2101.91,1863.068
					c64.616-219.95-58.671-452.909-273.551-515.421c-211.634-61.567-426.646,67.661-482.13,283.943
					c-54.418,212.132,64.415,433.246,267.144,498.383C1819.103,2196.073,2038.567,2078.683,2101.91,1863.068z"/>
			</g>
			
				<linearGradient id="SVGID_00000021810402052474204810000014091633077918441110_" gradientUnits="userSpaceOnUse" x1="-5453.165" y1="410.5917" x2="-5435.4302" y2="310.2073" gradientTransform="matrix(-0.8553 -0.5182 -0.5182 0.8553 -1479.6936 -1003.974)">
				<stop  offset="0" style="stop-color:#FFC444"/>
				<stop  offset="0.9964" style="stop-color:#F36F56"/>
			</linearGradient>
			<path style="fill:url(#SVGID_00000021810402052474204810000014091633077918441110_);" d="M3037.017,2111.472l-8.618-21.42
				c0,0-14.069,0.857-25.615-7.421c-6.291-4.511-17.456-5.855-20.701-4.954c-3.244,0.9-15.499,0.364-1.531,7.028
				c13.967,6.663,13.857,11.614,8.035,17.083c-5.822,5.469-27.975,17.234-35.949,17.8c-7.974,0.567,6.443,12.901,14.485,14.476
				c8.042,1.573,21.229,3.565,37.544-6.04C3010.618,2124.521,3037.017,2111.472,3037.017,2111.472z"/>
		</g>
	</g>
</g>
</svg>
